<svg width="50" height="50" viewBox="0 0 50 50" fill="none" xmlns="http://www.w3.org/2000/svg">
<g id="Group 12015">
<circle id="Ellipse 205" cx="25" cy="25" r="25" fill="#0077B5"/>
<g id="Group 12014">
<g id="Group">
<path id="Vector" d="M32.2306 33.5774C32.2306 34.7853 32.2317 35.9926 32.23 37.201C32.2295 37.5159 32.0697 37.7353 31.8213 37.7046C31.6724 37.6864 31.5093 37.5881 31.4001 37.4784C29.7222 35.8056 28.0511 34.1265 26.3833 32.4434C26.2492 32.307 26.1156 32.2507 25.9235 32.2513C23.4242 32.2576 20.9249 32.2581 18.4256 32.253C18.0834 32.2524 17.7367 32.2439 17.3996 32.1922C14.395 31.7289 12.3299 29.3149 12.3271 26.2705C12.3243 23.6166 12.3243 20.9638 12.3294 18.3099C12.3299 17.9762 12.3442 17.6374 12.3976 17.3089C12.8756 14.3753 15.2834 12.3285 18.2579 12.3262C22.7455 12.3228 27.2337 12.3239 31.7219 12.3285C32.055 12.329 32.3932 12.3438 32.72 12.4012C35.6325 12.9151 37.647 15.295 37.6629 18.2553C37.6771 20.9706 37.6794 23.6853 37.6714 26.4012C37.664 28.9005 36.0742 31.1059 33.709 31.8977C33.2378 32.0552 32.7416 32.137 32.2317 32.261C32.2306 32.6804 32.2306 33.1289 32.2306 33.5774ZM31.3859 32.008C31.3859 31.53 31.4843 31.4282 31.9691 31.4015C34.4241 31.2628 36.2834 29.6576 36.7432 27.268C36.7978 26.9844 36.8234 26.6905 36.8239 26.4018C36.8268 23.6865 36.8296 20.9717 36.8165 18.2559C36.8052 15.7418 35.1477 13.7387 32.6893 13.2573C32.3727 13.1953 32.043 13.1743 31.719 13.1737C27.2218 13.168 22.7256 13.1675 18.2289 13.1714C15.3783 13.1737 13.182 15.37 13.1723 18.232C13.1632 20.8944 13.1695 23.5563 13.1706 26.2193C13.1718 29.212 15.3363 31.3958 18.3255 31.4061C20.851 31.4146 23.377 31.4191 25.9025 31.3975C26.364 31.3936 26.6857 31.5306 27.0052 31.8597C28.3688 33.2608 29.7574 34.6375 31.1381 36.0227C31.2035 36.0886 31.2734 36.1512 31.3859 36.2575C31.3859 34.7938 31.3859 33.4012 31.3859 32.008Z" fill="white"/>
<path id="Vector_2" d="M31.867 38.0314C31.8386 38.0314 31.8102 38.0297 31.7812 38.0263C31.5737 38.0007 31.3452 37.8819 31.1707 37.7074C29.6286 36.1699 27.987 34.5226 26.1528 32.6713C26.0783 32.5963 26.0294 32.5752 25.9265 32.5752C25.926 32.5752 25.9248 32.5752 25.9242 32.5752C23.4232 32.5815 20.9001 32.5821 18.4246 32.5769C18.0813 32.5764 17.7135 32.5678 17.3498 32.5127C15.798 32.2734 14.4634 31.5464 13.4908 30.4102C12.5183 29.2745 12.0033 27.8432 12.0021 26.2704C11.9987 23.3385 11.9993 20.7341 12.0044 18.3092C12.005 17.8835 12.0277 17.5589 12.0766 17.2571C12.5802 14.1655 15.1216 12.005 18.2569 12.0021C22.5541 11.9987 26.9588 11.9993 31.722 12.0044C32.1512 12.005 32.4763 12.0294 32.7764 12.0823C34.2816 12.3477 35.5781 13.081 36.5257 14.2019C37.4738 15.3239 37.9791 16.7251 37.9871 18.2541C38.0007 20.9023 38.0036 23.6438 37.9956 26.4029C37.9876 29.0391 36.3063 31.3713 33.8115 32.2058C33.475 32.3183 33.1255 32.3945 32.7872 32.4678C32.7105 32.4843 32.6332 32.5013 32.5548 32.519C32.5542 32.8623 32.5542 33.2204 32.5542 33.5779V34.6028C32.5542 35.469 32.5548 36.3353 32.5536 37.2015C32.5531 37.484 32.4587 37.7228 32.2876 37.8734C32.1711 37.9763 32.0239 38.0314 31.867 38.0314ZM25.9271 31.9261C26.2016 31.9261 26.4205 32.0182 26.6149 32.2149C28.448 34.0645 30.0884 35.7112 31.63 37.2481C31.7084 37.3266 31.8073 37.3755 31.8613 37.3817C31.8619 37.3817 31.863 37.3817 31.8636 37.3817C31.8767 37.3658 31.9056 37.309 31.9062 37.1998C31.9073 36.3341 31.9073 35.4684 31.9068 34.6022V33.5768C31.9068 33.1283 31.9068 32.6793 31.9079 32.2592L31.9085 32.0045L32.1557 31.9449C32.3234 31.9045 32.4894 31.8681 32.6503 31.8329C32.9862 31.7596 33.3034 31.6908 33.6063 31.5896C35.8368 30.8433 37.3402 28.7578 37.347 26.4C37.355 23.6432 37.3522 20.9035 37.3385 18.2569C37.3237 15.4359 35.4451 13.2112 32.6639 12.7212C32.4019 12.6751 32.1114 12.6541 31.7215 12.653C26.9588 12.6479 22.5547 12.6473 18.2581 12.6507C15.4473 12.653 13.1691 14.5901 12.7178 17.3611C12.674 17.6277 12.6547 17.9204 12.6541 18.3104C12.649 20.7352 12.6484 23.3385 12.6518 26.2698C12.6547 29.1784 14.5827 31.4293 17.4492 31.8715C17.7698 31.9204 18.1086 31.9278 18.4263 31.9284C20.9012 31.9329 23.4232 31.9324 25.9225 31.9267C25.9248 31.9261 25.926 31.9261 25.9271 31.9261ZM31.7095 37.0077L31.0695 36.4063C31.0064 36.3478 30.957 36.3012 30.9081 36.2523C30.5562 35.8987 30.2038 35.5469 29.852 35.1945C28.8385 34.1804 27.7903 33.1317 26.7723 32.0858C26.5108 31.817 26.2755 31.7192 25.9049 31.722C23.2874 31.7448 20.6193 31.7385 18.324 31.7306C15.1511 31.7198 12.8474 29.4018 12.8457 26.2193C12.8457 25.569 12.8445 24.9193 12.844 24.269C12.8423 22.2898 12.8406 20.2435 12.8474 18.2308C12.8525 16.7603 13.4056 15.4001 14.4054 14.3997C15.4052 13.3993 16.7626 12.8479 18.2285 12.8468C22.8179 12.8434 27.3566 12.844 31.7198 12.8491C32.1108 12.8497 32.4485 12.8792 32.752 12.9383C35.365 13.4499 37.1293 15.586 37.1413 18.2535C37.1538 20.8756 37.1521 23.4949 37.1487 26.4011C37.1481 26.7212 37.1191 27.0332 37.0623 27.3282C36.5763 29.852 34.5846 31.5777 31.9875 31.7243C31.817 31.734 31.7544 31.7516 31.7323 31.7607C31.7249 31.7817 31.7107 31.8437 31.7107 32.0068C31.7107 33.3994 31.7107 34.7926 31.7101 36.2563L31.7095 37.0077ZM25.9214 31.0729C26.454 31.0729 26.8604 31.2463 27.2367 31.6334C28.2513 32.6758 29.2978 33.7229 30.3101 34.7358C30.5602 34.9859 30.8109 35.2365 31.061 35.4872C31.0616 34.3009 31.0616 33.1544 31.0616 32.008C31.0616 31.3571 31.2946 31.1133 31.9511 31.0775C34.2759 30.9462 35.9902 29.4632 36.4245 27.2066C36.4734 26.9514 36.499 26.6802 36.4995 26.4011C36.503 23.496 36.5047 20.8779 36.4922 18.2575C36.4814 15.9077 34.9279 14.0268 32.627 13.5761C32.3649 13.5249 32.0676 13.4993 31.7186 13.4988C27.3566 13.4937 22.8179 13.4925 18.2291 13.4965C15.5399 13.4988 13.5056 15.5354 13.4965 18.2336C13.4897 20.2453 13.4914 22.291 13.4931 24.269C13.4937 24.9193 13.4942 25.5696 13.4948 26.2193C13.4959 29.0272 15.528 31.0724 18.3263 31.082C20.6198 31.0894 23.2857 31.0962 25.8992 31.0735C25.9066 31.0729 25.914 31.0729 25.9214 31.0729Z" fill="white"/>
</g>
<g id="Group_2">
<path id="Vector_3" d="M26.8966 18.9246C26.912 20.361 25.745 21.5387 24.2876 21.558C22.8518 21.5774 21.6496 20.4019 21.636 18.9638C21.6212 17.5178 22.7893 16.3139 24.22 16.2991C25.7013 16.2837 26.8807 17.441 26.8966 18.9246ZM25.969 18.9337C25.9713 17.9907 25.2096 17.2279 24.2649 17.2273C23.3412 17.2267 22.5705 17.9895 22.5636 18.9115C22.5568 19.8556 23.3168 20.6264 24.2564 20.6287C25.2068 20.6321 25.9662 19.8801 25.969 18.9337Z" fill="white"/>
<path id="Vector_4" d="M24.2507 21.6403C23.5487 21.6403 22.8825 21.3669 22.3715 20.8673C21.8508 20.3585 21.5604 19.6833 21.553 18.9654C21.5377 17.4659 22.733 16.2342 24.2171 16.2188C24.9584 16.2114 25.6467 16.4854 26.1634 16.9918C26.6801 17.4983 26.9688 18.1844 26.9768 18.9239C26.9921 20.4012 25.786 21.6193 24.2876 21.6392C24.2751 21.6403 24.2626 21.6403 24.2507 21.6403ZM24.2478 16.3814C24.2382 16.3814 24.2285 16.3814 24.2189 16.3814C22.824 16.3956 21.7014 17.554 21.7156 18.9642C21.7224 19.6384 21.9952 20.2733 22.4852 20.7519C22.974 21.2294 23.6146 21.4868 24.2854 21.4783C25.6944 21.4596 26.8296 20.3148 26.8148 18.9267C26.8074 18.2304 26.5357 17.5847 26.0503 17.1089C25.5711 16.6389 24.9322 16.3814 24.2478 16.3814ZM24.2609 20.7104C24.2586 20.7104 24.2569 20.7104 24.2547 20.7104C23.78 20.7093 23.3344 20.5222 22.999 20.1835C22.6614 19.843 22.4778 19.3911 22.4812 18.9108C22.488 17.9377 23.2872 17.1465 24.2621 17.1465C24.2626 17.1465 24.2626 17.1465 24.2632 17.1465C24.7424 17.147 25.192 17.3329 25.529 17.6711C25.8655 18.0082 26.0497 18.4572 26.0486 18.9341C26.0457 19.9317 25.2607 20.7104 24.2609 20.7104ZM24.2626 17.309C23.3912 17.309 22.65 18.0428 22.6438 18.9125C22.6409 19.349 22.8081 19.76 23.115 20.0698C23.4197 20.3773 23.8244 20.5473 24.2558 20.5484C24.2575 20.5484 24.2592 20.5484 24.2615 20.5484C25.1709 20.5484 25.8843 19.8402 25.8871 18.9341C25.8883 18.5004 25.7206 18.0929 25.4148 17.7859C25.1084 17.4784 24.6997 17.309 24.2638 17.309C24.2632 17.309 24.2632 17.309 24.2626 17.309Z" fill="white"/>
</g>
<g id="Group_3">
<path id="Vector_5" d="M28.1516 23.5499L27.777 24.1411C27.7429 24.1957 27.669 24.2121 27.6139 24.178L26.9841 23.779C26.5157 23.5175 26.0087 23.4044 25.4567 23.4124C24.5956 23.4249 23.7356 23.4152 22.875 23.4107C21.4637 23.401 20.3467 24.5327 20.3837 25.9424C20.3888 26.1345 20.4013 26.3295 20.4354 26.5188C20.5309 27.0451 20.8469 27.3424 21.3784 27.4117C21.5364 27.4328 21.8547 27.4185 21.8547 27.4185H23.4355C23.4355 27.4185 23.4423 27.4407 23.4468 27.4754H26.489C26.5805 27.4407 26.6402 27.6073 26.6402 27.6073V28.2109C26.6402 28.2109 26.5811 28.3775 26.489 28.3848H23.4468C23.4355 28.3775 23.4258 28.3723 23.4167 28.3706C22.8432 28.3723 22.2719 28.3723 21.6967 28.3689C21.3125 28.3672 20.9362 28.3007 20.586 28.1365C19.9932 27.8574 19.6459 27.3788 19.5367 26.7478C19.335 25.5917 19.5492 24.5225 20.3086 23.6039C20.8321 22.969 21.5375 22.6462 22.3396 22.541C22.6835 22.4972 23.0336 22.4921 23.3809 22.4893C24.1346 22.4813 24.8906 22.4796 25.6449 22.4864C26.2775 22.4893 26.8624 22.6433 27.3984 22.9452C27.4149 22.9469 27.4291 22.952 27.4433 22.9616L28.1152 23.3845C28.1698 23.4209 28.1857 23.4931 28.1516 23.5499Z" fill="white"/>
<path id="Vector_6" d="M26.492 28.4656H23.4226L23.4022 28.4526C23.4016 28.452 23.401 28.452 23.401 28.4514C22.7564 28.4537 22.2142 28.4526 21.6958 28.4497C21.2718 28.4474 20.8864 28.3667 20.551 28.2098C19.9411 27.9228 19.5733 27.4357 19.4562 26.7615C19.2408 25.5264 19.5063 24.447 20.2458 23.5523C20.7477 22.9435 21.4491 22.5763 22.329 22.4609C22.6666 22.4183 23.0048 22.412 23.38 22.4086C24.1826 22.4001 24.9232 22.399 25.6451 22.4058C26.2823 22.4086 26.8814 22.5644 27.4248 22.8679C27.4475 22.8725 27.468 22.8816 27.4873 22.8946L28.1575 23.3164C28.2496 23.3778 28.2769 23.4983 28.22 23.5921L28.2189 23.5938L27.8443 24.1849C27.7869 24.2776 27.6635 24.3054 27.5698 24.2475L26.9394 23.8484C26.4994 23.6029 26.0123 23.4869 25.457 23.4943C24.7493 23.5045 24.0303 23.5 23.3351 23.4954L22.8735 23.4926C22.2119 23.4869 21.5952 23.741 21.1393 24.2054C20.6863 24.6675 20.4464 25.2837 20.4635 25.9407C20.4692 26.1664 20.4851 26.3455 20.5141 26.5046C20.6033 26.9963 20.8886 27.2669 21.3877 27.3317C21.5372 27.3515 21.8464 27.3379 21.8493 27.3379H23.4937L23.5113 27.3947H26.4756C26.5097 27.3857 26.5443 27.3891 26.5767 27.4044C26.6631 27.4442 26.7075 27.5579 26.7154 27.5806L26.72 27.5937V28.2252L26.7154 28.2383C26.7029 28.2741 26.6319 28.4548 26.4943 28.4662L26.492 28.4656ZM23.4681 28.3031H26.4835C26.5006 28.2985 26.5369 28.2496 26.5591 28.1951V27.6215C26.546 27.5914 26.5262 27.5607 26.5131 27.5522L26.504 27.5556H26.4886H23.376L23.3681 27.4988H21.8538C21.8441 27.4993 21.5304 27.5135 21.3667 27.4914C20.7971 27.4169 20.4567 27.0946 20.3549 26.5325C20.3248 26.3648 20.3077 26.1778 20.302 25.9436C20.2839 25.2422 20.5402 24.5839 21.0245 24.0906C21.5111 23.5943 22.1698 23.3261 22.8752 23.3289L23.3368 23.3317C24.0314 23.3363 24.7493 23.3408 25.4553 23.3306C26.0413 23.3221 26.554 23.4454 27.0229 23.7075L27.6567 24.1088C27.6732 24.119 27.6971 24.1139 27.7073 24.0974L28.0813 23.5068C28.0927 23.4875 28.0876 23.4636 28.0688 23.4517L27.3987 23.0299C27.3935 23.0265 27.3918 23.0259 27.3879 23.0254L27.3714 23.0237L27.3572 23.0157C26.8342 22.7213 26.2579 22.5706 25.6434 22.5678C24.9221 22.5615 24.182 22.5627 23.3806 22.5706C23.0105 22.574 22.6769 22.5797 22.3483 22.6218C21.5105 22.7315 20.8449 23.0794 20.3697 23.6557C19.662 24.5123 19.4079 25.548 19.6148 26.7337C19.7223 27.3527 20.0599 27.8 20.6187 28.0626C20.9324 28.2098 21.2945 28.2854 21.6952 28.2872C22.217 28.2906 22.7633 28.2911 23.4147 28.2889H23.4226L23.4306 28.2906C23.4454 28.2934 23.4573 28.298 23.4681 28.3031Z" fill="white"/>
</g>
<g id="Group_4">
<path id="Vector_7" d="M29.3126 24.7311V28.0029C29.3126 28.0251 29.295 28.0438 29.2723 28.0438H28.4429C28.4213 28.0438 28.4026 28.0256 28.4026 28.0029V24.7311C28.4026 24.709 28.4202 24.6902 28.4429 24.6902H29.2723C29.2944 24.6902 29.3126 24.709 29.3126 24.7311Z" fill="white"/>
<path id="Vector_8" d="M29.2717 28.125H28.4424C28.3753 28.125 28.3213 28.0704 28.3213 28.0028V24.7316C28.3213 24.6639 28.3759 24.6094 28.4424 24.6094H29.2717C29.3387 24.6094 29.3927 24.6639 29.3927 24.7316V28.0028C29.3933 28.0699 29.3387 28.125 29.2717 28.125ZM28.4839 27.9624H29.2313V24.7708H28.4839V27.9624Z" fill="white"/>
</g>
<g id="Group_5">
<path id="Vector_9" d="M27.1935 25.8836H30.4647C30.4869 25.8836 30.5056 25.9012 30.5056 25.9239V26.7532C30.5056 26.7748 30.4875 26.7936 30.4647 26.7936H27.1935C27.1713 26.7936 27.1526 26.776 27.1526 26.7532V25.9239C27.1526 25.9017 27.1708 25.8836 27.1935 25.8836Z" fill="white"/>
<path id="Vector_10" d="M30.4647 26.8742H27.1935C27.1259 26.8742 27.0713 26.8196 27.0713 26.7531V25.9238C27.0713 25.8567 27.1259 25.8027 27.1935 25.8027H30.4647C30.5323 25.8027 30.5869 25.8573 30.5869 25.9238V26.7531C30.5869 26.8196 30.5318 26.8742 30.4647 26.8742ZM27.2333 26.7116H30.4249V25.9642H27.2333V26.7116Z" fill="white"/>
</g>
</g>
</g>
</svg>
