<svg width="24" height="24" viewBox="0 0 24 24" fill="none" xmlns="http://www.w3.org/2000/svg">
<path d="M19.4979 21.6671L17.5903 23.5709C14.2491 26.9121 -2.91205 9.7472 0.429158 6.40978L2.33679 4.50594L7.42635 9.59549L7.0964 9.92544C4.93846 12.0834 11.9167 19.0616 14.0708 16.9037L14.4046 16.5737L19.4979 21.6671ZM7.96224 9.05847L8.566 8.45546C8.69471 8.32678 8.79681 8.174 8.86647 8.00585C8.93613 7.8377 8.97198 7.65748 8.97198 7.47548C8.97198 7.29347 8.93613 7.11325 8.86647 6.9451C8.79681 6.77696 8.69471 6.62418 8.566 6.49549L5.43263 3.36287C5.17276 3.10316 4.82041 2.95728 4.45302 2.95728C4.08563 2.95728 3.73327 3.10316 3.47341 3.36287L2.86964 3.96588L7.96224 9.05847ZM20.0331 21.1289L20.6361 20.5255C20.8959 20.2657 21.0419 19.9132 21.0419 19.5457C21.0419 19.1782 20.8959 18.8258 20.6361 18.5659L17.5035 15.4329C17.3748 15.3042 17.222 15.2021 17.0538 15.1325C16.8857 15.0628 16.7055 15.027 16.5235 15.027C16.3415 15.027 16.1612 15.0628 15.9931 15.1325C15.8249 15.2021 15.6722 15.3042 15.5435 15.4329L14.9405 16.0363L20.0331 21.1289ZM17.8956 0.0106649C15.3072 0.171088 13.1496 2.21905 12.8629 4.79644C12.7156 6.0756 13.0287 7.36542 13.7462 8.4346L13.1337 10.4029C13.0245 10.7545 13.3704 11.0765 13.7132 10.9422L15.6614 10.1792C16.6714 10.7291 17.8793 10.9695 19.146 10.7606C21.5042 10.3718 23.3595 8.41451 23.625 6.03925C24.0034 2.65102 21.252 -0.196786 17.8956 0.0106649ZM16.7768 3.06061H19.7115C19.812 3.06061 19.9085 3.10056 19.9796 3.17169C20.0507 3.24281 20.0907 3.33928 20.0907 3.43986C20.0907 3.54044 20.0507 3.63691 19.9796 3.70803C19.9085 3.77915 19.812 3.81911 19.7115 3.81911H16.7772C16.6766 3.81911 16.5801 3.77915 16.509 3.70803C16.4379 3.63691 16.3979 3.54044 16.3979 3.43986C16.3979 3.33928 16.4379 3.24281 16.509 3.17169C16.5801 3.10056 16.6762 3.06061 16.7768 3.06061ZM19.7115 7.86042H16.7772C16.6766 7.86042 16.5801 7.82046 16.509 7.74934C16.4379 7.67821 16.3979 7.58175 16.3979 7.48117C16.3979 7.38058 16.4379 7.28412 16.509 7.21299C16.5801 7.14187 16.6766 7.10191 16.7772 7.10191H19.7115C19.812 7.10191 19.9085 7.14187 19.9796 7.21299C20.0507 7.28412 20.0907 7.38058 20.0907 7.48117C20.0907 7.58175 20.0507 7.67821 19.9796 7.74934C19.9085 7.82046 19.812 7.86042 19.7115 7.86042ZM20.9156 5.83939H15.5727C15.4721 5.83939 15.3756 5.79943 15.3045 5.7283C15.2334 5.65718 15.1934 5.56072 15.1934 5.46013C15.1934 5.35955 15.2334 5.26309 15.3045 5.19196C15.3756 5.12084 15.4721 5.08088 15.5727 5.08088H20.9156C21.0162 5.08088 21.1126 5.12084 21.1838 5.19196C21.2549 5.26309 21.2948 5.35955 21.2948 5.46013C21.2948 5.56072 21.2549 5.65718 21.1838 5.7283C21.1126 5.79943 21.0162 5.83939 20.9156 5.83939Z" fill="#0077B5" fill-opacity="0.75"/>
</svg>
