<svg width="20" height="20" viewBox="0 0 20 20" fill="none" xmlns="http://www.w3.org/2000/svg">
<path d="M17 0H3C2.20435 0 1.44129 0.316071 0.87868 0.87868C0.316071 1.44129 0 2.20435 0 3V17C0 17.7956 0.316071 18.5587 0.87868 19.1213C1.44129 19.6839 2.20435 20 3 20H17C17.7956 20 18.5587 19.6839 19.1213 19.1213C19.6839 18.5587 20 17.7956 20 17V3C20 2.20435 19.6839 1.44129 19.1213 0.87868C18.5587 0.316071 17.7956 0 17 0ZM8 5C8.39556 5 8.78224 5.1173 9.11114 5.33706C9.44004 5.55682 9.69638 5.86918 9.84776 6.23463C9.99913 6.60009 10.0387 7.00222 9.96157 7.39018C9.8844 7.77814 9.69392 8.13451 9.41421 8.41421C9.13451 8.69392 8.77814 8.8844 8.39018 8.96157C8.00222 9.03874 7.60009 8.99913 7.23463 8.84776C6.86918 8.69638 6.55682 8.44004 6.33706 8.11114C6.1173 7.78224 6 7.39556 6 7C6 6.46957 6.21071 5.96086 6.58579 5.58579C6.96086 5.21071 7.46957 5 8 5ZM5.49 18H3C2.78834 17.9964 2.58328 17.9257 2.41436 17.7981C2.24543 17.6705 2.12136 17.4926 2.06 17.29L5.15 13.58C5.24961 13.4686 5.37125 13.3791 5.50723 13.3171C5.64322 13.2552 5.79058 13.2221 5.94 13.22C6.09185 13.2231 6.24101 13.2607 6.37616 13.33C6.51131 13.3993 6.6289 13.4985 6.72 13.62L7.72 14.95L5.49 18ZM18 17C18 17.2652 17.8946 17.5196 17.7071 17.7071C17.5196 17.8946 17.2652 18 17 18H8L13.47 10.48C13.5548 10.363 13.664 10.2657 13.79 10.1949C13.916 10.1241 14.0559 10.0815 14.2 10.07C14.3448 10.058 14.4906 10.0778 14.627 10.1279C14.7634 10.1779 14.8873 10.2572 14.99 10.36L18 13.41V17Z" fill="#00A0DC"/>
</svg>
