<svg width="21" height="21" viewBox="0 0 21 21" fill="none" xmlns="http://www.w3.org/2000/svg">
<g clip-path="url(#clip0_331_327)">
<path d="M11.1471 0.0392627C9.64741 -0.0634512 8.14307 0.156085 6.73525 0.683115C5.32742 1.21014 4.04873 2.03245 2.98514 3.09476C1.92367 4.15958 1.10272 5.43952 0.577617 6.84836C0.05251 8.25719 -0.164565 9.76221 -0.0589855 11.262C0.326014 16.8218 5.23652 21.0148 11.3633 21.0148H16.5406C18.953 21.0148 20.9156 19.0521 20.9156 16.6398V10.8123C20.9156 5.14314 16.6246 0.411138 11.1471 0.0392627ZM14.8746 9.62489C14.3916 9.62489 13.9996 9.23376 13.9996 8.74989C13.9996 8.26601 13.6068 7.87489 13.1246 7.87489H11.3746V14.8749H12.2496C12.4817 14.8749 12.7043 14.9671 12.8684 15.1312C13.0325 15.2953 13.1246 15.5178 13.1246 15.7499C13.1246 15.982 13.0325 16.2045 12.8684 16.3686C12.7043 16.5327 12.4817 16.6249 12.2496 16.6249H8.74964C8.51758 16.6249 8.29502 16.5327 8.13092 16.3686C7.96683 16.2045 7.87464 15.982 7.87464 15.7499C7.87464 15.5178 7.96683 15.2953 8.13092 15.1312C8.29502 14.9671 8.51758 14.8749 8.74964 14.8749H9.62464V7.87489H7.87464C7.39252 7.87489 6.99964 8.26689 6.99964 8.74989C6.99964 8.98195 6.90745 9.20451 6.74336 9.36861C6.57926 9.5327 6.3567 9.62489 6.12464 9.62489C5.89258 9.62489 5.67002 9.5327 5.50592 9.36861C5.34183 9.20451 5.24964 8.98195 5.24964 8.74989C5.24964 7.30264 6.42739 6.12489 7.87464 6.12489H13.1246C14.5719 6.12489 15.7496 7.30264 15.7496 8.74989C15.7496 8.98195 15.6575 9.20451 15.4934 9.36861C15.3293 9.5327 15.1067 9.62489 14.8746 9.62489Z" fill="#0077B5"/>
</g>
<defs>
<clipPath id="clip0_331_327">
<rect width="21" height="21" fill="white"/>
</clipPath>
</defs>
</svg>
