<svg width="24" height="24" viewBox="0 0 24 24" fill="none" xmlns="http://www.w3.org/2000/svg">
<g clip-path="url(#clip0_2266_760)">
<path d="M12 0C5.383 0 0 5.383 0 12C0 18.617 5.383 24 12 24H24V12C24 5.383 18.617 0 12 0ZM15.5 8C15.697 8.00007 15.8922 8.03894 16.0742 8.11441C16.2562 8.18988 16.4216 8.30046 16.5609 8.43984C16.7002 8.57922 16.8106 8.74467 16.886 8.92675C16.9613 9.10882 17.0001 9.30395 17 9.501C16.9999 9.69805 16.9611 9.89315 16.8856 10.0752C16.8101 10.2572 16.6995 10.4226 16.5602 10.5619C16.4208 10.7012 16.2553 10.8116 16.0733 10.887C15.8912 10.9623 15.696 11.0011 15.499 11.001C15.101 11.0009 14.7194 10.8427 14.4381 10.5612C14.1568 10.2797 13.9989 9.89796 13.999 9.5C13.9991 9.10204 14.1573 8.72044 14.4388 8.43913C14.7203 8.15783 15.102 7.99987 15.5 8ZM8.5 8C8.69705 8.00007 8.89215 8.03894 9.07418 8.11441C9.2562 8.18988 9.42158 8.30046 9.56087 8.43984C9.70016 8.57922 9.81063 8.74467 9.88597 8.92675C9.96132 9.10882 10.0001 9.30395 10 9.501C9.99993 9.69805 9.96106 9.89315 9.88559 10.0752C9.81012 10.2572 9.69954 10.4226 9.56016 10.5619C9.42078 10.7012 9.25533 10.8116 9.07325 10.887C8.89118 10.9623 8.69605 11.0011 8.499 11.001C8.10104 11.0009 7.71944 10.8427 7.43813 10.5612C7.15683 10.2797 6.99887 9.89796 6.999 9.5C6.99913 9.10204 7.15735 8.72044 7.43884 8.43913C7.72033 8.15783 8.10204 7.99987 8.5 8ZM12 17C8.893 17 6.437 14.838 6.334 14.746L7.666 13.255C7.684 13.271 9.669 15.001 12 15.001C14.331 15.001 16.316 13.271 16.336 13.253L17.666 14.746C17.563 14.838 15.107 17 12 17Z" fill="#0077B5" fill-opacity="0.75"/>
</g>
<defs>
<clipPath id="clip0_2266_760">
<rect width="24" height="24" fill="white"/>
</clipPath>
</defs>
</svg>
