<svg width="21" height="25" viewBox="0 0 21 25" fill="none" xmlns="http://www.w3.org/2000/svg">
<path d="M16.52 0.444336H3.6C2.64603 0.446975 1.73189 0.827107 1.05733 1.50167C0.382771 2.17623 0.00263893 3.09037 0 4.04434V20.8443C0 22.8343 1.62 24.4443 3.6 24.4443H12.39C13.324 24.4443 14.18 24.1113 14.89 23.4243L19.05 19.3143C19.7289 18.6386 20.1134 17.7222 20.12 16.7643V4.04434C20.12 2.06434 18.5 0.444336 16.52 0.444336ZM8.846 9.58634C8.63364 9.40038 8.46333 9.17132 8.34643 8.9144C8.22952 8.65748 8.16869 8.3786 8.168 8.09634C8.168 7.5659 8.37871 7.0572 8.75379 6.68212C9.12886 6.30705 9.63756 6.09634 10.168 6.09634C10.6984 6.09634 11.2071 6.30705 11.5822 6.68212C11.9573 7.0572 12.168 7.5659 12.168 8.09634C12.168 8.69234 11.903 9.22034 11.491 9.58634C12.1191 9.80765 12.6821 10.1822 13.1289 10.676C13.5758 11.1698 13.8924 11.7673 14.05 12.4143C14.16 12.8683 13.783 13.2983 13.316 13.2983H7.02C6.552 13.2983 6.176 12.8683 6.286 12.4143C6.44363 11.7673 6.76021 11.1698 7.20705 10.676C7.65389 10.1822 8.21688 9.80765 8.845 9.58634H8.846ZM13.372 18.2843H6.748C6.48278 18.2843 6.22843 18.179 6.04089 17.9914C5.85336 17.8039 5.748 17.5496 5.748 17.2843C5.748 17.0191 5.85336 16.7648 6.04089 16.5772C6.22843 16.3897 6.48278 16.2843 6.748 16.2843H13.372C13.6372 16.2843 13.8916 16.3897 14.0791 16.5772C14.2666 16.7648 14.372 17.0191 14.372 17.2843C14.372 17.5496 14.2666 17.8039 14.0791 17.9914C13.8916 18.179 13.6372 18.2843 13.372 18.2843Z" fill="#0077B5" fill-opacity="0.75"/>
</svg>
