<svg width="5" height="16" viewBox="0 0 5 16" fill="none" xmlns="http://www.w3.org/2000/svg">
<path id="Vector" d="M2.99512 6C1.89512 6 0.995117 6.9 0.995117 8C0.995117 9.1 1.89512 10 2.99512 10C4.09512 10 4.99512 9.1 4.99512 8C4.99512 6.9 4.09512 6 2.99512 6ZM2.99512 0C1.89512 0 0.995117 0.9 0.995117 2C0.995117 3.1 1.89512 4 2.99512 4C4.09512 4 4.99512 3.1 4.99512 2C4.99512 0.9 4.09512 0 2.99512 0ZM2.99512 12C1.89512 12 0.995117 12.9 0.995117 14C0.995117 15.1 1.89512 16 2.99512 16C4.09512 16 4.99512 15.1 4.99512 14C4.99512 12.9 4.09512 12 2.99512 12Z" fill="#00A0DC"/>
</svg>
