<svg width="32" height="32" viewBox="0 0 32 32" fill="none" xmlns="http://www.w3.org/2000/svg">
<g id="Group 12563">
<circle id="Ellipse 216" cx="16" cy="16" r="16" fill="#E85050" fill-opacity="0.15"/>
<g id="Group">
<path id="Vector" d="M16 23.88L15.62 23.6133C15.3067 23.4 8 18.28 8 13.6667C8 11.0933 9.94667 9 12.3333 9C13.8733 9 15.2333 9.87333 16 11.18C16.7667 9.87333 18.1267 9 19.6667 9C22.0533 9 24 11.0933 24 13.6667C24 18.28 16.6933 23.4 16.38 23.6133L16 23.88ZM12.3333 10.3333C10.7067 10.3333 9.33333 11.86 9.33333 13.6667C9.33333 16.7267 13.8333 20.66 16 22.2467C18.1667 20.66 22.6667 16.72 22.6667 13.6667C22.6667 11.86 21.2933 10.3333 19.6667 10.3333C18.04 10.3333 16.6667 11.86 16.6667 13.6667V13.94L15.6067 15L18.2733 17.6667L15.8 20.14L14.86 19.2L16.3867 17.6733L13.72 15.0067L15.32 13.4067C15.1933 11.72 13.8733 10.34 12.3267 10.34L12.3333 10.3333Z" fill="#E85050" fill-opacity="0.8"/>
</g>
</g>
</svg>
