<svg width="32" height="32" viewBox="0 0 32 32" fill="none" xmlns="http://www.w3.org/2000/svg">
<circle cx="16" cy="16" r="16" fill="#00A0DC" fill-opacity="0.15"/>
<path d="M16.6547 8.66882C16.6547 8.49172 16.7251 8.32188 16.8503 8.19665C16.9755 8.07142 17.1454 8.00107 17.3225 8.00107C19.0929 8.00301 20.7902 8.70716 22.042 9.95902C23.2939 11.2109 23.9981 12.9082 24 14.6786C24 14.8557 23.9296 15.0256 23.8044 15.1508C23.6792 15.276 23.5093 15.3464 23.3322 15.3464C23.1551 15.3464 22.9853 15.276 22.8601 15.1508C22.7348 15.0256 22.6645 14.8557 22.6645 14.6786C22.6629 13.2623 22.0996 11.9045 21.0981 10.903C20.0966 9.9015 18.7388 9.33816 17.3225 9.33657C17.1454 9.33657 16.9755 9.26622 16.8503 9.14099C16.7251 9.01577 16.6547 8.84592 16.6547 8.66882ZM17.3225 12.0076C18.0309 12.0076 18.7102 12.289 19.2112 12.7899C19.7121 13.2908 19.9935 13.9702 19.9935 14.6786C19.9935 14.8557 20.0638 15.0256 20.1891 15.1508C20.3143 15.276 20.4841 15.3464 20.6612 15.3464C20.8383 15.3464 21.0082 15.276 21.1334 15.1508C21.2586 15.0256 21.329 14.8557 21.329 14.6786C21.3279 13.6163 20.9055 12.5979 20.1543 11.8467C19.4032 11.0956 18.3847 10.6731 17.3225 10.6721C17.1454 10.6721 16.9755 10.7424 16.8503 10.8677C16.7251 10.9929 16.6547 11.1627 16.6547 11.3398C16.6547 11.5169 16.7251 11.6868 16.8503 11.812C16.9755 11.9372 17.1454 12.0076 17.3225 12.0076ZM23.3943 19.1786C23.7813 19.5666 23.9986 20.0923 23.9986 20.6403C23.9986 21.1883 23.7813 21.714 23.3943 22.102L22.7867 22.8025C17.3178 28.0384 4.00945 14.7334 9.16451 9.2471L9.93243 8.57934C10.3209 8.20318 10.8419 7.99509 11.3826 8.00009C11.9233 8.00509 12.4403 8.22277 12.8218 8.60605C12.8425 8.62675 14.0798 10.234 14.0798 10.234C14.447 10.6197 14.6514 11.1321 14.6505 11.6646C14.6496 12.1971 14.4436 12.7088 14.0752 13.0934L13.3019 14.0656C13.7298 15.1054 14.359 16.0503 15.1533 16.8462C15.9475 17.6421 16.8912 18.2731 17.9301 18.7032L18.9084 17.9252C19.2929 17.5571 19.8045 17.3513 20.3369 17.3505C20.8693 17.3498 21.3814 17.5542 21.767 17.9212C21.767 17.9212 23.3736 19.1579 23.3943 19.1786ZM22.4755 20.1495C22.4755 20.1495 20.8776 18.9202 20.8569 18.8995C20.7193 18.7631 20.5334 18.6865 20.3397 18.6865C20.146 18.6865 19.9601 18.7631 19.8225 18.8995C19.8045 18.9182 18.4576 19.9913 18.4576 19.9913C18.3669 20.0635 18.2589 20.1109 18.1442 20.1287C18.0296 20.1465 17.9123 20.1341 17.8039 20.0928C16.458 19.5917 15.2356 18.8072 14.2193 17.7924C13.203 16.7776 12.4167 15.5563 11.9137 14.2112C11.869 14.1013 11.8545 13.9815 11.8715 13.8642C11.8885 13.7468 11.9365 13.6361 12.0105 13.5434C12.0105 13.5434 13.0836 12.1959 13.1016 12.1785C13.238 12.041 13.3145 11.8551 13.3145 11.6614C13.3145 11.4676 13.238 11.2818 13.1016 11.1442C13.0809 11.1242 11.8516 9.52488 11.8516 9.52488C11.7119 9.39968 11.5297 9.33263 11.3422 9.33747C11.1547 9.34232 10.9762 9.41868 10.8432 9.55092L10.0753 10.2187C6.30786 14.7487 17.8406 25.6418 21.8104 21.8903L22.4188 21.1892C22.5613 21.0572 22.6469 20.8749 22.6575 20.6808C22.6681 20.4868 22.6028 20.2963 22.4755 20.1495Z" fill="#00A0DC" fill-opacity="0.7"/>
</svg>
