<svg width="32" height="32" viewBox="0 0 32 32" fill="none" xmlns="http://www.w3.org/2000/svg">
<circle cx="16" cy="16" r="16" fill="#00A0DC" fill-opacity="0.15"/>
<path d="M16.6667 14.6667C15.38 14.6667 14.3333 15.7133 14.3333 17C14.3333 18.2867 15.38 19.3333 16.6667 19.3333C17.9533 19.3333 19 18.2867 19 17C19 15.7133 17.9533 14.6667 16.6667 14.6667ZM16.6667 18C16.1153 18 15.6667 17.5513 15.6667 17C15.6667 16.4487 16.1153 16 16.6667 16C17.218 16 17.6667 16.4487 17.6667 17C17.6667 17.5513 17.218 18 16.6667 18ZM21.966 11.6907L19.6433 9.36668C19.2109 8.93211 18.6966 8.58757 18.1301 8.35299C17.5637 8.11841 16.9564 7.99844 16.3433 8.00002H13.3333C11.4953 8.00002 10 9.49535 10 11.3333V20.6667C10 22.5047 11.4953 24 13.3333 24H20C21.838 24 23.3333 22.5047 23.3333 20.6667V14.99C23.335 14.3769 23.215 13.7695 22.9802 13.203C22.7455 12.6366 22.4008 12.123 21.966 11.6907ZM21.0233 12.634C21.2353 12.8453 21.4147 13.0807 21.56 13.334H18.666C18.298 13.334 17.9993 13.0347 17.9993 12.6673V9.77268C18.2527 9.91801 18.488 10.0973 18.7 10.3093L21.0227 12.6333L21.0233 12.634ZM14.7813 22.6673C15.0567 21.8913 15.7973 21.334 16.6667 21.334C17.536 21.334 18.2767 21.8913 18.552 22.6673H14.7813ZM22 20.6673C22 21.77 21.1027 22.6673 20 22.6673H19.9327C19.6227 21.148 18.276 20.0007 16.6667 20.0007C15.0573 20.0007 13.71 21.148 13.4007 22.6673H13.3333C12.2307 22.6673 11.3333 21.77 11.3333 20.6673V11.3333C11.3333 10.2307 12.2307 9.33335 13.3333 9.33335H16.3433C16.452 9.33335 16.56 9.33868 16.6667 9.34868V12.6667C16.6667 13.7693 17.564 14.6667 18.6667 14.6667H21.9847C21.9947 14.7733 22 14.8813 22 14.99V20.6673Z" fill="#00A0DC" fill-opacity="0.7"/>
</svg>
