<svg width="50" height="50" viewBox="0 0 50 50" fill="none" xmlns="http://www.w3.org/2000/svg">
<g id="Group 12526">
<circle id="Ellipse 214" cx="25" cy="25" r="24.1" stroke="#E85050" stroke-width="1.8"/>
<g id="Group">
<path id="Vector" d="M35.7627 31.2521C35.686 31.1753 35.5949 31.1144 35.4946 31.0728C35.3943 31.0312 35.2868 31.0098 35.1782 31.0098C35.0696 31.0098 34.9621 31.0312 34.8618 31.0728C34.7615 31.1144 34.6704 31.1753 34.5937 31.2521L33.5069 32.3389L32.4202 31.2521C32.2631 31.1086 32.0567 31.0312 31.8439 31.036C31.6312 31.0408 31.4285 31.1275 31.2781 31.2781C31.1277 31.4286 31.0411 31.6314 31.0365 31.8441C31.0318 32.0569 31.1094 32.2632 31.2531 32.4202L32.3398 33.5069L31.2531 34.5937C31.1069 34.7503 31.0272 34.9576 31.0309 35.1718C31.0346 35.3861 31.1213 35.5905 31.2728 35.742C31.4243 35.8935 31.6287 35.9802 31.843 35.9839C32.0572 35.9876 32.2645 35.9079 32.4211 35.7617L33.5079 34.675L34.5946 35.7617C34.7513 35.9079 34.9585 35.9876 35.1728 35.9839C35.387 35.9802 35.5914 35.8935 35.7429 35.742C35.8945 35.5905 35.9812 35.3861 35.9849 35.1718C35.9886 34.9576 35.9089 34.7503 35.7627 34.5937L34.6759 33.5069L35.7627 32.4202C35.9176 32.2653 36.0046 32.0552 36.0046 31.8362C36.0046 31.6171 35.9176 31.407 35.7627 31.2521Z" fill="#E85050"/>
<path id="Vector_2" d="M37.4462 28.3524C38.167 26.1048 38.3104 23.7119 37.863 21.3944C37.4157 19.0768 36.392 16.9092 34.8865 15.0914C33.3809 13.2735 31.4419 11.864 29.2482 10.9928C27.0546 10.1215 24.6769 9.81664 22.3343 10.1062C19.9918 10.3957 17.7599 11.2704 15.8444 12.6495C13.9289 14.0286 12.3914 15.8678 11.3738 17.9975C10.3561 20.1272 9.89107 22.4789 10.0215 24.8356C10.1519 27.1924 10.8735 29.4783 12.1199 31.4828L10.0537 36.9974C9.99964 37.1412 9.98679 37.2973 10.0165 37.4481C10.0463 37.5988 10.1175 37.7383 10.2221 37.8509C10.3267 37.9635 10.4606 38.0447 10.6088 38.0853C10.757 38.126 10.9136 38.1246 11.061 38.0813L17.137 36.2957C18.8262 37.2498 20.6944 37.8446 22.6243 38.043C24.5543 38.2413 26.5044 38.0388 28.3524 37.4481C28.9136 38.1837 29.6256 38.7907 30.4407 39.2285C31.2558 39.6663 32.1551 39.9247 33.0782 39.9864C34.0014 40.0481 34.927 39.9117 35.7931 39.5863C36.6593 39.261 37.4458 38.7541 38.0999 38.0998C38.7541 37.4455 39.2607 36.6589 39.586 35.7928C39.9112 34.9266 40.0474 34.0009 39.9855 33.0777C39.9235 32.1546 39.6649 31.2554 39.227 30.4404C38.789 29.6254 38.1819 28.9135 37.4462 28.3524ZM27.499 35.9706C25.8611 36.446 24.1427 36.5778 22.4514 36.3577C20.7602 36.1377 19.1327 35.5706 17.6709 34.692C17.5726 34.6327 17.463 34.5946 17.3491 34.5799C17.2352 34.5653 17.1195 34.5745 17.0094 34.607L12.1832 36.0273L13.8157 31.6741C13.8618 31.5515 13.8781 31.4197 13.8631 31.2895C13.8482 31.1594 13.8024 31.0347 13.7297 30.9257C12.5736 29.1909 11.8732 27.1927 11.6934 25.1157C11.5135 23.0387 11.8598 20.9499 12.7005 19.0421C13.5412 17.1344 14.849 15.4692 16.5032 14.2004C18.1574 12.9316 20.1047 12.1001 22.1651 11.7827C24.2256 11.4653 26.3328 11.6722 28.2922 12.3844C30.2515 13.0965 31.9999 14.2909 33.3757 15.8572C34.7515 17.4235 35.7105 19.3112 36.164 21.3461C36.6175 23.3809 36.551 25.4972 35.9706 27.4995C34.7859 27.0122 33.4836 26.8864 32.2276 27.1378C30.9716 27.3892 29.818 28.0067 28.9123 28.9124C28.0065 29.8181 27.389 30.9716 27.1375 32.2276C26.886 33.4836 27.0118 34.786 27.499 35.9706ZM33.5079 38.3511C32.55 38.3511 31.6136 38.067 30.8171 37.5349C30.0207 37.0027 29.3999 36.2463 29.0333 35.3613C28.6668 34.4763 28.5709 33.5025 28.7577 32.5631C28.9446 31.6236 29.4059 30.7606 30.0832 30.0833C30.7605 29.4059 31.6235 28.9447 32.563 28.7578C33.5025 28.5709 34.4763 28.6668 35.3613 29.0334C36.2462 29.4 37.0026 30.0207 37.5348 30.8172C38.067 31.6136 38.351 32.55 38.351 33.5079C38.3497 34.792 37.839 36.0231 36.931 36.931C36.023 37.839 34.7919 38.3497 33.5079 38.3511Z" fill="#E85050"/>
<path id="Vector_3" d="M32.4443 24.0579C32.4444 23.9493 32.4231 23.8418 32.3815 23.7414C32.34 23.6411 32.2791 23.5499 32.2023 23.4731C32.1255 23.3963 32.0343 23.3354 31.934 23.2939C31.8336 23.2523 31.7261 23.231 31.6175 23.2311H16.4973C16.278 23.2311 16.0677 23.3182 15.9126 23.4732C15.7575 23.6283 15.6704 23.8386 15.6704 24.0579C15.6704 24.2772 15.7575 24.4876 15.9126 24.6426C16.0677 24.7977 16.278 24.8848 16.4973 24.8848H31.6175C31.7261 24.8849 31.8336 24.8635 31.934 24.822C32.0343 24.7805 32.1255 24.7196 32.2023 24.6428C32.2791 24.566 32.34 24.4748 32.3815 24.3745C32.4231 24.2741 32.4444 24.1665 32.4443 24.0579ZM18.3873 20.6323H29.7274C29.9467 20.6323 30.1571 20.5452 30.3121 20.3901C30.4672 20.235 30.5543 20.0247 30.5543 19.8054C30.5543 19.5861 30.4672 19.3758 30.3121 19.2207C30.1571 19.0656 29.9467 18.9785 29.7274 18.9785H18.3873C18.168 18.9785 17.9577 19.0656 17.8026 19.2207C17.6475 19.3758 17.5604 19.5861 17.5604 19.8054C17.5604 20.0247 17.6475 20.235 17.8026 20.3901C17.9577 20.5452 18.168 20.6323 18.3873 20.6323ZM26.4199 27.4836H18.3873C18.168 27.4836 17.9577 27.5707 17.8026 27.7258C17.6475 27.8809 17.5604 28.0912 17.5604 28.3105C17.5604 28.5298 17.6475 28.7401 17.8026 28.8952C17.9577 29.0503 18.168 29.1374 18.3873 29.1374H26.4199C26.6392 29.1374 26.8495 29.0503 27.0046 28.8952C27.1597 28.7401 27.2468 28.5298 27.2468 28.3105C27.2468 28.0912 27.1597 27.8809 27.0046 27.7258C26.8495 27.5707 26.6392 27.4836 26.4199 27.4836Z" fill="#E85050"/>
</g>
</g>
</svg>
