<svg width="24" height="24" viewBox="0 0 24 24" fill="none" xmlns="http://www.w3.org/2000/svg">
<g clip-path="url(#clip0_2266_741)">
<path d="M21.5899 7.64047L19.1199 10.1105C18.5499 10.2305 18.0099 10.4305 17.4999 10.7005C16.6599 10.2505 15.7199 10.0005 14.7499 10.0005C11.5799 10.0005 8.99992 12.5705 8.99992 15.7405C8.99992 16.9205 9.39992 18.1005 10.0099 19.2205L8.01992 21.2105L2.78992 15.9805L16.3799 2.41047C16.4724 2.31777 16.5823 2.24422 16.7033 2.19404C16.8243 2.14386 16.954 2.11803 17.0849 2.11803C17.2159 2.11803 17.3456 2.14386 17.4665 2.19404C17.5875 2.24422 17.6974 2.31777 17.7899 2.41047L21.5999 6.22047C21.9899 6.61047 21.9799 7.25047 21.5899 7.64047ZM23.1629 0.843469C22.0859 -0.247531 20.1979 -0.240531 19.1309 0.839469L18.3699 1.59647C18.4129 1.63347 18.4599 1.66347 18.4999 1.70347L22.3039 5.51747C22.3409 5.55447 22.3669 5.59647 22.3999 5.63547L23.1599 4.87147C23.4262 4.60808 23.6376 4.29454 23.782 3.94896C23.9264 3.60338 24.0009 3.23262 24.0012 2.85809C24.0015 2.48357 23.9275 2.11269 23.7836 1.7669C23.6398 1.42111 23.4288 1.10726 23.1629 0.843469ZM2.34892 16.9525L0.0489225 22.9835C-0.00184336 23.1187 -0.0125642 23.2658 0.0180424 23.407C0.0486491 23.5482 0.119287 23.6776 0.221507 23.7797C0.323727 23.8818 0.4532 23.9523 0.594439 23.9828C0.735677 24.0132 0.882701 24.0024 1.01792 23.9515L7.04792 21.6525L2.34892 16.9525ZM7.72692 8.48147C7.82543 8.48171 7.92301 8.46239 8.01399 8.42462C8.10497 8.38686 8.18754 8.3314 8.25692 8.26147L13.4499 3.06847C13.5719 2.94874 13.7317 2.87495 13.9019 2.85963C14.0722 2.84432 14.2425 2.88843 14.3839 2.98447L15.4549 1.91447C14.5919 1.16747 13.2029 1.19247 12.3889 2.00747L7.19592 7.20147C7.09111 7.30642 7.01976 7.44009 6.99091 7.58558C6.96206 7.73107 6.97699 7.88185 7.03383 8.01885C7.09066 8.15586 7.18685 8.27293 7.31021 8.35528C7.43358 8.43762 7.5786 8.48154 7.72692 8.48147Z" fill="#0077B5" fill-opacity="0.75"/>
<path d="M17.5 24C17.3389 24.0001 17.1821 23.9482 17.053 23.852C16.433 23.391 11 19.25 11 15.738C11.0029 14.7454 11.3993 13.7945 12.1023 13.0938C12.8053 12.3931 13.7574 11.9997 14.75 12C15.813 12 16.804 12.446 17.5 13.194C17.8518 12.8168 18.2776 12.5162 18.7507 12.3107C19.2238 12.1053 19.7342 11.9995 20.25 12C21.2426 11.9997 22.1947 12.3931 22.8977 13.0938C23.6007 13.7945 23.9971 14.7454 24 15.738C24 19.25 18.567 23.391 17.947 23.852C17.8179 23.9482 17.6611 24.0001 17.5 24Z" fill="#0077B5" fill-opacity="0.75"/>
</g>
<defs>
<clipPath id="clip0_2266_741">
<rect width="24" height="24" fill="white"/>
</clipPath>
</defs>
</svg>
