<svg width="24" height="24" viewBox="0 0 24 24" fill="none" xmlns="http://www.w3.org/2000/svg">
<g clip-path="url(#clip0_2266_778)">
<path d="M21.0004 12C21.0002 11.4483 20.95 10.8977 20.8504 10.355L23.8934 8.6L20.8934 3.4L17.8494 5.159C17.009 4.43993 16.0432 3.88194 15.0004 3.513V0H9.00042V3.513C7.95768 3.88194 6.99187 4.43993 6.15142 5.159L3.10742 3.4L0.107422 8.6L3.15042 10.355C2.95053 11.4426 2.95053 12.5574 3.15042 13.645L0.107422 15.4L3.10742 20.6L6.15142 18.842C6.99195 19.5607 7.95775 20.1184 9.00042 20.487V24H15.0004V20.487C16.0432 20.1181 17.009 19.5601 17.8494 18.841L20.8934 20.6L23.8934 15.4L20.8504 13.645C20.95 13.1023 21.0002 12.5517 21.0004 12ZM15.0004 12C15.0004 12.5933 14.8245 13.1734 14.4948 13.6667C14.1652 14.1601 13.6967 14.5446 13.1485 14.7716C12.6003 14.9987 11.9971 15.0581 11.4152 14.9424C10.8332 14.8266 10.2987 14.5409 9.8791 14.1213C9.45954 13.7018 9.17382 13.1672 9.05807 12.5853C8.94231 12.0033 9.00172 11.4001 9.22878 10.8519C9.45585 10.3038 9.84036 9.83524 10.3337 9.50559C10.8271 9.17595 11.4071 9 12.0004 9C12.7961 9 13.5591 9.31607 14.1217 9.87868C14.6844 10.4413 15.0004 11.2044 15.0004 12Z" fill="#0077B5" fill-opacity="0.75"/>
</g>
<defs>
<clipPath id="clip0_2266_778">
<rect width="24" height="24" fill="white"/>
</clipPath>
</defs>
</svg>
