<svg width="24" height="24" viewBox="0 0 24 24" fill="none" xmlns="http://www.w3.org/2000/svg">
<path d="M22.3356 5.90521C22.1374 5.56967 21.7047 5.45842 21.3692 5.65645C21.0337 5.85462 20.9223 6.28728 21.1204 6.62286C23.5744 10.7781 22.9018 16.067 19.4848 19.4844C17.4421 21.5268 14.7314 22.5888 11.9932 22.5886C9.22294 22.5885 6.53345 21.5006 4.51861 19.4874C4.45309 19.4208 4.37497 19.368 4.28881 19.332C4.20266 19.296 4.11019 19.2775 4.01681 19.2776C3.62711 19.2776 3.31116 19.5935 3.31116 19.9832V21.8788C3.31116 22.2684 3.62707 22.5844 4.01681 22.5844C4.40656 22.5844 4.72247 22.2685 4.72247 21.8788V21.5362C6.82386 23.1436 9.37335 24.0001 11.9929 24C15.0957 23.9999 18.1682 22.7965 20.4827 20.4824C24.3551 16.6094 25.1171 10.6151 22.3356 5.90521ZM4.51555 4.51535C8.63465 0.39686 15.326 0.359918 19.4817 4.51234C19.9207 4.95658 20.6891 4.65027 20.6891 4.01652V2.12102C20.6891 1.73132 20.3732 1.41537 19.9835 1.41537C19.5937 1.41537 19.2778 1.73128 19.2778 2.12102V2.46361C14.4932 -1.19638 7.75935 -0.723671 3.51761 3.51741C-0.354814 7.39035 -1.1168 13.3847 1.66469 18.0946C1.79636 18.3175 2.03152 18.4414 2.27293 18.4414C2.81223 18.4414 3.15958 17.8505 2.87991 17.3769C0.425948 13.2217 1.09852 7.93276 4.51555 4.51535Z" fill="#0077B5" fill-opacity="0.75"/>
<path d="M11.9997 11.9995C13.1689 11.9995 14.1166 11.0517 14.1166 9.88254C14.1166 8.7134 13.1689 7.76562 11.9997 7.76562C10.8306 7.76562 9.88281 8.7134 9.88281 9.88254C9.88281 11.0517 10.8306 11.9995 11.9997 11.9995Z" fill="#0077B5" fill-opacity="0.75"/>
<path d="M12.0004 2.82715C6.94225 2.82715 2.82715 6.94225 2.82715 12.0004C2.82715 17.0585 6.94225 21.1736 12.0004 21.1736C17.0585 21.1736 21.1736 17.0585 21.1736 12.0004C21.1736 6.94225 17.0585 2.82715 12.0004 2.82715ZM17.2862 15.4657C16.9905 15.7189 16.545 15.6848 16.2913 15.3885C14.0345 12.7518 9.96309 12.7554 7.70942 15.3885C7.4561 15.6846 7.01068 15.7192 6.71449 15.4657C6.41839 15.2123 6.38385 14.7669 6.63726 14.4708C7.43355 13.5404 8.44444 12.8453 9.56558 12.4332C8.89268 11.7903 8.4722 10.8854 8.4722 9.88342C8.4722 7.93798 10.0549 6.35524 12.0004 6.35524C13.9459 6.35524 15.5286 7.93794 15.5286 9.88342C15.5286 10.8853 15.1081 11.7903 14.4352 12.4332C15.5563 12.8453 16.5672 13.5404 17.3635 14.4708C17.6169 14.7669 17.5823 15.2124 17.2862 15.4657Z" fill="#0077B5" fill-opacity="0.75"/>
</svg>
