<svg width="32" height="32" viewBox="0 0 32 32" fill="none" xmlns="http://www.w3.org/2000/svg">
<g id="Group 12565">
<circle id="Ellipse 216" cx="16" cy="16" r="16" fill="#00A0DC" fill-opacity="0.15"/>
<g id="Group">
<path id="Vector" d="M19.1421 17.2023C19.2653 17.3276 19.3339 17.4966 19.3328 17.6723C19.3316 17.848 19.2609 18.0161 19.1361 18.1397C19.0868 18.1884 17.9095 19.3331 16.0002 19.3331C14.0909 19.3331 12.9136 18.1891 12.8643 18.1397C12.8021 18.0781 12.7526 18.0048 12.7187 17.924C12.6849 17.8433 12.6672 17.7567 12.6668 17.6691C12.6664 17.5815 12.6833 17.4947 12.7164 17.4137C12.7495 17.3326 12.7983 17.2589 12.8599 17.1967C12.9216 17.1345 12.9949 17.085 13.0756 17.0511C13.1563 17.0172 13.243 16.9996 13.3305 16.9992C13.4181 16.9988 13.5049 17.0156 13.5859 17.0488C13.667 17.0819 13.7407 17.1307 13.8029 17.1923C13.8336 17.2223 14.6562 17.999 16.0002 17.999C17.3442 17.999 18.1668 17.2217 18.2015 17.189C18.3282 17.0664 18.4983 16.9989 18.6746 17.0014C18.8508 17.0039 19.019 17.0762 19.1421 17.2023ZM13.6669 15.3329C13.7983 15.3329 13.9284 15.307 14.0497 15.2566C14.171 15.2063 14.2813 15.1326 14.3741 15.0397C14.467 14.9468 14.5407 14.8364 14.5909 14.7151C14.6411 14.5937 14.6669 14.4636 14.6669 14.3322C14.6669 14.2008 14.6409 14.0708 14.5906 13.9494C14.5403 13.828 14.4666 13.7178 14.3737 13.6249C14.2808 13.5321 14.1705 13.4584 14.0491 13.4082C13.9277 13.3579 13.7976 13.3321 13.6663 13.3322C13.401 13.3322 13.1466 13.4377 12.959 13.6254C12.7715 13.8131 12.6662 14.0675 12.6663 14.3329C12.6664 14.5982 12.7718 14.8526 12.9595 15.0401C13.1472 15.2277 13.4016 15.333 13.6669 15.3329ZM18.3335 13.3328C18.0682 13.3329 17.8138 13.4384 17.6262 13.6261C17.4387 13.8137 17.3334 14.0682 17.3335 14.3335C17.3336 14.5989 17.4391 14.8533 17.6267 15.0408C17.8144 15.2284 18.0688 15.3337 18.3341 15.3336C18.5994 15.3335 18.8538 15.228 19.0414 15.0403C19.2289 14.8527 19.3342 14.5982 19.3341 14.3329C19.334 14.0675 19.2286 13.8131 19.0409 13.6256C18.8532 13.438 18.5988 13.3327 18.3335 13.3328ZM24 16.2263V20.6665C24 22.5046 22.5047 24 20.6667 24H16.7222C12.055 24 8.31439 20.8052 8.01973 16.569C7.93943 15.4263 8.10488 14.2797 8.50495 13.2064C8.90502 12.1331 9.5304 11.158 10.339 10.3467C11.1496 9.53761 12.1238 8.9113 13.1964 8.50976C14.2689 8.10821 15.4149 7.94074 16.5575 8.01856C20.7314 8.30191 24 11.9068 24 16.2263ZM22.6667 16.2263C22.6667 12.6055 19.9434 9.58464 16.4675 9.34863C15.5148 9.2823 14.5589 9.42117 13.6644 9.75586C12.7699 10.0905 11.9576 10.6133 11.2823 11.2887C10.6082 11.9652 10.087 12.7783 9.75374 13.6733C9.42047 14.5683 9.28292 15.5243 9.35036 16.477C9.59835 20.0638 12.6989 22.6673 16.7222 22.6673H20.6667C21.7694 22.6673 22.6667 21.7699 22.6667 20.6672V16.2263Z" fill="#00A0DC" fill-opacity="0.7"/>
</g>
</g>
</svg>
