<svg width="50" height="50" viewBox="0 0 50 50" fill="none" xmlns="http://www.w3.org/2000/svg">
<g id="Group 12518">
<circle id="Ellipse 213" cx="25" cy="25" r="25" fill="#0077B5" fill-opacity="0.15"/>
<g id="Group">
<path id="Vector" d="M14.3443 32.6193C13.3752 32.6193 12.4285 32.372 11.5705 31.8902C11.129 31.6629 10.958 31.0941 11.2218 30.6662C12.098 29.266 12.4144 27.5544 12.0132 25.9448C11.5974 24.2761 10.9957 22.8706 11 21.1041C11.015 14.9063 16.1736 9.88188 22.365 10.0021C28.3452 10.1226 33.2737 15.1496 33.2737 21.1314C33.2738 28.9436 25.0865 34.4285 17.8585 31.4117C16.8623 32.1937 15.61 32.6193 14.3443 32.6193ZM13.1668 30.7119C14.5283 31.1348 16.0597 30.797 17.1096 29.7819C17.2359 29.6598 17.3966 29.5792 17.57 29.5509C17.7435 29.5227 17.9214 29.5482 18.0799 29.6241C24.268 32.5827 31.551 27.9453 31.5509 21.1314C31.5509 16.0467 27.4145 11.8269 22.3303 11.7245C17.0908 11.6204 12.7354 15.8639 12.7228 21.1082C12.7187 22.7862 13.3734 24.1271 13.7311 25.7166C14.108 27.3916 13.9095 29.1629 13.1668 30.7119Z" fill="#0077B5"/>
<path id="Vector_2" d="M36.6554 39.0009C35.3898 39.0009 34.1375 38.5752 33.1413 37.7933C29.2974 39.3976 24.725 38.667 21.5733 35.9452C21.2132 35.6342 21.1735 35.0903 21.4844 34.7302C21.7953 34.3702 22.3392 34.3303 22.6993 34.6413C25.4946 37.0553 29.5884 37.5984 32.9199 36.0057C33.0784 35.9298 33.2563 35.9043 33.4298 35.9325C33.6032 35.9608 33.7639 36.0414 33.8902 36.1635C34.9401 37.1785 36.4715 37.5165 37.833 37.0935C36.9569 35.266 36.8355 33.1723 37.5145 31.234C37.5206 31.2166 37.5272 31.1994 37.5344 31.1823C38.0303 30.0134 38.2802 28.771 38.2771 27.4898C38.2716 25.231 37.5202 23.1414 36.1039 21.447C35.7989 21.0819 35.8475 20.5388 36.2125 20.2337C36.5774 19.9285 37.1207 19.9772 37.4258 20.3422C39.0794 22.3206 39.9935 24.8575 39.9998 27.4856C40.0035 28.991 39.7114 30.4519 39.1318 31.8284C38.5229 33.5908 38.8029 35.4779 39.778 37.0476C40.0419 37.4756 39.8708 38.0444 39.4292 38.2719C38.5713 38.7535 37.6244 39.0008 36.6554 39.0009Z" fill="#0077B5"/>
<path id="Vector_3" d="M22.1364 22.5361C22.8892 22.5361 23.4994 21.9262 23.4994 21.1738C23.4994 20.4214 22.8892 19.8115 22.1364 19.8115C21.3837 19.8115 20.7734 20.4214 20.7734 21.1738C20.7734 21.9262 21.3837 22.5361 22.1364 22.5361Z" fill="#0077B5"/>
<path id="Vector_4" d="M17.1154 22.5361C17.8682 22.5361 18.4784 21.9262 18.4784 21.1738C18.4784 20.4214 17.8682 19.8115 17.1154 19.8115C16.3627 19.8115 15.7524 20.4214 15.7524 21.1738C15.7524 21.9262 16.3627 22.5361 17.1154 22.5361Z" fill="#0077B5"/>
<path id="Vector_5" d="M27.1584 22.5361C27.9112 22.5361 28.5214 21.9262 28.5214 21.1738C28.5214 20.4214 27.9112 19.8115 27.1584 19.8115C26.4056 19.8115 25.7954 20.4214 25.7954 21.1738C25.7954 21.9262 26.4056 22.5361 27.1584 22.5361Z" fill="#0077B5"/>
</g>
</g>
</svg>
