<svg width="8" height="7" viewBox="0 0 8 7" fill="none" xmlns="http://www.w3.org/2000/svg">
<path d="M0.746399 3.19687C0.605067 3.19727 0.466735 3.23767 0.347407 3.3134C0.228078 3.38914 0.132631 3.49711 0.0721066 3.62483C0.0115823 3.75255 -0.0115453 3.89479 0.00539942 4.0351C0.0223442 4.17542 0.0786688 4.30807 0.167857 4.4177L2.06914 6.74677C2.13693 6.83095 2.22383 6.89773 2.32261 6.94158C2.42139 6.98543 2.52921 7.00507 2.63712 6.99888C2.86789 6.98649 3.07624 6.86304 3.20908 6.66006L7.15852 0.299481C7.15918 0.298418 7.15985 0.297368 7.16054 0.296331C7.1976 0.239433 7.18558 0.126675 7.10909 0.0558398C7.08808 0.0363875 7.06331 0.0214428 7.0363 0.0119259C7.00929 0.00240899 6.98063 -0.00147852 6.95206 0.000502849C6.9235 0.00248422 6.89564 0.0102925 6.8702 0.0234468C6.84477 0.036601 6.8223 0.0548227 6.80417 0.0769897C6.80276 0.0787325 6.8013 0.0804491 6.7998 0.0821394L2.81672 4.58241C2.80157 4.59954 2.78316 4.61348 2.76257 4.62343C2.74198 4.63338 2.71962 4.63915 2.69678 4.64038C2.67395 4.64162 2.65109 4.6383 2.62955 4.63063C2.60801 4.62296 2.5882 4.61108 2.57129 4.59569L1.24938 3.39275C1.11209 3.26689 0.932647 3.19701 0.746399 3.19687Z" fill="white"/>
</svg>
