<svg width="21" height="21" viewBox="0 0 21 21" fill="none" xmlns="http://www.w3.org/2000/svg">
<path d="M10.5 20C8.62108 20 6.78435 19.4428 5.22209 18.399C3.65982 17.3551 2.44218 15.8714 1.72315 14.1355C1.00412 12.3996 0.815985 10.4895 1.18254 8.64664C1.5491 6.80382 2.45389 5.11109 3.78249 3.78249C5.11109 2.45389 6.80382 1.5491 8.64664 1.18254C10.4895 0.815985 12.3996 1.00412 14.1355 1.72315C15.8714 2.44218 17.3551 3.65982 18.399 5.22209C19.4428 6.78435 20 8.62108 20 10.5C19.9972 13.0187 18.9953 15.4334 17.2144 17.2144C15.4334 18.9953 13.0187 19.9972 10.5 20ZM10.5 1.63334C8.74634 1.63334 7.03206 2.15336 5.57395 3.12764C4.11583 4.10192 2.97937 5.48671 2.30827 7.10688C1.63718 8.72705 1.46159 10.5098 1.80371 12.2298C2.14583 13.9498 2.9903 15.5297 4.23032 16.7697C5.47035 18.0097 7.05024 18.8542 8.7702 19.1963C10.4902 19.5384 12.273 19.3628 13.8931 18.6917C15.5133 18.0206 16.8981 16.8842 17.8724 15.4261C18.8466 13.9679 19.3667 12.2537 19.3667 10.5C19.364 8.14924 18.429 5.89553 16.7667 4.23329C15.1045 2.57104 12.8508 1.63602 10.5 1.63334Z" fill="#00A0DC" fill-opacity="0.9"/>
<path d="M10.5 20.075H10.5001C13.0386 20.0721 15.4724 19.0624 17.2674 17.2674C19.0624 15.4724 20.0721 13.0386 20.075 10.5001V10.5C20.075 8.60625 19.5134 6.75502 18.4613 5.18042C17.4092 3.60582 15.9138 2.37857 14.1642 1.65386C12.4146 0.929149 10.4894 0.739532 8.63201 1.10899C6.77464 1.47844 5.06854 2.39037 3.72946 3.72946C2.39037 5.06854 1.47844 6.77464 1.10899 8.63201C0.739532 10.4894 0.929149 12.4146 1.65386 14.1642C2.37857 15.9138 3.60582 17.4092 5.18042 18.4613C6.75502 19.5134 8.60625 20.075 10.5 20.075ZM5.61561 3.19C7.06139 2.22397 8.76115 1.70834 10.5 1.70834C12.8308 1.71101 15.0655 2.63813 16.7137 4.28632C18.3619 5.93451 19.289 8.16919 19.2917 10.5001C19.2916 12.2389 18.776 13.9386 17.81 15.3844C16.844 16.8302 15.4709 17.957 13.8644 18.6224C12.258 19.2879 10.4902 19.462 8.78483 19.1227C7.07942 18.7835 5.51289 17.9462 4.28336 16.7166C3.05382 15.4871 2.2165 13.9206 1.87727 12.2152C1.53804 10.5098 1.71214 8.74204 2.37756 7.13558C3.04298 5.52911 4.16983 4.15604 5.61561 3.19Z" stroke="#00A0DC" stroke-opacity="0.9" stroke-width="0.15"/>
<path d="M9.86661 2.92507C9.78262 2.92835 9.70078 2.89813 9.63908 2.84106C9.57737 2.78399 9.54087 2.70474 9.53759 2.62076C9.53432 2.53677 9.56454 2.45493 9.62161 2.39322C9.67868 2.33152 9.75792 2.29502 9.84191 2.29174C10.0609 2.27533 10.2804 2.26698 10.4999 2.26672C10.5839 2.26672 10.6645 2.30009 10.7239 2.35947C10.7832 2.41886 10.8166 2.49941 10.8166 2.58339C10.8166 2.66738 10.7832 2.74792 10.7239 2.80731C10.6645 2.86669 10.5839 2.90006 10.4999 2.90006C10.2979 2.90006 10.093 2.90797 9.89163 2.92412L9.86661 2.92507ZM2.58328 10.8167C2.49929 10.8167 2.41875 10.7834 2.35936 10.724C2.29997 10.6646 2.26661 10.584 2.26661 10.5001C2.26374 8.65937 2.87889 6.87101 4.01349 5.42159C5.14808 3.97217 6.73642 2.94561 8.52394 2.50644C8.60554 2.48628 8.69179 2.49936 8.76374 2.54281C8.83569 2.58625 8.88743 2.65649 8.90759 2.73808C8.92774 2.81967 8.91466 2.90593 8.87122 2.97788C8.82778 3.04982 8.75753 3.10157 8.67594 3.12172C7.02605 3.52722 5.56001 4.47478 4.51272 5.8126C3.46543 7.15042 2.89751 8.80106 2.89994 10.5001C2.89994 10.584 2.86658 10.6646 2.8072 10.724C2.74781 10.7834 2.66726 10.8167 2.58328 10.8167ZM10.4999 7.96672C10.1868 7.96672 9.88067 7.87386 9.62029 7.69988C9.35991 7.5259 9.15697 7.27862 9.03713 6.9893C8.91729 6.69999 8.88594 6.38163 8.94703 6.0745C9.00813 5.76736 9.15892 5.48524 9.38036 5.2638C9.60179 5.04237 9.88391 4.89157 10.191 4.83048C10.4982 4.76939 10.8165 4.80074 11.1059 4.92058C11.3952 5.04042 11.6425 5.24336 11.8164 5.50374C11.9904 5.76411 12.0833 6.07024 12.0833 6.38339C12.0828 6.80316 11.9158 7.2056 11.619 7.50242C11.3221 7.79924 10.9197 7.96622 10.4999 7.96672ZM10.4999 5.43339C10.3121 5.43339 10.1284 5.48911 9.97215 5.59349C9.81592 5.69788 9.69416 5.84625 9.62226 6.01984C9.55035 6.19343 9.53154 6.38444 9.5682 6.56873C9.60485 6.75301 9.69533 6.92228 9.82819 7.05514C9.96105 7.188 10.1303 7.27848 10.3146 7.31514C10.4989 7.35179 10.6899 7.33298 10.8635 7.26107C11.0371 7.18917 11.1855 7.06741 11.2898 6.91118C11.3942 6.75495 11.4499 6.57128 11.4499 6.38339C11.4499 6.13143 11.3499 5.8898 11.1717 5.71164C10.9935 5.53348 10.7519 5.43339 10.4999 5.43339ZM10.4961 16.8334C10.4721 16.8334 10.448 16.8334 10.4239 16.8318C10.0176 16.8123 9.63437 16.6371 9.35372 16.3426C9.07307 16.0481 8.91655 15.6569 8.91661 15.2501V11.1334C8.58067 11.1334 8.25849 10.9999 8.02094 10.7624C7.7834 10.5248 7.64994 10.2027 7.64994 9.86672C7.64994 9.53078 7.7834 9.2086 8.02094 8.97105C8.25849 8.73351 8.58067 8.60006 8.91661 8.60006H10.4999C10.9197 8.60056 11.3221 8.76753 11.619 9.06436C11.9158 9.36118 12.0828 9.76362 12.0833 10.1834V15.1785C12.0825 15.4066 12.0357 15.6322 11.9456 15.8418C11.8556 16.0514 11.7241 16.2407 11.5592 16.3983C11.2746 16.6756 10.8935 16.8315 10.4961 16.8334ZM8.91661 9.23339C8.74864 9.23339 8.58755 9.30011 8.46878 9.41889C8.35 9.53766 8.28328 9.69875 8.28328 9.86672C8.28328 10.0347 8.35 10.1958 8.46878 10.3146C8.58755 10.4333 8.74864 10.5001 8.91661 10.5001H9.23328C9.31726 10.5001 9.39781 10.5334 9.45719 10.5928C9.51658 10.6522 9.54994 10.7327 9.54994 10.8167V15.2501C9.54927 15.4944 9.64295 15.7296 9.81144 15.9066C9.97993 16.0836 10.2102 16.1887 10.4543 16.2001C10.5775 16.2052 10.7004 16.1848 10.8153 16.1402C10.9302 16.0956 11.0347 16.0278 11.1222 15.941C11.2254 15.8426 11.3076 15.7243 11.364 15.5932C11.4203 15.4622 11.4495 15.3211 11.4499 15.1785V10.1834C11.4499 9.93143 11.3499 9.6898 11.1717 9.51164C10.9935 9.33348 10.7519 9.23339 10.4999 9.23339H8.91661Z" fill="#00A0DC" fill-opacity="0.9"/>
<path d="M10.4999 2.19172L10.4999 2.19172C10.6038 2.19172 10.7034 2.23299 10.7769 2.30644C10.8503 2.37989 10.8916 2.47951 10.8916 2.58339C10.8916 2.68727 10.8503 2.78689 10.7769 2.86034C10.7034 2.93379 10.6038 2.97506 10.4999 2.97506C10.2998 2.97506 10.097 2.9829 9.89762 2.99888L9.89447 2.99914L9.89447 2.99907L9.86953 3.00002L10.4999 2.19172ZM10.4999 2.19172C10.2789 2.19199 10.058 2.20037 9.83758 2.21685C9.73424 2.22126 9.63681 2.26634 9.56655 2.3423C9.49597 2.4186 9.4586 2.51982 9.46265 2.62368C9.4667 2.72754 9.51184 2.82554 9.58815 2.89612C9.66444 2.96668 9.76562 3.00405 9.86946 3.00002L10.4999 2.19172ZM2.89994 10.5001C2.89751 8.80106 3.46543 7.15042 4.51272 5.8126C5.56001 4.47478 7.02605 3.52722 8.67594 3.12172C8.75753 3.10157 8.82778 3.04982 8.87122 2.97788C8.91466 2.90593 8.92774 2.81967 8.90759 2.73808C8.88743 2.65649 8.83569 2.58625 8.76374 2.54281C8.69179 2.49936 8.60554 2.48628 8.52394 2.50644L8.50605 2.43361C8.60692 2.40871 8.71356 2.4249 8.8025 2.4786C8.89148 2.53232 8.95547 2.61919 8.9804 2.72009C9.00532 2.821 8.98915 2.92767 8.93542 3.01664C8.8817 3.10562 8.79483 3.16961 8.69393 3.19453L8.69384 3.19456C7.06026 3.59604 5.60871 4.53424 4.57178 5.85883C3.53484 7.18343 2.97253 8.81775 2.97494 10.4999L2.97494 10.5001C2.97494 10.6039 2.93368 10.7036 2.86023 10.777C2.78678 10.8505 2.68715 10.8917 2.58328 10.8917C2.4794 10.8917 2.37978 10.8505 2.30633 10.777C2.23289 10.7036 2.19163 10.604 2.19161 10.5001M2.89994 10.5001L8.50596 2.43363C6.70216 2.87682 5.09936 3.91274 3.95443 5.37536C2.80949 6.838 2.18873 8.64265 2.19161 10.5001M2.89994 10.5001C2.89994 10.584 2.86658 10.6646 2.8072 10.724C2.74781 10.7834 2.66726 10.8167 2.58328 10.8167C2.49929 10.8167 2.41875 10.7834 2.35936 10.724C2.29997 10.6646 2.26661 10.584 2.26661 10.5001M2.89994 10.5001H2.26661M2.19161 10.5001C2.19161 10.5001 2.19161 10.5002 2.19161 10.5002L2.26661 10.5001M2.19161 10.5001C2.19161 10.5001 2.19161 10.5001 2.19161 10.5001H2.26661M10.4965 16.9084L10.4961 16.9084L10.4951 16.9084L10.4965 16.9084ZM10.4965 16.9084C10.9131 16.9065 11.3128 16.7429 11.6113 16.4523C11.7834 16.2877 11.9205 16.0902 12.0145 15.8714C12.1086 15.6526 12.1575 15.417 12.1583 15.1787V15.1785V10.1834V10.1833C12.1577 9.74367 11.9829 9.32219 11.672 9.01132C11.3611 8.70046 10.9397 8.52558 10.5 8.52506H10.4999M10.4965 16.9084L10.4999 8.52506M10.4999 8.52506H8.91661C8.56078 8.52506 8.21952 8.66641 7.96791 8.91802C7.7163 9.16963 7.57494 9.51089 7.57494 9.86672C7.57494 10.2226 7.7163 10.5638 7.96791 10.8154C8.20179 11.0493 8.51312 11.1879 8.84161 11.2063V15.25C8.84154 15.6761 9.00548 16.0859 9.29942 16.3943C9.59321 16.7026 9.99434 16.8861 10.4197 16.9067L10.4999 8.52506ZM12.1583 6.38348V6.38339C12.1583 6.0554 12.061 5.73478 11.8788 5.46207C11.6966 5.18936 11.4376 4.9768 11.1346 4.85129C10.8315 4.72577 10.4981 4.69293 10.1764 4.75692C9.85473 4.82091 9.55925 4.97885 9.32732 5.21077C9.0954 5.44269 8.93746 5.73818 8.87347 6.05986C8.80949 6.38155 8.84233 6.71499 8.96784 7.01801C9.09336 7.32103 9.30591 7.58002 9.57862 7.76224C9.85133 7.94446 10.172 8.04172 10.4999 8.04172L10.5 8.04172C10.9397 8.04119 11.3611 7.86632 11.672 7.55545C11.9829 7.24459 12.1577 6.82311 12.1583 6.38348ZM9.62494 15.2503V15.2501V10.8167C9.62494 10.7128 9.58368 10.6132 9.51023 10.5398C9.43677 10.4663 9.33715 10.4251 9.23328 10.4251H8.91661C8.76853 10.4251 8.62652 10.3662 8.52181 10.2615C8.4171 10.1568 8.35828 10.0148 8.35828 9.86672C8.35828 9.71864 8.4171 9.57663 8.52181 9.47192C8.62652 9.36721 8.76853 9.30839 8.91661 9.30839H10.4999C10.732 9.30839 10.9546 9.40058 11.1187 9.56467C11.2828 9.72876 11.3749 9.95132 11.3749 10.1834V15.1783C11.3746 15.3108 11.3474 15.4419 11.2951 15.5636C11.2427 15.6854 11.1663 15.7953 11.0704 15.8867L11.0704 15.8867L11.0694 15.8878C10.9892 15.9673 10.8935 16.0295 10.7882 16.0703C10.6829 16.1111 10.5703 16.1298 10.4575 16.1251C10.2328 16.1146 10.0209 16.0178 9.86576 15.8549C9.71059 15.6919 9.62432 15.4753 9.62494 15.2503ZM10.0138 5.65585C10.1577 5.55971 10.3269 5.50839 10.4999 5.50839C10.732 5.50839 10.9546 5.60058 11.1187 5.76467C11.2828 5.92877 11.3749 6.15132 11.3749 6.38339C11.3749 6.55645 11.3236 6.72562 11.2275 6.86951C11.1313 7.01341 10.9947 7.12556 10.8348 7.19178C10.6749 7.25801 10.499 7.27534 10.3292 7.24158C10.1595 7.20781 10.0036 7.12448 9.88122 7.00211C9.75885 6.87974 9.67552 6.72383 9.64176 6.55409C9.60799 6.38436 9.62532 6.20843 9.69155 6.04854C9.75777 5.88866 9.86993 5.752 10.0138 5.65585Z" stroke="#00A0DC" stroke-opacity="0.9" stroke-width="0.15"/>
</svg>
