<svg width="14" height="14" viewBox="0 0 14 14" fill="none" xmlns="http://www.w3.org/2000/svg">
<g clip-path="url(#clip0_162_224)">
<path d="M6.78125 0.875C5.09119 0.875 3.71875 2.24744 3.71875 3.9375C3.71875 5.62756 5.09119 7 6.78125 7C8.47131 7 9.84375 5.62756 9.84375 3.9375C9.84375 2.24744 8.47131 0.875 6.78125 0.875ZM6.78125 1.75C7.98875 1.75 8.96875 2.73 8.96875 3.9375C8.96875 5.145 7.98875 6.125 6.78125 6.125C5.57375 6.125 4.59375 5.145 4.59375 3.9375C4.59375 2.73 5.57375 1.75 6.78125 1.75ZM1.53125 12.25H7C7.11603 12.25 7.22731 12.2961 7.30936 12.3781C7.39141 12.4602 7.4375 12.5715 7.4375 12.6875C7.4375 12.8035 7.39141 12.9148 7.30936 12.9969C7.22731 13.0789 7.11603 13.125 7 13.125H1.09375C0.977718 13.125 0.866438 13.0789 0.784391 12.9969C0.702344 12.9148 0.65625 12.8035 0.65625 12.6875V11.8125C0.65625 10.7682 1.07109 9.76669 1.80952 9.02827C2.54794 8.28984 3.54946 7.875 4.59375 7.875H7C7.11603 7.875 7.22731 7.92109 7.30936 8.00314C7.39141 8.08519 7.4375 8.19647 7.4375 8.3125C7.4375 8.42853 7.39141 8.53981 7.30936 8.62186C7.22731 8.70391 7.11603 8.75 7 8.75H4.59375C3.78152 8.75 3.00257 9.07266 2.42824 9.64699C1.85391 10.2213 1.53125 11.0003 1.53125 11.8125V12.25ZM13.0449 9.00988C13.127 8.92783 13.173 8.81657 13.173 8.70056C13.173 8.58455 13.127 8.47329 13.0449 8.39125L11.9516 7.29794C11.8696 7.21592 11.7583 7.16984 11.6423 7.16984C11.5263 7.16984 11.415 7.21592 11.333 7.29794L8.76706 9.86388C8.68966 9.94133 8.64408 10.045 8.63931 10.1544L8.58944 11.2971C8.58683 11.3577 8.59685 11.4182 8.61887 11.4747C8.64089 11.5312 8.67441 11.5826 8.71732 11.6254C8.76023 11.6683 8.81159 11.7018 8.86813 11.7237C8.92467 11.7457 8.98516 11.7557 9.04575 11.753L10.1885 11.7036C10.2979 11.6988 10.4016 11.6533 10.479 11.5758L13.0449 9.00988ZM9.506 10.3622L9.48456 10.8583L9.98069 10.8364L12.1166 8.70056L11.6423 8.22588L9.506 10.3622ZM8.3125 13.1259H12.25C12.366 13.1259 12.4773 13.0798 12.5594 12.9977C12.6414 12.9157 12.6875 12.8044 12.6875 12.6884C12.6875 12.5723 12.6414 12.4611 12.5594 12.379C12.4773 12.297 12.366 12.2509 12.25 12.2509H8.3125C8.19647 12.2509 8.08519 12.297 8.00314 12.379C7.92109 12.4611 7.875 12.5723 7.875 12.6884C7.875 12.8044 7.92109 12.9157 8.00314 12.9977C8.08519 13.0798 8.19647 13.1259 8.3125 13.1259Z" fill="#454545" fill-opacity="0.7"/>
</g>
<defs>
<clipPath id="clip0_162_224">
<rect width="14" height="14" fill="white"/>
</clipPath>
</defs>
</svg>
