<svg width="14" height="14" viewBox="0 0 14 14" fill="none" xmlns="http://www.w3.org/2000/svg">
<path fill-rule="evenodd" clip-rule="evenodd" d="M6.99698 0.743164C7.30342 0.743164 7.5973 0.864895 7.81398 1.08158C8.03067 1.29826 8.1524 1.59214 8.1524 1.89858V5.94252H12.1963C12.5028 5.94252 12.7967 6.06425 13.0133 6.28093C13.23 6.49762 13.3518 6.7915 13.3518 7.09793C13.3518 7.40437 13.23 7.69825 13.0133 7.91494C12.7967 8.13162 12.5028 8.25335 12.1963 8.25335H8.1524V12.2973C8.1524 12.6037 8.03067 12.8976 7.81398 13.1143C7.5973 13.331 7.30342 13.4527 6.99698 13.4527C6.69055 13.4527 6.39666 13.331 6.17998 13.1143C5.9633 12.8976 5.84157 12.6037 5.84157 12.2973V8.25335H1.79762C1.49119 8.25335 1.19731 8.13162 0.980625 7.91494C0.763943 7.69825 0.642212 7.40437 0.642212 7.09793C0.642212 6.7915 0.763943 6.49762 0.980625 6.28093C1.19731 6.06425 1.49119 5.94252 1.79762 5.94252H5.84157V1.89858C5.84157 1.59214 5.9633 1.29826 6.17998 1.08158C6.39666 0.864895 6.69055 0.743164 6.99698 0.743164Z" fill="white"/>
</svg>
