<svg width="20" height="20" viewBox="0 0 20 20" fill="none" xmlns="http://www.w3.org/2000/svg">
<path d="M17.8 14.2998H3.2C3.08954 14.2998 3 14.3893 3 14.4998V15.0998C3 15.2103 3.08954 15.2998 3.2 15.2998H17.8C17.9105 15.2998 18 15.2103 18 15.0998V14.4998C18 14.3893 17.9105 14.2998 17.8 14.2998Z" fill="#222222"/>
<path d="M4.5 9.30029C4.5 8.47186 5.17157 7.80029 6 7.80029H15C15.8284 7.80029 16.5 8.47186 16.5 9.30029V14.8002H4.5V9.30029Z" stroke="#222222"/>
<path d="M7 5.80029C7 5.52415 7.22386 5.30029 7.5 5.30029C7.77614 5.30029 8 5.52415 8 5.80029V7.30029H7V5.80029Z" fill="#222222"/>
<path d="M7.50001 4L7.61227 4.34549H7.97554L7.68165 4.55902L7.7939 4.90451L7.50001 4.69098L7.20612 4.90451L7.31837 4.55902L7.02448 4.34549H7.38775L7.50001 4Z" fill="#222222"/>
<path d="M9.7002 5.80029C9.7002 5.52415 9.92405 5.30029 10.2002 5.30029C10.4763 5.30029 10.7002 5.52415 10.7002 5.80029V7.30029H9.7002V5.80029Z" fill="#222222"/>
<path d="M10.2002 4L10.3125 4.34549H10.6757L10.3818 4.55902L10.4941 4.90451L10.2002 4.69098L9.9063 4.90451L10.0186 4.55902L9.72467 4.34549H10.0879L10.2002 4Z" fill="#222222"/>
<path d="M12.4004 5.80029C12.4004 5.52415 12.6242 5.30029 12.9004 5.30029C13.1765 5.30029 13.4004 5.52415 13.4004 5.80029V7.30029H12.4004V5.80029Z" fill="#222222"/>
<path d="M12.9004 4L13.0126 4.34549H13.3759L13.082 4.55902L13.1943 4.90451L12.9004 4.69098L12.6065 4.90451L12.7188 4.55902L12.4249 4.34549H12.7881L12.9004 4Z" fill="#222222"/>
</svg>
