<svg width="60" height="60" viewBox="0 0 60 60" fill="none" xmlns="http://www.w3.org/2000/svg">
<g clip-path="url(#clip0_545_354)">
<path d="M4.55531 17.4854H13.8246C14.31 17.4854 14.7035 17.092 14.7035 16.6064C14.7035 16.1209 14.31 15.7275 13.8246 15.7275H4.55531C4.06992 15.7275 3.67641 16.1209 3.67641 16.6064C3.67641 17.092 4.0698 17.4854 4.55531 17.4854ZM13.5068 21.7166H9.84516C9.35977 21.7166 8.96625 22.11 8.96625 22.5955C8.96625 23.0811 9.35977 23.4745 9.84516 23.4745H13.5068C13.9922 23.4745 14.3857 23.0811 14.3857 22.5955C14.3857 22.11 13.9922 21.7166 13.5068 21.7166ZM0.878906 27.8116H9.84516C10.3305 27.8116 10.7241 27.4182 10.7241 26.9327C10.7241 26.4471 10.3305 26.0537 9.84516 26.0537H0.878906C0.393516 26.0537 0 26.4471 0 26.9327C0 27.4182 0.393516 27.8116 0.878906 27.8116ZM14.7035 43.393C14.7035 43.1599 14.6109 42.9364 14.4461 42.7716C14.2813 42.6067 14.0577 42.5141 13.8246 42.5141H4.55531C4.06992 42.5141 3.67641 42.9075 3.67641 43.393C3.67641 43.8786 4.06992 44.272 4.55531 44.272H13.8246C14.0577 44.272 14.2813 44.1794 14.4461 44.0145C14.6109 43.8497 14.7035 43.6261 14.7035 43.393ZM13.5068 36.5252H9.84516C9.35977 36.5252 8.96625 36.9186 8.96625 37.4041C8.96625 37.8896 9.35977 38.283 9.84516 38.283H13.5068C13.9922 38.283 14.3857 37.8896 14.3857 37.4041C14.3857 36.9186 13.9922 36.5252 13.5068 36.5252ZM10.7241 33.067C10.7241 32.8339 10.6315 32.6103 10.4666 32.4455C10.3018 32.2806 10.0783 32.188 9.84516 32.188H0.878906C0.393516 32.188 0 32.5814 0 33.067C0 33.5525 0.393516 33.9459 0.878906 33.9459H9.84516C10.0783 33.9459 10.3018 33.8533 10.4666 33.6884C10.6315 33.5236 10.7241 33.3001 10.7241 33.067ZM37.4448 19.433C37.9303 19.433 38.3237 19.0396 38.3237 18.5541V17.2125C38.3237 16.727 37.9303 16.3336 37.4448 16.3336C36.9593 16.3336 36.5659 16.727 36.5659 17.2125V18.5541C36.5659 19.0396 36.9593 19.433 37.4448 19.433ZM47.1082 20.3363C46.9433 20.1715 46.7198 20.0789 46.4867 20.0789C46.2536 20.0789 46.0301 20.1715 45.8652 20.3363L44.9166 21.2849C44.7517 21.4498 44.6591 21.6733 44.6591 21.9064C44.6591 22.1395 44.7517 22.3631 44.9166 22.5279C45.0814 22.6928 45.305 22.7854 45.5381 22.7854C45.7712 22.7854 45.9947 22.6928 46.1596 22.5279L47.1082 21.5793C47.273 21.4144 47.3656 21.1909 47.3656 20.9578C47.3656 20.7247 47.273 20.5011 47.1082 20.3363ZM48.8905 29.1209C48.405 29.1209 48.0116 29.5143 48.0116 29.9998C48.0116 30.4853 48.405 30.8787 48.8905 30.8787H50.232C50.7175 30.8787 51.1109 30.4853 51.1109 29.9998C51.1109 29.5143 50.7175 29.1209 50.232 29.1209H48.8905ZM46.1596 37.4716C46.078 37.3899 45.9811 37.3252 45.8744 37.281C45.7678 37.2369 45.6535 37.2141 45.5381 37.2141C45.4226 37.2141 45.3083 37.2369 45.2017 37.281C45.0951 37.3252 44.9982 37.3899 44.9166 37.4716C44.8349 37.5532 44.7702 37.6501 44.726 37.7567C44.6819 37.8633 44.6591 37.9776 44.6591 38.0931C44.6591 38.2085 44.6819 38.3228 44.726 38.4294C44.7702 38.5361 44.8349 38.633 44.9166 38.7146L45.8652 39.6632C46.0308 39.8243 46.2532 39.9137 46.4842 39.9121C46.7152 39.9105 46.9363 39.818 47.0997 39.6547C47.263 39.4913 47.3555 39.2702 47.3571 39.0392C47.3587 38.8082 47.2693 38.5858 47.1082 38.4202L46.1596 37.4716ZM36.5659 41.4455V42.787C36.5659 43.2725 36.9593 43.6659 37.4448 43.6659C37.9303 43.6659 38.3237 43.2725 38.3237 42.787V41.4455C38.3237 40.96 37.9303 40.5666 37.4448 40.5666C36.9593 40.5666 36.5659 40.9601 36.5659 41.4455ZM28.7299 37.4716L27.7813 38.4202C27.6176 38.5853 27.5261 38.8084 27.5266 39.0409C27.5271 39.2733 27.6196 39.4961 27.7839 39.6604C27.9483 39.8248 28.1711 39.9174 28.4035 39.9179C28.6359 39.9184 28.8591 39.8268 29.0242 39.6632L29.9728 38.7146C30.1365 38.5495 30.2281 38.3263 30.2276 38.0939C30.2271 37.8615 30.1345 37.6387 29.9702 37.4743C29.8058 37.31 29.583 37.2174 29.3506 37.2169C29.1182 37.2164 28.895 37.3079 28.7299 37.4716ZM24.6575 29.1209C24.1721 29.1209 23.7786 29.5143 23.7786 29.9998C23.7786 30.4853 24.1721 30.8787 24.6575 30.8787H25.9991C26.4845 30.8787 26.878 30.4853 26.878 29.9998C26.878 29.5143 26.4845 29.1209 25.9991 29.1209H24.6575ZM29.9729 21.2849L29.0243 20.3363C28.8585 20.176 28.6364 20.0873 28.4059 20.0893C28.1753 20.0913 27.9548 20.1837 27.7918 20.3468C27.6287 20.5098 27.5363 20.7304 27.5344 20.9609C27.5324 21.1915 27.6211 21.4135 27.7814 21.5793L28.73 22.5279C28.8951 22.6916 29.1183 22.7831 29.3507 22.7826C29.5832 22.7821 29.8059 22.6895 29.9703 22.5252C30.1346 22.3608 30.2272 22.138 30.2277 21.9056C30.2282 21.6732 30.1366 21.45 29.9729 21.2849ZM42.171 29.9998C42.171 29.5143 41.7776 29.1209 41.2921 29.1209H38.3237V22.5954C38.3237 22.1099 37.9303 21.7165 37.4448 21.7165C36.9593 21.7165 36.5659 22.1099 36.5659 22.5954V29.9998C36.5659 30.4853 36.9593 30.8787 37.4448 30.8787H41.2921C41.5252 30.8787 41.7487 30.7861 41.9136 30.6213C42.0784 30.4565 42.171 30.2329 42.171 29.9998Z" fill="#00A0DC"/>
<path d="M54.1107 29.8548C54.3434 29.8406 54.5609 29.7347 54.7155 29.5602C54.87 29.3857 54.9489 29.157 54.9348 28.9243C54.3757 19.7013 46.6934 12.4766 37.4452 12.4766C27.7828 12.4766 19.9219 20.3375 19.9219 30C19.9219 39.6623 27.7828 47.5232 37.4452 47.5232C46.1017 47.5232 53.4881 41.1808 54.7731 32.622C54.7902 32.5079 54.7847 32.3915 54.7568 32.2795C54.729 32.1675 54.6793 32.062 54.6107 31.9692C54.5421 31.8764 54.4559 31.798 54.357 31.7385C54.2581 31.679 54.1485 31.6396 54.0343 31.6224C53.9202 31.6053 53.8038 31.6108 53.6918 31.6387C53.5798 31.6665 53.4744 31.7162 53.3815 31.7848C53.2887 31.8534 53.2103 31.9396 53.1508 32.0385C53.0913 32.1374 53.0519 32.247 53.0347 32.3612C51.8804 40.0503 45.2411 45.7655 37.4452 45.7655C28.7521 45.7655 21.6797 38.6932 21.6797 30.0001C21.6797 21.307 28.7521 14.2345 37.4452 14.2345C45.7656 14.2345 52.6772 20.7338 53.1802 29.0309C53.2095 29.5152 53.6257 29.8829 54.1107 29.8548Z" fill="#00A0DC"/>
<path d="M37.445 7.44434C34.3534 7.44434 31.3245 8.0857 28.5366 9.28512H13.0293C12.5439 9.28512 12.1504 9.67852 12.1504 10.164C12.1504 10.6495 12.5439 11.0429 13.0293 11.0429H25.23C23.5664 12.1131 22.051 13.3978 20.7228 14.8637C20.5676 15.0367 20.4873 15.2641 20.4994 15.4961C20.5114 15.7282 20.6149 15.946 20.7871 16.102C20.9593 16.258 21.1863 16.3394 21.4184 16.3285C21.6505 16.3175 21.8689 16.2151 22.0257 16.0437C25.9634 11.6958 31.5836 9.20215 37.445 9.20215C48.9127 9.20215 58.2425 18.5318 58.2425 29.9995C58.2425 41.4671 48.9128 50.7969 37.445 50.7969C25.9772 50.7969 16.6476 41.4673 16.6476 29.9995C16.6476 25.9838 17.7947 22.0861 19.9648 18.7277C20.0899 18.532 20.1324 18.2946 20.083 18.0676C20.0336 17.8405 19.8963 17.6423 19.7012 17.5162C19.506 17.3901 19.2689 17.3465 19.0416 17.3947C18.8143 17.443 18.6154 17.5793 18.4884 17.7738C16.1341 21.417 14.8898 25.6445 14.8898 29.9995C14.8898 37.9409 19.0155 44.936 25.2357 48.9561H13.0294C12.544 48.9561 12.1505 49.3495 12.1505 49.835C12.1505 50.3205 12.544 50.7139 13.0294 50.7139H28.5245C31.262 51.8974 34.2781 52.5547 37.4451 52.5547C49.882 52.5547 60.0003 42.4365 60.0003 29.9995C60.0003 17.5625 49.882 7.44434 37.445 7.44434Z" fill="#00A0DC"/>
</g>
<defs>
<clipPath id="clip0_545_354">
<rect width="60" height="60" fill="white"/>
</clipPath>
</defs>
</svg>
