<svg width="18" height="18" viewBox="0 0 18 18" fill="none" xmlns="http://www.w3.org/2000/svg">
<g clip-path="url(#clip0_574_151)">
<path d="M15 7.875V14.25C15 16.3177 13.3177 18 11.25 18H3.75C1.68225 18 0 16.3177 0 14.25V6.75C0 4.68225 1.68225 3 3.75 3H10.125C10.273 3.00074 10.4175 3.04516 10.5403 3.12769C10.6632 3.21023 10.7589 3.32719 10.8155 3.46393C10.8722 3.60066 10.8872 3.75107 10.8587 3.89629C10.8301 4.04151 10.7594 4.17509 10.6552 4.28025L5.166 9.7695C4.76834 10.1647 4.53991 10.699 4.529 11.2595C4.51808 11.8201 4.72553 12.3629 5.1075 12.7733C5.30494 12.9881 5.54409 13.1606 5.81037 13.28C6.07664 13.3994 6.36446 13.4633 6.65625 13.4678C6.94801 13.4746 7.23812 13.4219 7.5088 13.3128C7.77949 13.2037 8.02507 13.0405 8.2305 12.8333L13.7197 7.344C13.8244 7.2384 13.958 7.16634 14.1037 7.137C14.2495 7.10766 14.4006 7.12236 14.5379 7.17924C14.6752 7.23611 14.7925 7.33259 14.8748 7.45636C14.9571 7.58014 15.0007 7.72562 15 7.87425V7.875ZM15.75 0H10.5C10.3011 0 10.1103 0.0790176 9.96967 0.21967C9.82902 0.360322 9.75 0.551088 9.75 0.75C9.75 0.948912 9.82902 1.13968 9.96967 1.28033C10.1103 1.42098 10.3011 1.5 10.5 1.5H15.4395L6.21975 10.7198C6.07912 10.8604 6.00011 11.0511 6.00011 11.25C6.00011 11.4489 6.07912 11.6396 6.21975 11.7802C6.36038 11.9209 6.55112 11.9999 6.75 11.9999C6.94888 11.9999 7.13962 11.9209 7.28025 11.7802L16.5 2.5605V7.5C16.5 7.69891 16.579 7.88968 16.7197 8.03033C16.8603 8.17098 17.0511 8.25 17.25 8.25C17.4489 8.25 17.6397 8.17098 17.7803 8.03033C17.921 7.88968 18 7.69891 18 7.5V2.25C18 1.0095 16.9905 0 15.75 0Z" fill="#454545" fill-opacity="0.15"/>
</g>
<defs>
<clipPath id="clip0_574_151">
<rect width="18" height="18" fill="white"/>
</clipPath>
</defs>
</svg>
