<svg width="19" height="15" viewBox="0 0 19 15" fill="none" xmlns="http://www.w3.org/2000/svg">
<path d="M17.3185 1.94187H12.3738L11.3754 0.264479C11.3274 0.183867 11.2592 0.117107 11.1777 0.0707431C11.0961 0.024379 11.0039 1.71986e-06 10.9101 5.60455e-10H7.76978C7.67596 -4.26767e-06 7.58375 0.0243705 7.50219 0.0707352C7.42063 0.1171 7.35251 0.183863 7.30452 0.264479L6.30605 1.94187H4.68349V1.57217C4.68349 1.42857 4.62645 1.29086 4.52492 1.18933C4.42338 1.08779 4.28567 1.03075 4.14207 1.03075H2.13875C1.99516 1.03075 1.85745 1.08779 1.75591 1.18933C1.65437 1.29086 1.59733 1.42857 1.59733 1.57217V1.94187H1.36148C0.6095 1.94187 0 2.55143 0 3.30329V13.1607C0 13.9126 0.6095 14.5222 1.36142 14.5222H17.3185C18.0704 14.5222 18.6799 13.9126 18.6799 13.1607V3.30329C18.68 2.55143 18.0704 1.94187 17.3185 1.94187ZM9.33994 12.1073C7.19967 12.1073 5.46465 10.3723 5.46465 8.23193C5.46465 6.09172 7.19967 4.35665 9.33994 4.35665C11.4802 4.35665 13.2152 6.09172 13.2152 8.23193C13.2152 10.3723 11.4802 12.1073 9.33994 12.1073ZM16.469 4.74872H14.7725C14.7014 4.74872 14.631 4.73471 14.5653 4.7075C14.4996 4.68029 14.4399 4.6404 14.3896 4.59012C14.3394 4.53984 14.2995 4.48014 14.2723 4.41445C14.2451 4.34875 14.2311 4.27834 14.2311 4.20724C14.2311 4.13613 14.2451 4.06572 14.2723 4.00003C14.2995 3.93433 14.3394 3.87464 14.3896 3.82436C14.4399 3.77407 14.4996 3.73419 14.5653 3.70697C14.631 3.67976 14.7014 3.66576 14.7725 3.66576H16.469C16.5401 3.66575 16.6106 3.67975 16.6763 3.70696C16.742 3.73417 16.8017 3.77405 16.8519 3.82433C16.9022 3.87462 16.9421 3.93431 16.9693 4.00001C16.9965 4.06571 17.0105 4.13613 17.0105 4.20724C17.0105 4.35085 16.9535 4.48857 16.8519 4.59012C16.7504 4.69167 16.6126 4.74872 16.469 4.74872Z" fill="black"/>
<path d="M9.33991 10.939C10.8351 10.939 12.0472 9.72689 12.0472 8.2317C12.0472 6.73651 10.8351 5.52441 9.33991 5.52441C7.84472 5.52441 6.63263 6.73651 6.63263 8.2317C6.63263 9.72689 7.84472 10.939 9.33991 10.939Z" fill="black"/>
</svg>
