<svg width="29" height="24" viewBox="0 0 29 24" fill="none" xmlns="http://www.w3.org/2000/svg">
<path d="M14.5 9.75928C12.5185 9.75928 10.9121 11.3796 10.9121 13.3786C10.9121 15.3786 12.5185 16.998 14.5 16.998C16.4816 16.998 18.0874 15.3786 18.0874 13.3786C18.0874 11.3796 16.4815 9.75928 14.5 9.75928Z" fill="white"/>
<path d="M27.7927 5.05572C27.2768 4.5334 26.55 4.20463 25.7563 4.20463H22.6423C22.3914 4.20563 22.1574 4.05546 22.0496 3.81304L21.1167 1.72474C20.6553 0.690078 19.6296 0.0170898 18.4912 0.0170898H10.5088C9.37088 0.0170898 8.34473 0.690078 7.88225 1.72474L6.95034 3.81304C6.84257 4.05546 6.6081 4.20563 6.35762 4.20463H3.24371C2.45048 4.20463 1.72217 4.53334 1.20531 5.05572C0.688453 5.57656 0.366699 6.30442 0.366699 7.09716V20.4979C0.366699 21.2911 0.688453 22.0185 1.20531 22.5392C1.72212 23.0616 2.45048 23.3903 3.24371 23.3893H15.6407H25.7564C26.5501 23.3903 27.2769 23.0616 27.7928 22.5392C28.3121 22.0185 28.6334 21.2911 28.6334 20.4979V7.09716C28.6333 6.30442 28.3121 5.57556 27.7927 5.05572ZM19.1079 18.0154C17.933 19.2032 16.2982 19.9416 14.5003 19.9416C12.7013 19.9416 11.067 19.2033 9.89216 18.0154C8.71534 16.8306 7.98593 15.1853 7.98698 13.3784C7.98599 11.5715 8.71534 9.92768 9.89216 8.74093C11.067 7.55406 12.7008 6.81477 14.5003 6.81626C16.2982 6.81477 17.933 7.55406 19.1079 8.74093C20.2847 9.92774 21.0141 11.5715 21.0125 13.3784C21.014 15.1853 20.2847 16.8306 19.1079 18.0154ZM25.8711 9.41441H23.895V7.43785H25.8711V9.41441Z" fill="white"/>
</svg>
