<svg width="19" height="19" viewBox="0 0 19 19" fill="none" xmlns="http://www.w3.org/2000/svg">
<g id="Frame" clip-path="url(#clip0_639_81)">
<g id="Group">
<path id="Vector" d="M9.5 0C4.26212 0 0 4.26138 0 9.5C0 14.7386 4.26212 19 9.5 19C14.7386 19 19 14.7386 19 9.5C19 4.26138 14.7379 0 9.5 0ZM9.5 17.5283C5.07304 17.5283 1.47172 13.927 1.47172 9.5C1.47172 5.07304 5.07304 1.47172 9.5 1.47172C13.927 1.47172 17.5283 5.07304 17.5283 9.5C17.5283 13.927 13.927 17.5283 9.5 17.5283Z" fill="#00A0DC"/>
<path id="Vector_2" d="M13.1794 8.69824H5.82072C5.41452 8.69824 5.08484 9.02792 5.08484 9.43412C5.08484 9.84032 5.41452 10.17 5.82072 10.17H13.1794C13.5856 10.17 13.9152 9.84032 13.9152 9.43412C13.9152 9.02792 13.5856 8.69824 13.1794 8.69824Z" fill="#00A0DC"/>
</g>
</g>
<defs>
<clipPath id="clip0_639_81">
<rect width="19" height="19" fill="white"/>
</clipPath>
</defs>
</svg>
