<svg width="13" height="13" viewBox="0 0 13 13" fill="none" xmlns="http://www.w3.org/2000/svg">
<g clip-path="url(#clip0_162_247)">
<path d="M10.2917 2.16667H9.69583C9.57011 1.55535 9.23749 1.00606 8.75401 0.611389C8.27054 0.216715 7.66578 0.000787867 7.04167 0L5.95833 0C5.33422 0.000787867 4.72946 0.216715 4.24599 0.611389C3.76251 1.00606 3.42989 1.55535 3.30417 2.16667H2.70833C1.9903 2.16753 1.30193 2.45314 0.794202 2.96087C0.286478 3.46859 0.00086009 4.15697 0 4.875L0 10.2917C0.00086009 11.0097 0.286478 11.6981 0.794202 12.2058C1.30193 12.7135 1.9903 12.9991 2.70833 13H10.2917C11.0097 12.9991 11.6981 12.7135 12.2058 12.2058C12.7135 11.6981 12.9991 11.0097 13 10.2917V4.875C12.9991 4.15697 12.7135 3.46859 12.2058 2.96087C11.6981 2.45314 11.0097 2.16753 10.2917 2.16667ZM5.95833 1.08333H7.04167C7.37656 1.08472 7.70284 1.18955 7.97588 1.38346C8.24892 1.57738 8.45537 1.85092 8.567 2.16667H4.433C4.54463 1.85092 4.75108 1.57738 5.02412 1.38346C5.29716 1.18955 5.62344 1.08472 5.95833 1.08333ZM2.70833 3.25H10.2917C10.7226 3.25 11.136 3.42121 11.4407 3.72595C11.7455 4.0307 11.9167 4.44402 11.9167 4.875V6.5H1.08333V4.875C1.08333 4.44402 1.25454 4.0307 1.55928 3.72595C1.86403 3.42121 2.27736 3.25 2.70833 3.25ZM10.2917 11.9167H2.70833C2.27736 11.9167 1.86403 11.7455 1.55928 11.4407C1.25454 11.136 1.08333 10.7226 1.08333 10.2917V7.58333H5.95833V8.125C5.95833 8.26866 6.0154 8.40643 6.11698 8.50802C6.21857 8.6096 6.35634 8.66667 6.5 8.66667C6.64366 8.66667 6.78143 8.6096 6.88302 8.50802C6.9846 8.40643 7.04167 8.26866 7.04167 8.125V7.58333H11.9167V10.2917C11.9167 10.7226 11.7455 11.136 11.4407 11.4407C11.136 11.7455 10.7226 11.9167 10.2917 11.9167Z" fill="#454545" fill-opacity="0.7"/>
</g>
<defs>
<clipPath id="clip0_162_247">
<rect width="13" height="13" fill="white"/>
</clipPath>
</defs>
</svg>
