<svg width="17" height="19" viewBox="0 0 17 19" fill="none" xmlns="http://www.w3.org/2000/svg">
<path d="M8.82244 11.6915V13.5354C8.02394 13.2531 7.16936 13.1665 6.33046 13.2829C5.49156 13.3993 4.69283 13.7153 4.00136 14.2043C3.30988 14.6934 2.74585 15.3412 2.35662 16.0934C1.96739 16.8456 1.76433 17.6802 1.76449 18.5271L2.28022e-07 18.5262C-0.000273596 17.4489 0.246077 16.3858 0.720174 15.4184C1.19427 14.451 1.88354 13.605 2.73515 12.9452C3.58676 12.2854 4.57812 11.8292 5.63326 11.6118C6.68841 11.3943 7.77933 11.4222 8.82244 11.6915ZM7.05795 10.5869C4.13331 10.5869 1.76449 8.2181 1.76449 5.29346C1.76449 2.36882 4.13331 0 7.05795 0C9.98259 0 12.3514 2.36882 12.3514 5.29346C12.3514 8.2181 9.98259 10.5869 7.05795 10.5869ZM7.05795 8.82244C9.00771 8.82244 10.5869 7.24322 10.5869 5.29346C10.5869 3.3437 9.00771 1.76449 7.05795 1.76449C5.10819 1.76449 3.52898 3.3437 3.52898 5.29346C3.52898 7.24322 5.10819 8.82244 7.05795 8.82244ZM13.2337 14.6329L15.1049 12.7608L16.3533 14.0091L14.4811 15.8804L16.3533 17.7516L15.1049 19L13.2337 17.1279L11.3624 19L10.114 17.7516L11.9862 15.8804L10.114 14.0091L11.3624 12.7608L13.2337 14.6329Z" fill="#00A0DC" fill-opacity="0.9"/>
</svg>
