<svg width="25" height="25" viewBox="0 0 25 25" fill="none" xmlns="http://www.w3.org/2000/svg">
<circle cx="12.5" cy="12.5" r="12.5" fill="#BAB0B0" fill-opacity="0.15"/>
<path d="M15.2053 7.26491L8.71429 9.42857L8.71428 9.42857C7.08082 9.97306 6.26409 10.2453 5.93878 10.5579C5.11982 11.3449 5.11982 12.6551 5.93878 13.4421C6.26409 13.7547 7.08082 14.0269 8.71428 14.5714L8.71429 14.5714C9.04339 14.6811 9.20793 14.736 9.35387 14.8132C9.70886 15.0009 9.99911 15.2911 10.1868 15.6461C10.264 15.7921 10.3189 15.9566 10.4286 16.2857C10.9731 17.9192 11.2453 18.7359 11.5579 19.0612C12.3449 19.8802 13.6551 19.8802 14.4421 19.0612C14.7547 18.7359 15.0269 17.9192 15.5714 16.2857L15.5714 16.2857L17.7351 9.79473C18.287 8.13894 18.563 7.31105 18.126 6.87403C17.689 6.43702 16.8611 6.71298 15.2053 7.26491Z" fill="white" stroke="#33363F"/>
</svg>
