<svg width="15" height="15" viewBox="0 0 15 15" fill="none" xmlns="http://www.w3.org/2000/svg">
<ellipse cx="7.5" cy="6.44434" rx="5" ry="5.37037" fill="white"/>
<path d="M15 7.85156C15 8.37598 14.874 8.8623 14.6221 9.30762C14.3701 9.75293 14.0332 10.1016 13.6084 10.3447C13.6201 10.4238 13.626 10.5469 13.626 10.7139C13.626 11.5078 13.3594 12.1816 12.832 12.7383C12.3018 13.2979 11.6631 13.5762 10.916 13.5762C10.582 13.5762 10.2627 13.5146 9.96094 13.3916C9.72656 13.8721 9.38965 14.2588 8.94726 14.5547C8.50781 14.8535 8.02441 15 7.5 15C6.96387 15 6.47754 14.8564 6.04395 14.5635C5.60742 14.2734 5.27344 13.8838 5.03906 13.3916C4.7373 13.5146 4.4209 13.5762 4.08398 13.5762C3.33691 13.5762 2.69531 13.2979 2.15918 12.7383C1.62305 12.1816 1.35645 11.5049 1.35645 10.7139C1.35645 10.626 1.36816 10.5029 1.38867 10.3447C0.963867 10.0986 0.626953 9.75293 0.375 9.30762C0.125977 8.8623 0 8.37598 0 7.85156C0 7.29492 0.140625 6.78223 0.418945 6.31934C0.697266 5.85644 1.07227 5.51367 1.54102 5.29102C1.41797 4.95703 1.35645 4.62012 1.35645 4.28613C1.35645 3.49512 1.62305 2.81836 2.15918 2.26172C2.69531 1.70508 3.33691 1.42383 4.08398 1.42383C4.41797 1.42383 4.7373 1.48535 5.03906 1.6084C5.27344 1.12793 5.61035 0.741211 6.05273 0.445312C6.49219 0.149414 6.97559 0 7.5 0C8.02441 0 8.50781 0.149414 8.94726 0.442383C9.38672 0.738281 9.72656 1.125 9.96094 1.60547C10.2627 1.48242 10.5791 1.4209 10.916 1.4209C11.6631 1.4209 12.3018 1.69922 12.832 2.25879C13.3623 2.81836 13.626 3.49219 13.626 4.2832C13.626 4.65234 13.5703 4.98633 13.459 5.28809C13.9277 5.51074 14.3027 5.85352 14.5811 6.31641C14.8594 6.78223 15 7.29492 15 7.85156ZM7.18066 10.1104L10.2773 5.47266C10.3564 5.34961 10.3799 5.21484 10.3535 5.07129C10.3242 4.92773 10.251 4.81348 10.1279 4.7373C10.0049 4.6582 9.87012 4.63184 9.72656 4.65234C9.58008 4.67578 9.46289 4.74609 9.375 4.86914L6.64746 8.9707L5.39062 7.7168C5.2793 7.60547 5.15039 7.55273 5.00684 7.55859C4.86035 7.56445 4.73438 7.61719 4.62305 7.7168C4.52344 7.81641 4.47363 7.94238 4.47363 8.09473C4.47363 8.24414 4.52344 8.37012 4.62305 8.47266L6.34863 10.1982L6.43359 10.2656C6.5332 10.333 6.63574 10.3652 6.73535 10.3652C6.93164 10.3623 7.08106 10.2803 7.18066 10.1104Z" fill="#0077B5"/>
</svg>
