<svg width="25" height="25" viewBox="0 0 25 25" fill="none" xmlns="http://www.w3.org/2000/svg">
<path d="M5.72916 6.046C5.72916 5.20592 5.72916 4.78588 5.89265 4.46501C6.03646 4.18277 6.26593 3.9533 6.54817 3.80949C6.86904 3.646 7.28908 3.646 8.12916 3.646H13.0684C13.4353 3.646 13.6187 3.646 13.7913 3.68744C13.9444 3.72419 14.0907 3.78479 14.2249 3.86704C14.3763 3.9598 14.506 4.08951 14.7654 4.34894L18.5679 8.15139C18.8273 8.41081 18.957 8.54053 19.0498 8.6919C19.132 8.82611 19.1926 8.97243 19.2294 9.12548C19.2708 9.29811 19.2708 9.48156 19.2708 9.84844V18.9543C19.2708 19.7944 19.2708 20.2144 19.1073 20.5353C18.9635 20.8176 18.7341 21.047 18.4518 21.1908C18.1309 21.3543 17.7109 21.3543 16.8708 21.3543H8.12916C7.28908 21.3543 6.86904 21.3543 6.54817 21.1908C6.26593 21.047 6.03646 20.8176 5.89265 20.5353C5.72916 20.2144 5.72916 19.7944 5.72916 18.9543V6.046Z" stroke="#222222"/>
<path d="M13.0208 3.646V7.496C13.0208 8.33607 13.0208 8.75611 13.1843 9.07698C13.3281 9.35922 13.5576 9.5887 13.8399 9.73251C14.1607 9.896 14.5808 9.896 15.4208 9.896H19.2708" stroke="#222222"/>
</svg>
