<svg width="25" height="25" viewBox="0 0 25 25" fill="none" xmlns="http://www.w3.org/2000/svg">
<g id="Frame" clip-path="url(#clip0_2337_1198)">
<g id="Group">
<path id="Vector" d="M23.1013 8.40296C23.1792 7.98538 23.2187 7.56154 23.2192 7.13676C23.2144 3.19155 20.0124 -0.0028027 16.0672 0.00195844C13.0639 0.00556853 10.3836 1.88726 9.36005 4.71072C7.52733 3.98117 5.45016 4.87543 4.72056 6.70815C4.65741 6.86677 4.60572 7.02971 4.5659 7.19572C1.63953 7.63338 -0.37794 10.3605 0.0597186 13.2868C0.452225 15.9114 2.70691 17.8531 5.36059 17.852H9.82523C10.3184 17.852 10.7182 17.4522 10.7182 16.959C10.7182 16.4659 10.3184 16.0661 9.82523 16.0661H5.36059C3.38796 16.0661 1.78885 14.467 1.78885 12.4943C1.78885 10.5217 3.38796 8.9226 5.36059 8.9226C5.85376 8.9226 6.25354 8.52283 6.25354 8.02966C6.25516 7.04337 7.05603 6.24512 8.04231 6.24674C8.50874 6.24752 8.95636 6.43074 9.28947 6.75723C9.6407 7.10338 10.2061 7.09925 10.5522 6.74802C10.6822 6.61613 10.7679 6.4471 10.7976 6.26432C11.2823 3.34836 14.039 1.37746 16.955 1.86215C19.871 2.34684 21.8419 5.1036 21.3572 8.01956C21.3283 8.19342 21.2908 8.36574 21.2449 8.53591C21.1948 8.7176 21.2036 8.91046 21.2698 9.08689C21.3361 9.26332 21.4564 9.41426 21.6137 9.51811C23.2574 10.6087 23.7057 12.8254 22.6151 14.4691C22.29 14.9589 21.8491 15.361 21.3314 15.6395C20.8138 15.9181 20.2353 16.0646 19.6475 16.066H16.9687C16.4755 16.066 16.0757 16.4658 16.0757 16.9589C16.0757 17.4521 16.4755 17.8519 16.9687 17.8519H19.6475C22.6064 17.8491 25.0028 15.4481 25 12.4892C24.9992 11.7111 24.829 10.9425 24.5011 10.2368C24.1732 9.5311 23.6956 8.90532 23.1013 8.40296Z" fill="#212427" fill-opacity="0.9"/>
<path id="Vector_2" d="M18.4733 19.0061C18.1272 18.672 17.5787 18.672 17.2327 19.0061L14.2904 21.9466V8.92225C14.2904 8.42908 13.8907 8.0293 13.3975 8.0293C12.9043 8.0293 12.5045 8.42908 12.5045 8.92225V21.9465L9.5641 19.0061C9.20937 18.6635 8.6441 18.6733 8.30151 19.028C7.96729 19.374 7.96729 19.9226 8.30151 20.2687L12.7661 24.7333C13.1144 25.0824 13.6798 25.0832 14.0289 24.7349L14.0306 24.7333L18.4952 20.2687C18.8379 19.914 18.828 19.3487 18.4733 19.0061Z" fill="#212427" fill-opacity="0.9"/>
</g>
</g>
<defs>
<clipPath id="clip0_2337_1198">
<rect width="25" height="25" fill="white"/>
</clipPath>
</defs>
</svg>
