<svg width="12" height="7" viewBox="0 0 12 7" fill="none" xmlns="http://www.w3.org/2000/svg">
<path d="M0.910859 0H11.0891C11.2693 3.84686e-05 11.4454 0.0534915 11.5952 0.153602C11.745 0.253712 11.8617 0.395985 11.9307 0.562435C11.9996 0.728884 12.0176 0.912035 11.9825 1.08874C11.9474 1.26544 11.8606 1.42775 11.7333 1.55517L6.64411 6.64431C6.47327 6.8151 6.24158 6.91105 6 6.91105C5.75842 6.91105 5.52673 6.8151 5.35589 6.64431L0.266744 1.55517C0.139371 1.42775 0.0526324 1.26544 0.0174953 1.08874C-0.0176418 0.912035 0.000400064 0.728884 0.0693395 0.562435C0.138279 0.395985 0.255021 0.253712 0.404807 0.153602C0.554593 0.0534915 0.730698 3.84686e-05 0.910859 0Z" fill="#00A0DC" fill-opacity="0.5"/>
</svg>
