<svg width="30" height="30" viewBox="0 0 30 30" fill="none" xmlns="http://www.w3.org/2000/svg">
<g clip-path="url(#clip0_225_337)">
<path opacity="0.5" d="M15 30C23.2843 30 30 23.2843 30 15C30 6.71573 23.2843 0 15 0C6.71573 0 0 6.71573 0 15C0 23.2843 6.71573 30 15 30Z" fill="#BAB0B0" fill-opacity="0.3"/>
<path d="M6 19.5993V12.242C6 12.1305 6.11735 12.058 6.21708 12.1078L14.2584 16.1285C15.1029 16.5508 16.0971 16.5508 16.9416 16.1285L24.9829 12.1078C25.0827 12.058 25.2 12.1305 25.2 12.242V19.5993C25.2 20.7039 24.3046 21.5993 23.2 21.5993H8C6.89543 21.5993 6 20.7039 6 19.5993Z" fill="#222222"/>
<path d="M6 9.19922V10.7065C6 10.7633 6.0321 10.8152 6.08292 10.8407L14.2584 14.9284C15.1029 15.3507 16.0971 15.3507 16.9416 14.9284L25.1171 10.8407C25.1679 10.8152 25.2 10.7633 25.2 10.7065V9.19922C25.2 8.09465 24.3046 7.19922 23.2 7.19922H8C6.89543 7.19922 6 8.09465 6 9.19922Z" fill="#45ED89" fill-opacity="0.25"/>
</g>
<defs>
<clipPath id="clip0_225_337">
<rect width="30" height="30" fill="white"/>
</clipPath>
</defs>
</svg>
