<svg width="36" height="36" viewBox="0 0 36 36" fill="none" xmlns="http://www.w3.org/2000/svg">
<circle cx="18" cy="18" r="18" fill="#F3F3F3"/>
<path d="M18.21 28.42C16.1907 28.42 14.2167 27.8212 12.5376 26.6993C10.8586 25.5774 9.54996 23.9828 8.77719 22.1172C8.00442 20.2516 7.80223 18.1987 8.19619 16.2181C8.59014 14.2376 9.56255 12.4183 10.9904 10.9904C12.4183 9.56255 14.2376 8.59014 16.2181 8.19619C18.1987 7.80223 20.2516 8.00442 22.1172 8.77719C23.9828 9.54996 25.5774 10.8586 26.6993 12.5376C27.8212 14.2167 28.42 16.1907 28.42 18.21C28.4171 20.917 27.3404 23.5122 25.4263 25.4263C23.5122 27.3404 20.917 28.4171 18.21 28.42ZM18.21 9.70167C16.5272 9.70167 14.8822 10.2007 13.483 11.1356C12.0838 12.0705 10.9933 13.3993 10.3493 14.954C9.70535 16.5087 9.53686 18.2194 9.86516 19.8699C10.1935 21.5203 11.0038 23.0364 12.1937 24.2263C13.3836 25.4162 14.8997 26.2266 16.5501 26.5548C18.2006 26.8831 19.9113 26.7147 21.466 26.0707C23.0207 25.4267 24.3495 24.3362 25.2844 22.937C26.2193 21.5378 26.7183 19.8928 26.7183 18.21C26.7159 15.9542 25.8186 13.7915 24.2236 12.1964C22.6285 10.6014 20.4658 9.70415 18.21 9.70167ZM23.0308 21.3972C23.1994 21.2472 23.3014 21.0363 23.3145 20.811C23.3276 20.5857 23.2507 20.3644 23.1006 20.1958C22.9505 20.0273 22.7397 19.9252 22.5144 19.9121C22.2891 19.8991 22.0678 19.976 21.8992 20.1261C20.8591 21.0018 19.5667 21.5228 18.21 21.6133C16.8541 21.5229 15.5624 21.0025 14.5225 20.1278C14.3542 19.9775 14.133 19.9002 13.9077 19.913C13.6824 19.9258 13.4714 20.0275 13.3211 20.1958C13.1708 20.3642 13.0936 20.5853 13.1063 20.8106C13.1191 21.0359 13.2208 21.2469 13.3892 21.3972C14.7402 22.5514 16.4353 23.2258 18.21 23.315C19.9847 23.2258 21.6798 22.5514 23.0308 21.3972ZM13.105 16.5083C13.105 17.3592 13.8665 17.3592 14.8067 17.3592C15.7468 17.3592 16.5083 17.3592 16.5083 16.5083C16.5083 16.057 16.3291 15.6242 16.0099 15.3051C15.6908 14.986 15.258 14.8067 14.8067 14.8067C14.3554 14.8067 13.9225 14.986 13.6034 15.3051C13.2843 15.6242 13.105 16.057 13.105 16.5083ZM19.9117 16.5083C19.9117 17.3592 20.6732 17.3592 21.6133 17.3592C22.5535 17.3592 23.315 17.3592 23.315 16.5083C23.315 16.057 23.1357 15.6242 22.8166 15.3051C22.4975 14.986 22.0646 14.8067 21.6133 14.8067C21.162 14.8067 20.7292 14.986 20.4101 15.3051C20.091 15.6242 19.9117 16.057 19.9117 16.5083Z" fill="#4062BB" fill-opacity="0.61"/>
</svg>
