<svg width="36" height="36" viewBox="0 0 36 36" fill="none" xmlns="http://www.w3.org/2000/svg">
<circle cx="18" cy="18" r="18" fill="white"/>
<path d="M18.2685 8.05957C16.2494 8.05957 14.2756 8.65832 12.5967 9.78009C10.9179 10.9019 9.60938 12.4963 8.83669 14.3617C8.06399 16.2272 7.86182 18.2799 8.25574 20.2602C8.64965 22.2405 9.62196 24.0596 11.0497 25.4873C12.4775 26.9151 14.2965 27.8874 16.2769 28.2813C18.2572 28.6752 20.3099 28.4731 22.1753 27.7004C24.0408 26.9277 25.6352 25.6192 26.757 23.9403C27.8787 22.2615 28.4775 20.2877 28.4775 18.2685C28.4746 15.5618 27.398 12.9669 25.4841 11.0529C23.5702 9.13902 20.9752 8.0625 18.2685 8.05957ZM18.2685 26.776C16.5859 26.776 14.9411 26.277 13.542 25.3422C12.143 24.4074 11.0526 23.0787 10.4087 21.5242C9.76475 19.9697 9.59627 18.2591 9.92454 16.6088C10.2528 14.9585 11.0631 13.4426 12.2528 12.2528C13.4426 11.0631 14.9585 10.2528 16.6088 9.92453C18.2591 9.59627 19.9697 9.76475 21.5242 10.4087C23.0787 11.0526 24.4074 12.143 25.3422 13.542C26.277 14.9411 26.776 16.5859 26.776 18.2685C26.7735 20.5241 25.8764 22.6866 24.2815 24.2815C22.6866 25.8764 20.5241 26.7735 18.2685 26.776ZM14.0148 16.1417C14.0148 14.9668 14.5865 14.0148 15.2909 14.0148C15.9953 14.0148 16.567 14.9668 16.567 16.1417C16.567 17.3165 15.9953 18.2685 15.2909 18.2685C14.5865 18.2685 14.0148 17.3165 14.0148 16.1417ZM19.97 16.1417C19.97 14.9668 20.5417 14.0148 21.2461 14.0148C21.9506 14.0148 22.5223 14.9668 22.5223 16.1417C22.5223 17.3165 21.9506 18.2685 21.2461 18.2685C20.5417 18.2685 19.97 17.3165 19.97 16.1417ZM18.2685 20.8208C20.0033 20.7763 21.7234 20.49 23.379 19.97C22.8558 21.9097 21.1126 24.2238 18.2745 24.2238C15.4364 24.2238 13.6873 21.9097 13.1641 19.97C14.8175 20.4903 16.5357 20.7767 18.2685 20.8208Z" fill="#454545"/>
</svg>
