<svg width="13" height="12" viewBox="0 0 13 12" fill="none" xmlns="http://www.w3.org/2000/svg">
<path d="M1 5.61C1 5.04051 1 4.75576 1.11259 4.53903C1.20746 4.35638 1.35638 4.20746 1.53903 4.11259C1.75576 4 2.04051 4 2.61 4H10.39C10.9595 4 11.2442 4 11.461 4.11259C11.6436 4.20746 11.7925 4.35638 11.8874 4.53903C12 4.75576 12 5.04051 12 5.61V9.14C12 9.70949 12 9.99424 11.8874 10.211C11.7925 10.3936 11.6436 10.5425 11.461 10.6374C11.2442 10.75 10.9595 10.75 10.39 10.75H2.61C2.04051 10.75 1.75576 10.75 1.53903 10.6374C1.35638 10.5425 1.20746 10.3936 1.11259 10.211C1 9.99424 1 9.70949 1 9.14V5.61Z" stroke="#222222" stroke-width="0.7"/>
<path d="M3.0625 2.127C3.0625 1.72836 3.0625 1.52903 3.14131 1.37732C3.20772 1.24947 3.31197 1.14522 3.43982 1.07881C3.59153 1 3.79086 1 4.1895 1H8.8105C9.20914 1 9.40847 1 9.56018 1.07881C9.68803 1.14522 9.79228 1.24947 9.85869 1.37732C9.9375 1.52903 9.9375 1.72836 9.9375 2.127V2.873C9.9375 3.27164 9.9375 3.47097 9.85869 3.62268C9.79228 3.75053 9.68803 3.85478 9.56018 3.92119C9.40847 4 9.20914 4 8.8105 4H4.1895C3.79086 4 3.59153 4 3.43982 3.92119C3.31197 3.85478 3.20772 3.75053 3.14131 3.62268C3.0625 3.47097 3.0625 3.27164 3.0625 2.873V2.127Z" stroke="#222222" stroke-width="0.7"/>
</svg>
