<svg width="10" height="10" viewBox="0 0 10 10" fill="none" xmlns="http://www.w3.org/2000/svg">
<g clip-path="url(#clip0_3592_923)">
<path d="M4.75003 2.99609L1.3619 5.78925C1.3619 5.79319 1.36091 5.79899 1.35893 5.80689C1.35699 5.81474 1.35596 5.82043 1.35596 5.82448V8.65284C1.35596 8.75496 1.39329 8.84346 1.46794 8.91799C1.54257 8.99255 1.63095 9.03008 1.73309 9.03008H3.99572V6.76732H5.50436V9.03016H7.76697C7.86909 9.03016 7.95759 8.99272 8.03212 8.91799C8.10677 8.84354 8.14422 8.75498 8.14422 8.65284V5.82448C8.14422 5.80879 8.14208 5.79694 8.13828 5.78925L4.75003 2.99609Z" fill="#00A0DC"/>
<path d="M9.43446 5.15284L8.14408 4.08041V1.67626C8.14408 1.62129 8.12642 1.5761 8.09096 1.54072C8.05579 1.50539 8.01059 1.48772 7.95551 1.48772H6.82417C6.76915 1.48772 6.72397 1.50539 6.68857 1.54072C6.65326 1.5761 6.63561 1.62132 6.63561 1.67626V2.82528L5.19787 1.62317C5.07231 1.52103 4.92301 1.46997 4.75013 1.46997C4.57728 1.46997 4.428 1.52103 4.30231 1.62317L0.0654778 5.15284C0.0262021 5.18421 0.00467587 5.22644 0.000671947 5.27948C-0.00331134 5.33248 0.0104135 5.37877 0.0418876 5.41803L0.407215 5.85409C0.438689 5.88942 0.479884 5.91103 0.530965 5.91893C0.578125 5.9229 0.625285 5.90911 0.672444 5.8777L4.75001 2.47762L8.82762 5.87768C8.85911 5.90509 8.90029 5.91877 8.95137 5.91877H8.96908C9.02008 5.91101 9.06119 5.88926 9.09283 5.854L9.4582 5.41801C9.48961 5.37867 9.50337 5.33246 9.49929 5.2794C9.49526 5.2265 9.47365 5.18427 9.43446 5.15284Z" fill="#00A0DC"/>
</g>
<defs>
<clipPath id="clip0_3592_923">
<rect width="9.5" height="9.5" fill="white" transform="translate(0 0.5)"/>
</clipPath>
</defs>
</svg>
