<svg width="18" height="18" viewBox="0 0 18 18" fill="none" xmlns="http://www.w3.org/2000/svg">
<g opacity="0.6">
<path d="M6 15L5.46967 15.5303L6 16.0607L6.53033 15.5303L6 15ZM7.5 3.75C7.91421 3.75 8.25 3.41421 8.25 3C8.25 2.58579 7.91421 2.25 7.5 2.25L7.5 3.75ZM2.46967 12.5303L5.46967 15.5303L6.53033 14.4697L3.53033 11.4697L2.46967 12.5303ZM6.53033 15.5303L9.53033 12.5303L8.46967 11.4697L5.46967 14.4697L6.53033 15.5303ZM6.75 15L6.75 4.5L5.25 4.5L5.25 15L6.75 15ZM6.75 4.5C6.75 4.08579 7.08579 3.75 7.5 3.75L7.5 2.25C6.25736 2.25 5.25 3.25736 5.25 4.5L6.75 4.5Z" fill="#33363F"/>
<path d="M12 3L11.4697 2.46967L12 1.93934L12.5303 2.46967L12 3ZM12 14.25L11.25 14.25L12 14.25ZM10.5 16.5C10.0858 16.5 9.75 16.1642 9.75 15.75C9.75 15.3358 10.0858 15 10.5 15L10.5 16.5ZM8.46967 5.46967L11.4697 2.46967L12.5303 3.53033L9.53033 6.53033L8.46967 5.46967ZM12.5303 2.46967L15.5303 5.46967L14.4697 6.53033L11.4697 3.53033L12.5303 2.46967ZM12.75 3L12.75 14.25L11.25 14.25L11.25 3L12.75 3ZM12.75 14.25C12.75 15.4926 11.7426 16.5 10.5 16.5L10.5 15C10.9142 15 11.25 14.6642 11.25 14.25L12.75 14.25Z" fill="#33363F"/>
</g>
</svg>
