<svg width="26" height="26" viewBox="0 0 26 26" fill="none" xmlns="http://www.w3.org/2000/svg">
<path d="M20.6225 18.4166C21.3918 18.9107 21.7969 19.4711 21.7969 20.0416C21.7969 20.6121 21.3918 21.1726 20.6225 21.6666C19.8532 22.1607 18.7466 22.571 17.4141 22.8562C16.0815 23.1415 14.5699 23.2916 13.0313 23.2916C11.4926 23.2916 9.98098 23.1415 8.64844 22.8562C7.31589 22.571 6.20934 22.1607 5.44 21.6666C4.67065 21.1726 4.26563 20.6121 4.26563 20.0416C4.26562 19.4711 4.67065 18.9107 5.44 18.4166" stroke="#222222" stroke-opacity="0.6" stroke-width="0.7" stroke-linecap="round"/>
<path d="M20.7656 10.8334C20.7656 16.2659 15.1134 19.9313 13.4727 20.8809C13.1959 21.0411 12.8666 21.0411 12.5898 20.8809C10.9491 19.9313 5.29688 16.2659 5.29688 10.8334C5.29688 5.95837 9.04444 2.70837 13.0312 2.70837C17.1562 2.70837 20.7656 5.95837 20.7656 10.8334Z" stroke="#222222" stroke-opacity="0.6" stroke-width="0.7"/>
<path d="M16.8063 10.8333C16.8063 13.0497 15.1001 14.8167 13.0312 14.8167C10.9624 14.8167 9.25625 13.0497 9.25625 10.8333C9.25625 8.61695 10.9624 6.85 13.0312 6.85C15.1001 6.85 16.8063 8.61695 16.8063 10.8333Z" stroke="#222222" stroke-opacity="0.6" stroke-width="0.7"/>
</svg>
