<svg width="10" height="14" viewBox="0 0 10 14" fill="none" xmlns="http://www.w3.org/2000/svg">
<path d="M4.75011 3.3375H4.75C4.32229 3.3375 3.9042 3.46433 3.54858 3.70195C3.19296 3.93956 2.91579 4.2773 2.75211 4.67244C2.58844 5.06759 2.54561 5.50239 2.62905 5.92188C2.71249 6.34136 2.91845 6.72668 3.22088 7.02911C3.52331 7.33154 3.90863 7.5375 4.32811 7.62094C4.7476 7.70438 5.1824 7.66155 5.57755 7.49788C5.97269 7.33421 6.31043 7.05703 6.54804 6.70141C6.78566 6.34579 6.91249 5.9277 6.91249 5.5L6.91249 5.49989C6.91187 4.92658 6.68384 4.37693 6.27845 3.97154C5.87306 3.56615 5.32341 3.33812 4.75011 3.3375ZM4.74989 7.08749C4.43595 7.08747 4.12906 6.99437 3.86803 6.81995C3.60697 6.64551 3.40349 6.39758 3.28334 6.1075C3.16319 5.81743 3.13175 5.49823 3.193 5.19029C3.25426 4.88235 3.40545 4.59948 3.62747 4.37747C3.84948 4.15545 4.13235 4.00426 4.44029 3.943C4.74823 3.88175 5.06743 3.91319 5.3575 4.03334C5.64758 4.15349 5.89551 4.35697 6.06995 4.61803C6.24437 4.87906 6.33747 5.18595 6.33749 5.49988C6.33703 5.9208 6.16961 6.32434 5.87198 6.62198C5.57434 6.91961 5.1708 7.08702 4.74989 7.08749Z" fill="#797979" stroke="#797979" stroke-width="0.2"/>
<path d="M4.7501 0.9L4.74988 0.9C3.53033 0.90137 2.36113 1.38644 1.49879 2.24879C0.636438 3.11113 0.15137 4.28033 0.15 5.49988V5.49999C0.15 6.32804 0.418248 7.20192 0.817388 8.04537C1.21692 8.88964 1.75052 9.7095 2.28808 10.4312C3.36314 11.8745 4.46024 12.9332 4.55133 13.0203C4.60482 13.0715 4.67598 13.1 4.74999 13.1C4.824 13.1 4.89515 13.0715 4.94865 13.0203C5.03974 12.9332 6.13684 11.8745 7.2119 10.4312C7.74946 9.7095 8.28306 8.88964 8.68259 8.04537C9.08173 7.20192 9.34998 6.32804 9.34998 5.49999V5.49988C9.34861 4.28033 8.86354 3.11113 8.00119 2.24879C7.13885 1.38644 5.96965 0.90137 4.7501 0.9ZM4.74999 0.999894L4.74999 1L4.74999 0.999894ZM4.74997 12.4067C4.34313 11.9935 3.38275 10.9764 2.50143 9.73477C1.56045 8.4091 0.724999 6.84836 0.724999 5.49999C0.724999 4.4325 1.14906 3.40872 1.90389 2.65389C2.65872 1.89906 3.6825 1.475 4.74999 1.475C5.81748 1.475 6.84126 1.89906 7.59609 2.65389C8.35092 3.40872 8.77498 4.4325 8.77498 5.49999C8.77498 6.8477 7.93954 8.40834 6.99855 9.73414C6.11721 10.9759 5.15681 11.9933 4.74997 12.4067Z" fill="#797979" stroke="#797979" stroke-width="0.2"/>
</svg>
