<svg width="20" height="20" viewBox="0 0 20 20" fill="none" xmlns="http://www.w3.org/2000/svg">
<path d="M17.3755 3.07324L17.3755 3.07326C18.3574 4.20851 18.9322 6.43594 18.9322 8.82541C18.9322 11.2149 18.3574 13.4426 17.3755 14.5784L17.3754 14.5784C16.6893 15.3722 15.5256 15.9608 14.0937 16.3436C12.6841 16.7203 11.1061 16.8731 9.6918 16.8664C9.46689 16.8572 9.24498 16.922 9.06015 17.0509L6.03872 19.0661L6.03784 19.0667C5.90752 19.1539 5.75742 19.207 5.60128 19.2212C5.44514 19.2353 5.28793 19.2101 5.14406 19.1478C5.00019 19.0855 4.87425 18.9881 4.77776 18.8645C4.68127 18.7409 4.61731 18.5951 4.59175 18.4404L4.59157 18.4394L4.25489 16.4193C4.23208 16.2598 4.17509 16.107 4.08774 15.9715C3.99662 15.8301 3.8748 15.711 3.73134 15.6232L3.70324 15.606L3.67378 15.5913C3.16549 15.3367 2.7085 14.9906 2.32566 14.5704C1.34747 13.4331 0.775 11.2098 0.775 8.82541C0.775 6.43614 1.34981 4.20904 2.33153 3.07429L2.33176 3.07403C3.0051 2.29503 4.14959 1.70826 5.55208 1.32081C6.9381 0.937907 8.48464 0.775 9.85358 0.775C11.2225 0.775 12.7691 0.937906 14.1551 1.32071C15.5577 1.70806 16.7022 2.29464 17.3755 3.07324Z" stroke="#454545" stroke-width="1.55"/>
<path d="M9.85389 13.1106C9.60728 13.1104 9.37083 13.0123 9.19645 12.8379C9.02206 12.6635 8.92399 12.4271 8.92374 12.1805V4.73924C8.92374 4.49254 9.02174 4.25596 9.19618 4.08152C9.37061 3.90708 9.6072 3.80908 9.85389 3.80908C10.1006 3.80908 10.3372 3.90708 10.5116 4.08152C10.686 4.25596 10.784 4.49254 10.784 4.73924V12.1805C10.7838 12.4271 10.6857 12.6635 10.5113 12.8379C10.337 13.0123 10.1005 13.1104 9.85389 13.1106ZM6.13328 11.2503C5.88666 11.2501 5.65022 11.152 5.47583 10.9776C5.30145 10.8032 5.20337 10.5668 5.20312 10.3202V6.59954C5.20312 6.35285 5.30112 6.11626 5.47556 5.94183C5.65 5.76739 5.88659 5.66939 6.13328 5.66939C6.37997 5.66939 6.61656 5.76739 6.791 5.94183C6.96543 6.11626 7.06343 6.35285 7.06343 6.59954V10.3202C7.06319 10.5668 6.96511 10.8032 6.79073 10.9776C6.61634 11.152 6.3799 11.2501 6.13328 11.2503ZM13.5745 11.2503C13.3279 11.2501 13.0914 11.152 12.9171 10.9776C12.7427 10.8032 12.6446 10.5668 12.6444 10.3202V6.59954C12.6444 6.35285 12.7424 6.11626 12.9168 5.94183C13.0912 5.76739 13.3278 5.66939 13.5745 5.66939C13.8212 5.66939 14.0578 5.76739 14.2322 5.94183C14.4067 6.11626 14.5047 6.35285 14.5047 6.59954V10.3202C14.5044 10.5668 14.4063 10.8032 14.232 10.9776C14.0576 11.152 13.8211 11.2501 13.5745 11.2503Z" fill="#454545"/>
</svg>
