<svg width="20" height="20" viewBox="0 0 20 20" fill="none" xmlns="http://www.w3.org/2000/svg">
<path d="M17.9617 2.56629C16.3256 0.674362 12.6999 0 9.85358 0C7.00731 0 3.38157 0.674361 1.74543 2.56722C-0.581811 5.25723 -0.581811 12.3934 1.74543 15.0843C2.19389 15.5785 2.73002 15.9853 3.32669 16.2842C3.37081 16.3112 3.40827 16.3478 3.43629 16.3913C3.46431 16.4348 3.48217 16.484 3.48854 16.5353L3.82712 18.5668C3.87382 18.8494 3.99064 19.1157 4.16691 19.3415C4.34317 19.5672 4.57324 19.7451 4.83606 19.859C5.09887 19.9728 5.38604 20.0189 5.67128 19.993C5.95651 19.9671 6.2307 19.8701 6.46875 19.7109L9.4992 17.6897C9.54837 17.6538 9.60873 17.6367 9.66941 17.6413C12.6106 17.658 16.2958 17.0125 17.9617 15.0852C20.289 12.3934 20.289 5.25723 17.9617 2.56629Z" fill="#00A0DC"/>
<path d="M9.85389 13.1106C9.60728 13.1104 9.37083 13.0123 9.19645 12.8379C9.02206 12.6635 8.92399 12.4271 8.92374 12.1805V4.73924C8.92374 4.49254 9.02174 4.25596 9.19618 4.08152C9.37061 3.90708 9.6072 3.80908 9.85389 3.80908C10.1006 3.80908 10.3372 3.90708 10.5116 4.08152C10.686 4.25596 10.784 4.49254 10.784 4.73924V12.1805C10.7838 12.4271 10.6857 12.6635 10.5113 12.8379C10.337 13.0123 10.1005 13.1104 9.85389 13.1106ZM6.13328 11.2503C5.88666 11.2501 5.65022 11.152 5.47583 10.9776C5.30145 10.8032 5.20337 10.5668 5.20312 10.3202V6.59954C5.20312 6.35285 5.30112 6.11626 5.47556 5.94183C5.65 5.76739 5.88659 5.66939 6.13328 5.66939C6.37997 5.66939 6.61656 5.76739 6.791 5.94183C6.96543 6.11626 7.06343 6.35285 7.06343 6.59954V10.3202C7.06319 10.5668 6.96511 10.8032 6.79073 10.9776C6.61634 11.152 6.3799 11.2501 6.13328 11.2503ZM13.5745 11.2503C13.3279 11.2501 13.0914 11.152 12.9171 10.9776C12.7427 10.8032 12.6446 10.5668 12.6444 10.3202V6.59954C12.6444 6.35285 12.7424 6.11626 12.9168 5.94183C13.0912 5.76739 13.3278 5.66939 13.5745 5.66939C13.8212 5.66939 14.0578 5.76739 14.2322 5.94183C14.4067 6.11626 14.5047 6.35285 14.5047 6.59954V10.3202C14.5044 10.5668 14.4063 10.8032 14.232 10.9776C14.0576 11.152 13.8211 11.2501 13.5745 11.2503Z" fill="white"/>
</svg>
