<svg width="38" height="38" viewBox="0 0 38 38" fill="none" xmlns="http://www.w3.org/2000/svg">
<circle cx="19" cy="19" r="19" fill="#00A0DC" fill-opacity="0.7"/>
<g clip-path="url(#clip0_536_2216)">
<path d="M21.5002 9H16.5002C15.3955 9.00132 14.3365 9.44073 13.5553 10.2218C12.7742 11.003 12.3348 12.062 12.3335 13.1667V22.3333H25.6668V13.1667C25.6655 12.062 25.2261 11.003 24.445 10.2218C23.6639 9.44073 22.6048 9.00132 21.5002 9ZM12.3335 24.8333C12.3348 25.938 12.7742 26.997 13.5553 27.7782C14.3365 28.5593 15.3955 28.9987 16.5002 29H21.5002C22.6048 28.9987 23.6639 28.5593 24.445 27.7782C25.2261 26.997 25.6655 25.938 25.6668 24.8333V24H12.3335V24.8333ZM19.0002 25.6667C19.165 25.6667 19.3261 25.7155 19.4631 25.8071C19.6002 25.8987 19.707 26.0288 19.7701 26.1811C19.8331 26.3334 19.8496 26.5009 19.8175 26.6626C19.7853 26.8242 19.706 26.9727 19.5894 27.0893C19.4729 27.2058 19.3244 27.2852 19.1627 27.3173C19.0011 27.3495 18.8335 27.333 18.6813 27.2699C18.529 27.2068 18.3988 27.1 18.3073 26.963C18.2157 26.8259 18.1668 26.6648 18.1668 26.5C18.1668 26.279 18.2546 26.067 18.4109 25.9107C18.5672 25.7545 18.7791 25.6667 19.0002 25.6667Z" fill="white"/>
</g>
<defs>
<clipPath id="clip0_536_2216">
<rect width="20" height="20" fill="white" transform="translate(9 9)"/>
</clipPath>
</defs>
</svg>
