<svg width="19" height="19" viewBox="0 0 19 19" fill="none" xmlns="http://www.w3.org/2000/svg">
<path d="M15.252 9.75464V7.97852C15.252 5.38747 13.5297 3.19137 11.17 2.47408V1.66992C11.17 0.749127 10.4209 0 9.50007 0C8.57927 0 7.83014 0.749127 7.83014 1.66992V2.47408C5.47036 3.19137 3.74811 5.38743 3.74811 7.97852V9.75464C3.74811 12.0306 2.88057 14.1888 1.30532 15.8315C1.22979 15.9103 1.17906 16.0095 1.15945 16.1168C1.13984 16.2241 1.15221 16.3349 1.19502 16.4352C1.23783 16.5356 1.3092 16.6211 1.40024 16.6813C1.49128 16.7414 1.59799 16.7735 1.7071 16.7734H6.77286C7.03144 18.0423 8.156 19 9.50007 19C10.8442 19 11.9687 18.0423 12.2273 16.7734H17.293C17.4021 16.7734 17.5088 16.7414 17.5999 16.6812C17.6909 16.6211 17.7622 16.5356 17.8051 16.4352C17.8479 16.3348 17.8602 16.2241 17.8406 16.1168C17.821 16.0095 17.7703 15.9103 17.6948 15.8315C16.1196 14.1888 15.252 12.0306 15.252 9.75464ZM8.94343 1.66992C8.94343 1.36299 9.19313 1.11328 9.50007 1.11328C9.807 1.11328 10.0567 1.36299 10.0567 1.66992V2.25358C9.8735 2.23591 9.68784 2.22656 9.50007 2.22656C9.31229 2.22656 9.12663 2.23591 8.94343 2.25358V1.66992ZM9.50007 17.8867C8.77439 17.8867 8.15567 17.4213 7.92589 16.7734H11.0742C10.8445 17.4213 10.2257 17.8867 9.50007 17.8867ZM2.90684 15.6602C4.17454 13.9608 4.86139 11.9044 4.86139 9.75464V7.97852C4.86139 5.42075 6.9423 3.33984 9.50007 3.33984C12.0578 3.33984 14.1387 5.42075 14.1387 7.97852V9.75464C14.1387 11.9044 14.8256 13.9608 16.0933 15.6602H2.90684ZM16.7364 7.97852C16.7364 8.28593 16.9856 8.53516 17.293 8.53516C17.6004 8.53516 17.8497 8.28593 17.8497 7.97852C17.8497 5.74824 16.9812 3.65145 15.4041 2.07441C15.1868 1.85706 14.8343 1.85703 14.6169 2.07441C14.3995 2.2918 14.3995 2.64423 14.6169 2.86162C15.9837 4.22839 16.7364 6.0456 16.7364 7.97852ZM1.7071 8.53516C2.01451 8.53516 2.26374 8.28593 2.26374 7.97852C2.26374 6.04564 3.01647 4.22843 4.3832 2.86165C4.60059 2.64427 4.60059 2.29184 4.3832 2.07445C4.16585 1.85706 3.81339 1.85706 3.596 2.07445C2.01897 3.65149 1.15046 5.74824 1.15046 7.97852C1.15046 8.28593 1.39968 8.53516 1.7071 8.53516Z" fill="#00A0DC" fill-opacity="0.9"/>
</svg>
