<svg width="22" height="22" viewBox="0 0 22 22" fill="none" xmlns="http://www.w3.org/2000/svg">
<circle cx="11" cy="11" r="11" fill="white"/>
<path d="M11.1667 20.3333C16.2293 20.3333 20.3333 16.2293 20.3333 11.1667C20.3333 6.10406 16.2293 2 11.1667 2C6.10406 2 2 6.10406 2 11.1667C2 16.2293 6.10406 20.3333 11.1667 20.3333Z" fill="#00A0DC"/>
<path d="M6.81264 17.0379L8.27106 16.8757C8.58112 16.8409 8.87021 16.7019 9.09101 16.4815L15.3473 10.2271L16.6439 8.93044C16.9017 8.67259 17.0465 8.32292 17.0465 7.95832C17.0465 7.59372 16.9017 7.24404 16.6439 6.98619L15.3473 5.68957C15.0894 5.4318 14.7397 5.28699 14.3751 5.28699C14.0105 5.28699 13.6609 5.4318 13.403 5.68957L12.1064 6.98619L5.85014 13.2406C5.6296 13.4615 5.49063 13.7508 5.45597 14.061L5.29556 15.5208C5.27417 15.7129 5.2935 15.9073 5.35229 16.0913C5.41108 16.2754 5.50801 16.445 5.63675 16.5891C5.76549 16.7332 5.92316 16.8485 6.09947 16.9276C6.27579 17.0067 6.46678 17.0477 6.66001 17.048C6.71103 17.0473 6.76198 17.0439 6.81264 17.0379ZM14.0497 6.33765C14.1357 6.25173 14.2522 6.20346 14.3738 6.20346C14.4953 6.20346 14.6119 6.25173 14.6978 6.33765L15.9944 7.63428C16.0804 7.72023 16.1286 7.83679 16.1286 7.95832C16.1286 8.07985 16.0804 8.19641 15.9944 8.28236L15.0218 9.25494L13.0771 7.31024L14.0497 6.33765ZM6.20672 15.6207L6.36851 14.1623C6.38006 14.0584 6.42642 13.9615 6.50006 13.8873L12.4304 7.95832L14.3751 9.90303L8.44476 15.8334C8.37045 15.9069 8.27359 15.9532 8.16976 15.9649L6.71135 16.1267C6.64337 16.134 6.57464 16.1259 6.51019 16.1031C6.44574 16.0803 6.3872 16.0434 6.33886 15.9951C6.29052 15.9467 6.25361 15.8882 6.23083 15.8237C6.20804 15.7593 6.19996 15.6905 6.20718 15.6226L6.20672 15.6207Z" fill="white"/>
</svg>
