<svg width="19" height="19" viewBox="0 0 19 19" fill="none" xmlns="http://www.w3.org/2000/svg">
<path d="M9.4998 15.6751C7.98857 15.6734 6.5397 15.0724 5.4711 14.0038C4.4025 12.9352 3.80144 11.4863 3.7998 9.97506V5.70006C3.7998 5.57408 3.84985 5.45327 3.93893 5.36419C4.02801 5.27511 4.14883 5.22506 4.2748 5.22506C6.9272 5.22506 9.1806 3.44714 9.20293 3.42909C9.28714 3.36175 9.39175 3.32507 9.49957 3.32507C9.60738 3.32507 9.712 3.36175 9.7962 3.42909C9.81853 3.44666 12.0824 5.22506 14.7248 5.22506C14.8508 5.22506 14.9716 5.27511 15.0607 5.36419C15.1498 5.45327 15.1998 5.57408 15.1998 5.70006V9.97506C15.1982 11.4863 14.5971 12.9352 13.5285 14.0038C12.4599 15.0724 11.011 15.6734 9.4998 15.6751ZM4.7498 6.15891V9.97506C4.7498 11.2348 5.25025 12.443 6.14105 13.3338C7.03184 14.2246 8.24003 14.7251 9.4998 14.7251C10.7596 14.7251 11.9678 14.2246 12.8586 13.3338C13.7494 12.443 14.2498 11.2348 14.2498 9.97506V6.15891C12.54 5.99008 10.9034 5.38042 9.4998 4.38954C8.09625 5.38042 6.45957 5.99008 4.7498 6.15891Z" fill="#00A0DC" fill-opacity="0.9"/>
<path d="M9.02492 12.1129C8.89896 12.1129 8.77816 12.0628 8.6891 11.9737L6.7891 10.0737C6.70257 9.98415 6.6547 9.86417 6.65578 9.73962C6.65686 9.61508 6.70682 9.49594 6.79489 9.40787C6.88296 9.31981 7.00209 9.26985 7.12663 9.26877C7.25118 9.26769 7.37116 9.31556 7.46075 9.40209L9.02492 10.9663L12.0141 7.97709C12.1037 7.89056 12.2237 7.84269 12.3482 7.84377C12.4728 7.84485 12.5919 7.89481 12.68 7.98287C12.768 8.07094 12.818 8.19008 12.8191 8.31462C12.8202 8.43917 12.7723 8.55915 12.6858 8.64874L9.36075 11.9737C9.27169 12.0628 9.15089 12.1129 9.02492 12.1129Z" fill="#00A0DC" fill-opacity="0.9"/>
<path d="M9.5 19C7.62108 19 5.78435 18.4428 4.22209 17.399C2.65982 16.3551 1.44218 14.8714 0.723149 13.1355C0.0041162 11.3996 -0.184015 9.48946 0.182544 7.64665C0.549104 5.80383 1.45389 4.11109 2.78249 2.78249C4.11109 1.45389 5.80383 0.549104 7.64665 0.182544C9.48946 -0.184015 11.3996 0.0041162 13.1355 0.723149C14.8714 1.44218 16.3551 2.65982 17.399 4.22209C18.4428 5.78435 19 7.62108 19 9.5C18.9971 12.0187 17.9953 14.4334 16.2143 16.2143C14.4334 17.9953 12.0187 18.9971 9.5 19ZM9.5 0.950004C7.80897 0.950004 6.15592 1.45145 4.74988 2.39094C3.34384 3.33042 2.24796 4.66575 1.60083 6.22806C0.953705 7.79037 0.784386 9.50949 1.11429 11.168C1.44419 12.8266 2.2585 14.35 3.45424 15.5458C4.64998 16.7415 6.17344 17.5558 7.83198 17.8857C9.49052 18.2156 11.2096 18.0463 12.7719 17.3992C14.3343 16.752 15.6696 15.6562 16.6091 14.2501C17.5486 12.8441 18.05 11.191 18.05 9.5C18.0474 7.23321 17.1457 5.06002 15.5428 3.45716C13.94 1.85429 11.7668 0.952644 9.5 0.950004Z" fill="#00A0DC" fill-opacity="0.9"/>
</svg>
