<svg width="20" height="24" viewBox="0 0 20 24" fill="none" xmlns="http://www.w3.org/2000/svg">
<path d="M17.944 2.633L10 0L2.056 2.633C1.45747 2.83142 0.936683 3.21338 0.567602 3.72463C0.198521 4.23589 -8.26355e-05 4.85044 2.5793e-08 5.481V11.991C2.5793e-08 19.515 9.2 23.67 9.594 23.843L9.948 24L10.316 23.878C10.712 23.746 20 20.568 20 11.991V5.481C20.0001 4.85044 19.8015 4.23589 19.4324 3.72463C19.0633 3.21338 18.5425 2.83142 17.944 2.633ZM10.444 13.98C10.2692 14.156 10.0611 14.2955 9.83198 14.3904C9.6028 14.4854 9.35706 14.5338 9.109 14.533H9.076C8.82289 14.5291 8.5732 14.474 8.34202 14.3708C8.11084 14.2677 7.90298 14.1188 7.731 13.933L5.425 11.533L6.868 10.151L9.112 12.491L14.293 7.31L15.707 8.724L10.444 13.98Z" fill="#00A0DC" fill-opacity="0.7"/>
</svg>
