<svg width="24" height="24" viewBox="0 0 24 24" fill="none" xmlns="http://www.w3.org/2000/svg">
<path d="M0 4.17391V1.56522C0.000414373 1.15022 0.165454 0.752345 0.458899 0.458899C0.752345 0.165454 1.15022 0.000414373 1.56522 0H4.17391C4.31229 0 4.44499 0.0549688 4.54284 0.152814C4.64068 0.250659 4.69565 0.383365 4.69565 0.521739C4.69565 0.660113 4.64068 0.792819 4.54284 0.890664C4.44499 0.988509 4.31229 1.04348 4.17391 1.04348H1.56522C1.42689 1.04362 1.29426 1.09863 1.19644 1.19644C1.09863 1.29426 1.04362 1.42689 1.04348 1.56522V4.17391C1.04348 4.31229 0.988509 4.44499 0.890664 4.54284C0.792819 4.64068 0.660113 4.69565 0.521739 4.69565C0.383365 4.69565 0.250659 4.64068 0.152814 4.54284C0.0549688 4.44499 0 4.31229 0 4.17391ZM22.4348 0H19.8261C19.6877 0 19.555 0.0549688 19.4572 0.152814C19.3593 0.250659 19.3043 0.383365 19.3043 0.521739C19.3043 0.660113 19.3593 0.792819 19.4572 0.890664C19.555 0.988509 19.6877 1.04348 19.8261 1.04348H22.4348C22.5731 1.04362 22.7057 1.09863 22.8036 1.19644C22.9014 1.29426 22.9564 1.42689 22.9565 1.56522V4.17391C22.9565 4.31229 23.0115 4.44499 23.1093 4.54284C23.2072 4.64068 23.3399 4.69565 23.4783 4.69565C23.6166 4.69565 23.7493 4.64068 23.8472 4.54284C23.945 4.44499 24 4.31229 24 4.17391V1.56522C23.9996 1.15022 23.8345 0.752345 23.5411 0.458899C23.2477 0.165454 22.8498 0.000414373 22.4348 0ZM4.17391 22.9565H1.56522C1.42689 22.9564 1.29426 22.9014 1.19644 22.8036C1.09863 22.7057 1.04362 22.5731 1.04348 22.4348V19.8261C1.04348 19.6877 0.988509 19.555 0.890664 19.4572C0.792819 19.3593 0.660113 19.3043 0.521739 19.3043C0.383365 19.3043 0.250659 19.3593 0.152814 19.4572C0.0549688 19.555 0 19.6877 0 19.8261V22.4348C0.000414373 22.8498 0.165454 23.2477 0.458899 23.5411C0.752345 23.8345 1.15022 23.9996 1.56522 24H4.17391C4.31229 24 4.44499 23.945 4.54284 23.8472C4.64068 23.7493 4.69565 23.6166 4.69565 23.4783C4.69565 23.3399 4.64068 23.2072 4.54284 23.1093C4.44499 23.0115 4.31229 22.9565 4.17391 22.9565ZM23.4783 19.3043C23.3399 19.3043 23.2072 19.3593 23.1093 19.4572C23.0115 19.555 22.9565 19.6877 22.9565 19.8261V22.4348C22.9564 22.5731 22.9014 22.7057 22.8036 22.8036C22.7057 22.9014 22.5731 22.9564 22.4348 22.9565H19.8261C19.6877 22.9565 19.555 23.0115 19.4572 23.1093C19.3593 23.2072 19.3043 23.3399 19.3043 23.4783C19.3043 23.6166 19.3593 23.7493 19.4572 23.8472C19.555 23.945 19.6877 24 19.8261 24H22.4348C22.8498 23.9996 23.2477 23.8345 23.5411 23.5411C23.8345 23.2477 23.9996 22.8498 24 22.4348V19.8261C24 19.6877 23.945 19.555 23.8472 19.4572C23.7493 19.3593 23.6166 19.3043 23.4783 19.3043ZM19.3043 18.1315C19.3038 18.5807 19.1251 19.0115 18.8074 19.3291C18.4897 19.6468 18.059 19.8255 17.6097 19.8261H6.38974C5.94056 19.8254 5.50998 19.6466 5.19242 19.329C4.87485 19.0113 4.6962 18.5807 4.69565 18.1315V17.843C4.69817 16.3269 5.19415 14.8529 6.10861 13.6438C7.02307 12.4346 8.3063 11.556 9.76435 11.1407C9.33803 10.8062 8.99328 10.3792 8.75611 9.89191C8.51895 9.40466 8.39558 8.8699 8.3953 8.328V7.7593C8.41139 6.8139 8.79824 5.91266 9.4725 5.24977C10.1468 4.58688 11.0545 4.21542 12 4.21542C12.9455 4.21542 13.8532 4.58688 14.5275 5.24977C15.2018 5.91266 15.5886 6.8139 15.6047 7.7593V8.328C15.6043 8.86981 15.4809 9.40447 15.2438 9.89162C15.0066 10.3788 14.6619 10.8057 14.2357 11.1402C15.6938 11.5556 16.9771 12.4344 17.8916 13.6437C18.8061 14.8531 19.302 16.3273 19.3043 17.8435V18.1315ZM11.9802 10.8694H12.0198C12.6936 10.8686 13.3395 10.6005 13.8159 10.1241C14.2924 9.6477 14.5604 9.00176 14.5612 8.328V7.7593C14.5477 7.08898 14.2719 6.45067 13.7931 5.98139C13.3142 5.51211 12.6705 5.24926 12 5.24926C11.3295 5.24926 10.6858 5.51211 10.2069 5.98139C9.7281 6.45067 9.45231 7.08898 9.43878 7.7593V8.328C9.43961 9.00167 9.70756 9.64753 10.1839 10.1239C10.6602 10.6003 11.3065 10.8684 11.9802 10.8694ZM18.2609 17.8435C18.2591 16.2711 17.6337 14.7637 16.5219 13.6519C15.41 12.5401 13.9026 11.9147 12.3303 11.9129H11.6692C10.097 11.9147 8.58971 12.54 7.478 13.6517C6.36628 14.7635 5.74093 16.2708 5.73913 17.843V18.1315C5.73941 18.3041 5.8081 18.4695 5.93015 18.5916C6.0522 18.7136 6.21766 18.7823 6.39026 18.7826H17.6097C17.7823 18.7823 17.9478 18.7136 18.0699 18.5916C18.1919 18.4695 18.2606 18.3041 18.2609 18.1315V17.8435Z" fill="#212427" fill-opacity="0.5"/>
</svg>
