<svg width="14" height="11" viewBox="0 0 14 11" fill="none" xmlns="http://www.w3.org/2000/svg">
<path d="M6.02609 10.9999C5.98613 10.9999 5.94659 10.9921 5.90998 10.9769C5.87337 10.9618 5.84046 10.9396 5.81334 10.9119L0.0769759 5.04708C0.0387359 5.00798 0.0133851 4.95919 0.00402628 4.90669C-0.00533252 4.85418 0.00170654 4.80024 0.0242821 4.75145C0.0468576 4.70267 0.0839903 4.66116 0.131135 4.63202C0.178281 4.60287 0.233393 4.58735 0.289728 4.58735H3.0509C3.09235 4.58735 3.13333 4.59576 3.17105 4.61201C3.20878 4.62825 3.24238 4.65196 3.26959 4.68152L5.1867 6.76615C5.39389 6.34755 5.79497 5.65055 6.49879 4.80125C7.53929 3.54566 9.47465 1.69909 12.7859 0.0321357C12.8499 -7.62816e-05 12.9243 -0.00843656 12.9945 0.00870575C13.0647 0.0258481 13.1256 0.0672468 13.165 0.124727C13.2045 0.182208 13.2198 0.251592 13.2078 0.319178C13.1958 0.386765 13.1574 0.447642 13.1002 0.489787C13.0876 0.499125 11.8109 1.44937 10.3416 3.18991C8.98935 4.79164 7.19178 7.4107 6.30725 10.7919C6.29171 10.8513 6.25557 10.9041 6.2046 10.9418C6.15362 10.9795 6.09074 11 6.026 11L6.02609 10.9999Z" fill="#00A0DC"/>
</svg>
