<svg width="17" height="17" viewBox="0 0 17 17" fill="none" xmlns="http://www.w3.org/2000/svg">
<path d="M16.7446 12.821L10.0862 1.61516C9.75332 1.0485 9.1654 0.708496 8.49957 0.708496C7.83374 0.708496 7.24582 1.0485 6.91999 1.61516L0.25457 12.821C-0.0783464 13.4018 -0.0783464 14.0889 0.25457 14.6627C0.587487 15.2364 1.18249 15.5835 1.84124 15.5835H15.165C15.8308 15.5835 16.4258 15.2364 16.7517 14.6627C17.0775 14.0889 17.0775 13.4018 16.7446 12.821ZM15.5262 13.9543C15.4908 14.0181 15.3846 14.1597 15.165 14.1597H1.83415C1.61457 14.1597 1.50832 14.011 1.4729 13.9543C1.43749 13.8977 1.36665 13.7277 1.4729 13.5364L8.13832 2.33058C8.24457 2.14641 8.42874 2.12516 8.49957 2.12516C8.5704 2.12516 8.74749 2.14641 8.86082 2.33766L15.5192 13.5435C15.6325 13.7277 15.5546 13.8977 15.5192 13.9614L15.5262 13.9543ZM7.79124 5.66683H9.2079V9.91683H7.79124V5.66683ZM7.79124 11.3335H9.2079V12.7502H7.79124V11.3335Z" fill="#DC0000" fill-opacity="0.5"/>
</svg>
