<svg width="32" height="32" viewBox="0 0 32 32" fill="none" xmlns="http://www.w3.org/2000/svg">
<circle cx="16" cy="16" r="16" fill="#F2F2F2"/>
<path d="M20.3173 8.03516H11.704C11.068 8.03692 10.4585 8.29034 10.0088 8.74004C9.55914 9.18975 9.30571 9.79918 9.30396 10.4352V21.6352C9.30396 22.9618 10.384 24.0352 11.704 24.0352H17.564C18.1866 24.0352 18.7573 23.8132 19.2306 23.3552L22.004 20.6152C22.4565 20.1647 22.7129 19.5537 22.7173 18.9152V10.4352C22.7173 9.11516 21.6373 8.03516 20.3173 8.03516ZM15.2013 14.1298C15.0597 14.0059 14.9462 13.8531 14.8682 13.6819C14.7903 13.5106 14.7498 13.3247 14.7493 13.1365C14.7493 12.7829 14.8898 12.4437 15.1398 12.1937C15.3899 11.9436 15.729 11.8032 16.0826 11.8032C16.4362 11.8032 16.7754 11.9436 17.0254 12.1937C17.2755 12.4437 17.416 12.7829 17.416 13.1365C17.416 13.5338 17.2393 13.8858 16.9646 14.1298C17.3834 14.2774 17.7587 14.527 18.0566 14.8563C18.3545 15.1855 18.5655 15.5838 18.6706 16.0152C18.744 16.3178 18.4926 16.6045 18.1813 16.6045H13.984C13.672 16.6045 13.4213 16.3178 13.4946 16.0152C13.5997 15.5838 13.8108 15.1855 14.1087 14.8563C14.4066 14.527 14.7819 14.2774 15.2006 14.1298H15.2013ZM18.2186 19.9285H13.8026C13.6258 19.9285 13.4562 19.8583 13.3312 19.7332C13.2062 19.6082 13.136 19.4386 13.136 19.2618C13.136 19.085 13.2062 18.9154 13.3312 18.7904C13.4562 18.6654 13.6258 18.5952 13.8026 18.5952H18.2186C18.3954 18.5952 18.565 18.6654 18.69 18.7904C18.815 18.9154 18.8853 19.085 18.8853 19.2618C18.8853 19.4386 18.815 19.6082 18.69 19.7332C18.565 19.8583 18.3954 19.9285 18.2186 19.9285Z" fill="#00A0DC"/>
</svg>
