<svg width="20" height="24" viewBox="0 0 20 24" fill="none" xmlns="http://www.w3.org/2000/svg">
<path d="M19.0896 6.3993L12.857 0.16671C12.805 0.112875 12.7424 0.0703054 12.6733 0.0416409C12.6041 0.0129765 12.5298 -0.00117108 12.4549 7.58027e-05H2.27487C1.67154 7.58027e-05 1.09292 0.239749 0.666296 0.666371C0.239674 1.09299 0 1.67162 0 2.27495V21.7251C0 22.3285 0.239674 22.9071 0.666296 23.3337C1.09292 23.7603 1.67154 24 2.27487 24H16.9814C17.5847 24 18.1633 23.7603 18.5899 23.3337C19.0166 22.9071 19.2562 22.3285 19.2562 21.7251V6.80138C19.2558 6.65065 19.1959 6.50617 19.0896 6.3993ZM17.3146 6.23266H13.8767C13.6505 6.23266 13.4335 6.14279 13.2735 5.9828C13.1135 5.82282 13.0237 5.60583 13.0237 5.37958V1.94168L17.3146 6.23266ZM16.9814 22.8626H2.27658C1.97491 22.8626 1.6856 22.7427 1.47229 22.5294C1.25898 22.3161 1.13914 22.0268 1.13914 21.7251V2.27495C1.13914 1.97328 1.25898 1.68397 1.47229 1.47066C1.6856 1.25735 1.97491 1.13751 2.27658 1.13751H11.8879V5.37958C11.8879 5.9075 12.0976 6.4138 12.4709 6.78709C12.8442 7.16039 13.3505 7.3701 13.8784 7.3701H18.1205V21.7251C18.1205 21.8746 18.091 22.0227 18.0338 22.1608C17.9765 22.2989 17.8926 22.4244 17.7868 22.53C17.681 22.6357 17.5554 22.7194 17.4172 22.7765C17.279 22.8335 17.1309 22.8628 16.9814 22.8626Z" fill="#212427" fill-opacity="0.5"/>
<path d="M7.34449 8.75848C7.80004 8.75848 8.24536 8.62339 8.62414 8.3703C9.00291 8.11721 9.29814 7.75748 9.47247 7.3366C9.6468 6.91573 9.69241 6.45261 9.60354 6.00581C9.51467 5.55901 9.2953 5.1486 8.97317 4.82648C8.65105 4.50436 8.24064 4.28499 7.79384 4.19611C7.34704 4.10724 6.88392 4.15285 6.46305 4.32719C6.04217 4.50152 5.68245 4.79674 5.42935 5.17552C5.17626 5.55429 5.04118 5.99961 5.04118 6.45517C5.04193 7.06581 5.28484 7.65123 5.71663 8.08302C6.14842 8.51481 6.73384 8.75772 7.34449 8.75848ZM7.34449 5.28929C7.57507 5.28929 7.80048 5.35767 7.99221 5.48578C8.18394 5.61389 8.33337 5.79597 8.42161 6.00901C8.50986 6.22204 8.53294 6.45646 8.48796 6.68262C8.44297 6.90877 8.33193 7.11651 8.16888 7.27956C8.00583 7.44261 7.79809 7.55365 7.57194 7.59864C7.34578 7.64362 7.11136 7.62053 6.89833 7.53229C6.68529 7.44405 6.50321 7.29462 6.3751 7.10289C6.24699 6.91116 6.17861 6.68575 6.17861 6.45517C6.17906 6.1461 6.30204 5.84981 6.52059 5.63127C6.73913 5.41272 7.03542 5.28974 7.34449 5.28929ZM4.01123 13.166C4.16206 13.166 4.30672 13.1061 4.41337 12.9995C4.52003 12.8928 4.57995 12.7482 4.57995 12.5973V12.2504C4.5807 11.6917 4.803 11.156 5.1981 10.7609C5.5932 10.3658 6.12886 10.1435 6.68762 10.1427H8.00136C8.56011 10.1435 9.09577 10.3658 9.49087 10.7609C9.88598 11.156 10.1083 11.6917 10.109 12.2504V12.5973C10.109 12.7482 10.1689 12.8928 10.2756 12.9995C10.3823 13.1061 10.5269 13.166 10.6777 13.166C10.8286 13.166 10.9732 13.1061 11.0799 12.9995C11.1865 12.8928 11.2465 12.7482 11.2465 12.5973V12.2504C11.2454 11.3901 10.9032 10.5653 10.2948 9.95693C9.68648 9.34859 8.86169 9.00635 8.00136 9.0053H6.68762C5.82728 9.00635 5.00249 9.34859 4.39414 9.95693C3.78579 10.5653 3.44356 11.3901 3.44251 12.2504V12.5973C3.44251 12.7482 3.50243 12.8928 3.60908 12.9995C3.71574 13.1061 3.86039 13.166 4.01123 13.166ZM3.69445 17.3274H10.5959C10.7467 17.3274 10.8913 17.2674 10.998 17.1608C11.1047 17.0541 11.1646 16.9095 11.1646 16.7586C11.1646 16.6078 11.1047 16.4632 10.998 16.3565C10.8913 16.2498 10.7467 16.1899 10.5959 16.1899H3.69445C3.54362 16.1899 3.39896 16.2498 3.29231 16.3565C3.18565 16.4632 3.12573 16.6078 3.12573 16.7586C3.12573 16.9095 3.18565 17.0541 3.29231 17.1608C3.39896 17.2674 3.54362 17.3274 3.69445 17.3274ZM14.5001 19.1848H3.69445C3.54362 19.1848 3.39896 19.2447 3.29231 19.3514C3.18565 19.458 3.12573 19.6027 3.12573 19.7535C3.12573 19.9043 3.18565 20.049 3.29231 20.1557C3.39896 20.2623 3.54362 20.3222 3.69445 20.3222H14.5001C14.6509 20.3222 14.7956 20.2623 14.9022 20.1557C15.0089 20.049 15.0688 19.9043 15.0688 19.7535C15.0688 19.6027 15.0089 19.458 14.9022 19.3514C14.7956 19.2447 14.6509 19.1848 14.5001 19.1848Z" fill="#212427" fill-opacity="0.5"/>
</svg>
