<svg width="25" height="25" viewBox="0 0 25 25" fill="none" xmlns="http://www.w3.org/2000/svg">
<circle cx="12.5" cy="12.5" r="12.5" fill="#BAB0B0" fill-opacity="0.15"/>
<path d="M7.16699 13C7.16699 11.1144 7.16699 10.1716 7.64294 9.58579C8.1189 9 8.88493 9 10.417 9H12.5837C14.1157 9 14.8818 9 15.3577 9.58579C15.8337 10.1716 15.8337 11.1144 15.8337 13V17.5517C15.8337 19.3406 15.8337 20.235 15.3763 20.5086C14.919 20.7822 14.3476 20.2296 13.2047 19.1244L12.8389 18.7707C12.1963 18.1492 11.875 17.8385 11.5003 17.8385C11.1256 17.8385 10.8043 18.1492 10.1617 18.7707L9.79595 19.1244C8.65308 20.2296 8.08164 20.7822 7.62432 20.5086C7.16699 20.235 7.16699 19.3406 7.16699 17.5517V13Z" fill="white" stroke="#222222"/>
<path d="M12.6219 7.75143L15.0677 11.3618C15.084 11.3859 15.0921 11.3979 15.0986 11.4066C15.2985 11.6758 15.7015 11.6758 15.9014 11.4066C15.9079 11.3979 15.916 11.3859 15.9323 11.3618L18.3781 7.75143C18.7625 7.18391 18.8125 6.45365 18.5091 5.839L18.0726 4.95491C17.5494 3.89529 15.9994 4.02248 15.6559 5.15322C15.6091 5.30737 15.3909 5.30737 15.3441 5.15322C15.0006 4.02248 13.4506 3.89529 12.9274 4.95491L12.4909 5.839C12.1875 6.45364 12.2375 7.18391 12.6219 7.75143Z" fill="#CEEDDB" stroke="#222222"/>
</svg>
