<svg width="27" height="25" viewBox="0 0 27 25" fill="none" xmlns="http://www.w3.org/2000/svg">
<g clip-path="url(#clip0_257_338)">
<path d="M2.08213 14.4437C1.55342 13.4933 1.28906 13.018 1.28906 12.4992C1.28906 11.9804 1.55342 11.5051 2.08213 10.5547L4.03911 7.03672L6.10729 3.58292C6.66604 2.64982 6.94542 2.18328 7.39475 1.92386C7.84408 1.66443 8.38781 1.65576 9.47527 1.63842L13.5004 1.57422L17.5256 1.63842C18.613 1.65576 19.1568 1.66443 19.6061 1.92385C20.0554 2.18328 20.3348 2.64982 20.8935 3.58292L22.9617 7.03672L24.9187 10.5547C25.4474 11.5051 25.7118 11.9804 25.7118 12.4992C25.7118 13.018 25.4474 13.4933 24.9187 14.4437L22.9617 17.9617L20.8935 21.4155C20.3348 22.3486 20.0554 22.8151 19.6061 23.0746C19.1568 23.334 18.613 23.3427 17.5256 23.36L13.5004 23.4242L9.47527 23.36C8.38781 23.3427 7.84408 23.334 7.39475 23.0746C6.94542 22.8151 6.66604 22.3486 6.10729 21.4155L4.03911 17.9617L2.08213 14.4437Z" stroke="#33363F" stroke-width="2.5"/>
<path d="M13.5 16.25C15.5711 16.25 17.25 14.5711 17.25 12.5C17.25 10.4289 15.5711 8.75 13.5 8.75C11.4289 8.75 9.75 10.4289 9.75 12.5C9.75 14.5711 11.4289 16.25 13.5 16.25Z" stroke="#33363F" stroke-width="2.5"/>
</g>
<defs>
<clipPath id="clip0_257_338">
<rect width="27" height="25" fill="white"/>
</clipPath>
</defs>
</svg>
