<svg width="17" height="17" viewBox="0 0 17 17" fill="none" xmlns="http://www.w3.org/2000/svg">
<g clip-path="url(#clip0_255_883)">
<path d="M13.6945 10.3893C13.1589 10.3897 12.6315 10.5205 12.1577 10.7703C11.684 11.02 11.2781 11.3813 10.9752 11.823L6.36462 9.74117C6.69209 8.95041 6.69337 8.0622 6.36816 7.27051L10.9723 5.17809C11.4213 5.82746 12.0882 6.2944 12.852 6.49421C13.6157 6.69402 14.4258 6.61346 15.1353 6.26715C15.8448 5.92085 16.4066 5.33173 16.7189 4.60666C17.0312 3.88158 17.0733 3.06858 16.8376 2.31513C16.6018 1.56168 16.1038 0.917677 15.4339 0.499943C14.764 0.0822102 13.9666 -0.0815858 13.1863 0.0382667C12.4059 0.158119 11.6944 0.553682 11.1807 1.1532C10.6671 1.75272 10.3853 2.51649 10.3865 3.30597C10.3895 3.49283 10.4085 3.67909 10.4432 3.86272L5.54862 6.08688C5.07853 5.64646 4.49002 5.35293 3.8554 5.24238C3.22078 5.13183 2.56769 5.20906 1.97636 5.46458C1.38503 5.72011 0.881219 6.1428 0.526819 6.68072C0.17242 7.21865 -0.0171313 7.84838 -0.0185467 8.49256C-0.0199621 9.13673 0.16682 9.76729 0.518852 10.3068C0.870885 10.8463 1.37284 11.2712 1.96304 11.5293C2.55324 11.7874 3.20598 11.8675 3.84108 11.7597C4.47618 11.652 5.06597 11.361 5.538 10.9227L10.4453 13.1383C10.4112 13.3218 10.3925 13.5078 10.3894 13.6944C10.3892 14.3483 10.583 14.9875 10.9462 15.5312C11.3094 16.075 11.8257 16.4988 12.4298 16.7491C13.0338 16.9994 13.6986 17.0649 14.3399 16.9374C14.9812 16.8099 15.5703 16.495 16.0327 16.0326C16.4951 15.5703 16.8099 14.9812 16.9375 14.3398C17.065 13.6985 16.9995 13.0338 16.7492 12.4297C16.4989 11.8256 16.0751 11.3093 15.5313 10.9461C14.9876 10.5829 14.3483 10.3892 13.6945 10.3893ZM13.6945 1.41684C14.0681 1.4167 14.4334 1.52738 14.7442 1.73487C15.0549 1.94237 15.2972 2.23736 15.4403 2.58254C15.5834 2.92772 15.6209 3.30758 15.5481 3.67408C15.4753 4.04058 15.2954 4.37726 15.0312 4.64153C14.7671 4.9058 14.4304 5.08579 14.064 5.15874C13.6975 5.23169 13.3176 5.19432 12.9724 5.05136C12.6272 4.9084 12.3321 4.66626 12.1245 4.35558C11.9169 4.0449 11.806 3.67963 11.806 3.30597C11.8064 2.80518 12.0055 2.325 12.3595 1.97082C12.7136 1.61664 13.1937 1.4174 13.6945 1.41684ZM3.30604 10.3893C2.93237 10.3894 2.56706 10.2788 2.2563 10.0713C1.94555 9.86377 1.7033 9.56878 1.56021 9.2236C1.41712 8.87842 1.37961 8.49856 1.45242 8.13206C1.52523 7.76556 1.7051 7.42888 1.96927 7.16461C2.23344 6.90034 2.57005 6.72035 2.93652 6.6474C3.30299 6.57445 3.68287 6.61182 4.0281 6.75478C4.37334 6.89775 4.66842 7.13988 4.87603 7.45056C5.08364 7.76124 5.19446 8.12651 5.19446 8.50017C5.19389 9.00091 4.99478 9.48098 4.64077 9.83512C4.28677 10.1893 3.80677 10.3885 3.30604 10.3893ZM13.6945 15.5835C13.3208 15.5835 12.9556 15.4727 12.6449 15.2651C12.3342 15.0576 12.0921 14.7625 11.9491 14.4173C11.8061 14.0721 11.7687 13.6923 11.8416 13.3258C11.9145 12.9594 12.0944 12.6228 12.3586 12.3586C12.6228 12.0944 12.9595 11.9144 13.3259 11.8416C13.6924 11.7687 14.0722 11.8061 14.4174 11.9491C14.7626 12.092 15.0576 12.3342 15.2652 12.6448C15.4728 12.9555 15.5836 13.3208 15.5836 13.6944C15.5832 14.1953 15.3841 14.6756 15.0299 15.0298C14.6757 15.384 14.1954 15.5831 13.6945 15.5835Z" fill="#00A0DC"/>
</g>
<defs>
<clipPath id="clip0_255_883">
<rect width="17" height="17" fill="white"/>
</clipPath>
</defs>
</svg>
