<svg width="16" height="17" viewBox="0 0 16 17" fill="none" xmlns="http://www.w3.org/2000/svg">
<path d="M2.5046e-05 8.51566C-0.00677909 10.3152 1.37362 11.7799 3.08323 11.787C3.87059 11.7903 4.62954 11.4777 5.20562 10.9127L9.81861 13.1051C9.78656 13.2867 9.76897 13.4707 9.76602 13.6553C9.76059 15.4673 11.1516 16.9408 12.873 16.9466C14.5944 16.9523 15.9942 15.4881 15.9997 13.6761C16.0051 11.8641 14.6141 10.3906 12.8927 10.3848C12.3861 10.3832 11.8868 10.5115 11.4379 10.7587C10.9891 11.0059 10.6042 11.3645 10.3167 11.8036L5.98267 9.74363C6.2905 8.96117 6.2917 8.08229 5.98601 7.2989L10.314 5.22845C11.2886 6.71219 13.2213 7.08331 14.6309 6.05743C16.0404 5.03156 16.393 2.99715 15.4184 1.51341C14.4438 0.0296782 12.5111 -0.341445 11.1015 0.684433C10.688 0.985394 10.3502 1.38762 10.117 1.85649C9.88394 2.32536 9.76255 2.84683 9.76333 3.37603C9.76614 3.56092 9.78397 3.74523 9.81661 3.92693L5.21561 6.12771C3.96905 4.89557 2.00962 4.96046 0.839087 6.27263C0.297346 6.87995 -0.00289921 7.68258 2.5046e-05 8.51566Z" fill="#0077B5"/>
</svg>
