<svg width="32" height="32" viewBox="0 0 32 32" fill="none" xmlns="http://www.w3.org/2000/svg">
<circle cx="16" cy="16" r="16" fill="#F2F2F2"/>
<g clip-path="url(#clip0_166_216)">
<path d="M22.867 15.1029L17.9087 10.2904C17.8469 10.2307 17.7691 10.1904 17.6846 10.1745C17.6002 10.1587 17.513 10.1679 17.4338 10.2012C17.3547 10.2348 17.2872 10.2909 17.2397 10.3626C17.1922 10.4342 17.1668 10.5183 17.1667 10.6043V13.0846C12.6499 13.1628 9 16.8611 9 21.3959C9 21.5954 9.14058 21.7588 9.33367 21.8089C9.36741 21.8175 9.4021 21.8218 9.43692 21.8218C9.51774 21.8207 9.59686 21.7984 9.6663 21.757C9.73573 21.7156 9.79303 21.6567 9.83242 21.5861C10.4758 20.424 11.4187 19.4554 12.5629 18.7809C13.7072 18.1063 15.0112 17.7504 16.3395 17.7501H17.1667V20.2293C17.1667 20.4048 17.2723 20.5635 17.4338 20.6323C17.513 20.6656 17.6002 20.6748 17.6846 20.659C17.7691 20.6431 17.8469 20.6028 17.9087 20.5431L22.867 15.7306C22.9092 15.6899 22.9428 15.6412 22.9657 15.5873C22.9886 15.5334 23.0004 15.4754 23.0004 15.4168C23.0004 15.3582 22.9886 15.3002 22.9657 15.2462C22.9428 15.1923 22.9092 15.1436 22.867 15.1029Z" fill="#00A0DC" fill-opacity="0.9"/>
</g>
<defs>
<clipPath id="clip0_166_216">
<rect width="14" height="14" fill="white" transform="translate(9 9)"/>
</clipPath>
</defs>
</svg>
