<svg width="16" height="17" viewBox="0 0 16 17" fill="none" xmlns="http://www.w3.org/2000/svg">
<path d="M5.8125 14.625H10.1875M5.75 13.6875H10.25M5.5 12.75H10.5M9.40625 15.5625V15.875C9.40625 16.2202 9.12644 16.5 8.78125 16.5H7.21875C6.87356 16.5 6.59375 16.2202 6.59375 15.875V15.5625" stroke="#454545" stroke-width="0.8" stroke-miterlimit="10"/>
<path d="M2.0625 6.9375C2.0625 3.65831 4.72081 1 8 1C11.2792 1 13.9375 3.65831 13.9375 6.9375C13.9375 8.99775 12.8881 10.8128 11.2947 11.8776C10.6019 12.3406 10.1875 13.1202 10.1875 13.9534V14.9375C10.1875 15.2827 9.90769 15.5625 9.5625 15.5625H6.4375C6.09231 15.5625 5.8125 15.2827 5.8125 14.9375V13.9534C5.8125 13.1202 5.39806 12.3406 4.70528 11.8776C3.11188 10.8128 2.0625 8.99775 2.0625 6.9375Z" stroke="#454545" stroke-width="0.8" stroke-miterlimit="10" stroke-dasharray="316 15"/>
<path d="M0 7.03147H1.1875M14.8125 7.03147H16M0.482469 9.76763L1.59834 9.36147M14.4017 4.70147L15.5175 4.29532M1.87166 12.1738L2.78131 11.4105M13.2187 2.65247L14.1283 1.88916M15.5175 9.76763L14.4017 9.36147M1.59834 4.70147L0.482469 4.29532M14.1283 12.1738L13.2187 11.4105M2.78131 2.65247L1.87166 1.88916M8 3.39654C8.20963 3.209 8.48575 3.09397 8.78947 3.09397C9.30738 3.09397 9.7465 3.42616 9.90731 3.88813C9.92956 3.88625 9.95094 3.88147 9.97369 3.88147C10.4097 3.88147 10.7632 4.23404 10.7632 4.66897C10.7632 4.7421 10.7499 4.8115 10.7312 4.87869C11.3067 4.95919 11.75 5.45088 11.75 6.0471C11.75 6.47441 11.5218 6.84757 11.1811 7.055C11.4059 7.23541 11.5526 7.50875 11.5526 7.81897C11.5526 8.20085 11.3323 8.52822 11.0137 8.69144C11.1033 8.83966 11.1579 9.01141 11.1579 9.1971C11.1579 9.71825 10.7506 10.1405 10.2369 10.1748C10.0163 10.6436 9.54028 10.969 8.98684 10.969C8.60003 10.969 8.25078 10.81 8 10.5544M8 3.39654C7.79037 3.20904 7.51425 3.09397 7.21053 3.09397C6.69262 3.09397 6.25353 3.42616 6.09269 3.88813C6.07044 3.88625 6.04906 3.88147 6.02631 3.88147C5.59028 3.88147 5.23684 4.23404 5.23684 4.66897C5.23684 4.7421 5.25006 4.8115 5.26875 4.87869C4.69328 4.95916 4.25 5.45085 4.25 6.0471C4.25 6.47441 4.47822 6.84757 4.81894 7.055C4.59412 7.23544 4.44737 7.50875 4.44737 7.81897C4.44737 8.20085 4.66769 8.52822 4.98631 8.69144C4.89672 8.83966 4.84209 9.01141 4.84209 9.1971C4.84209 9.71825 5.24941 10.1405 5.76312 10.1748C5.98366 10.6436 6.45972 10.969 7.01316 10.969C7.39997 10.969 7.74922 10.81 8 10.5544M8 3.39654V10.5544" stroke="#454545" stroke-width="0.8" stroke-miterlimit="10"/>
<path d="M5.26878 4.87861C5.26878 4.87861 5.89066 4.7814 6.26566 5.43765M10.7313 4.87861C10.7313 4.87861 10.1094 4.7814 9.73441 5.43765M5.76316 10.1748C5.76316 10.1748 6.64066 10.2189 6.54691 9.23452M4.81897 7.05493C4.81897 7.05493 5.60941 6.51577 6.17191 7.5939M10.2369 10.1748C10.2369 10.1748 9.35941 10.2189 9.45316 9.23452M11.1811 7.05493C11.1811 7.05493 10.3907 6.51577 9.82816 7.5939M13 7.75015V7.2814M13 6.7814V6.31265" stroke="#454545" stroke-width="0.8" stroke-miterlimit="10"/>
</svg>
