<svg width="19" height="19" viewBox="0 0 19 19" fill="none" xmlns="http://www.w3.org/2000/svg">
<path d="M8.03094 5.24665C8.65367 3.6942 8.96504 2.91797 9.50046 2.91797C10.0359 2.91797 10.3472 3.6942 10.97 5.24666L10.999 5.31895C11.3508 6.19601 11.5267 6.63454 11.8852 6.90108C12.2437 7.16763 12.7143 7.20978 13.6555 7.29407L13.8257 7.30931C15.3661 7.44727 16.1364 7.51625 16.3012 8.00628C16.466 8.4963 15.894 9.0167 14.75 10.0575L14.3682 10.4049C13.7891 10.9317 13.4995 11.1952 13.3646 11.5404C13.3394 11.6048 13.3184 11.6708 13.3019 11.738C13.2132 12.0979 13.298 12.4801 13.4676 13.2444L13.5204 13.4823C13.832 14.887 13.9878 15.5893 13.7158 15.8923C13.6141 16.0055 13.482 16.087 13.3352 16.127C12.9423 16.2342 12.3846 15.7798 11.2692 14.8709C10.5368 14.274 10.1706 13.9756 9.75011 13.9085C9.58472 13.8821 9.4162 13.8821 9.25081 13.9085C8.83036 13.9756 8.46414 14.274 7.73171 14.8709C6.61629 15.7798 6.05858 16.2342 5.66576 16.127C5.51897 16.087 5.38683 16.0055 5.28516 15.8923C5.01308 15.5893 5.16891 14.887 5.48057 13.4823L5.53336 13.2444C5.70294 12.4801 5.78773 12.0979 5.69902 11.738C5.68247 11.6708 5.66154 11.6048 5.63637 11.5404C5.50141 11.1952 5.21185 10.9317 4.63275 10.4049L4.25094 10.0575C3.10695 9.0167 2.53495 8.4963 2.69976 8.00628C2.86457 7.51625 3.63478 7.44727 5.17522 7.30931L5.34538 7.29407C6.2866 7.20978 6.75722 7.16763 7.11572 6.90108C7.47423 6.63454 7.65013 6.19601 8.00195 5.31895L8.03094 5.24665Z" fill="#00DC9A" stroke="#19AF00" stroke-opacity="0.36"/>
</svg>
