<svg width="60" height="60" viewBox="0 0 60 60" fill="none" xmlns="http://www.w3.org/2000/svg">
<g clip-path="url(#clip0_3416_1460)">
<path d="M30 0C13.4573 0 0 13.4573 0 30C0 46.5427 13.4573 60 30 60C46.5427 60 60 46.5427 60 30C60 13.4573 46.5427 0 30 0Z" fill="#2196F3"/>
<path d="M45.2052 23.6427L28.9551 39.8924C28.4676 40.3799 27.8276 40.6253 27.1876 40.6253C26.5477 40.6253 25.9077 40.3799 25.4202 39.8924L17.2954 31.7676C16.3176 30.7902 16.3176 29.2101 17.2954 28.2327C18.2727 27.2549 19.8524 27.2549 20.8302 28.2327L27.1876 34.5901L41.6704 20.1079C42.6477 19.1301 44.2274 19.1301 45.2052 20.1079C46.1826 21.0852 46.1826 22.6649 45.2052 23.6427Z" fill="#FAFAFA"/>
</g>
<defs>
<clipPath id="clip0_3416_1460">
<rect width="60" height="60" fill="white"/>
</clipPath>
</defs>
</svg>
