<svg width="25" height="25" viewBox="0 0 25 25" fill="none" xmlns="http://www.w3.org/2000/svg">
<circle cx="12.5" cy="12.5" r="12.5" fill="#BAB0B0" fill-opacity="0.15"/>
<path d="M13 18L11 20L13 22" stroke="#222222"/>
<path d="M19.0622 9.5C19.7138 10.6286 20.0374 11.9167 19.9966 13.2193C19.9557 14.5219 19.5521 15.7872 18.8311 16.8728C18.11 17.9584 17.1003 18.8212 15.9155 19.364C14.7307 19.9067 13.4179 20.108 12.1249 19.9451" stroke="#222222" stroke-linecap="round"/>
<path d="M13 8L15 6L13 4" stroke="#222222"/>
<path d="M6.93782 16.5C6.27676 15.355 5.95347 14.0462 6.0054 12.7251C6.05733 11.404 6.48234 10.1246 7.23124 9.03498C7.98013 7.9454 9.02229 7.09019 10.2371 6.56834C11.4519 6.04649 12.7896 5.87934 14.0955 6.08625" stroke="#222222" stroke-linecap="round"/>
<path d="M16.2201 16.5209C16.0302 15.9893 15.6117 15.5196 15.0295 15.1846C14.4474 14.8496 13.7341 14.668 13.0003 14.668C12.2665 14.668 11.5533 14.8496 10.9711 15.1846C10.389 15.5196 9.97049 15.9893 9.78057 16.5209" stroke="#222222" stroke-linecap="round"/>
<circle cx="12.9997" cy="11.3346" r="1.66667" fill="white" stroke="#222222" stroke-linecap="round"/>
</svg>
