<svg width="10" height="12" viewBox="0 0 10 12" fill="none" xmlns="http://www.w3.org/2000/svg">
<path d="M2.41005 6.13645C2.0353 6.13645 1.69609 6.14277 1.35687 6.1333C1.26964 6.13014 1.1598 6.11435 1.10488 6.06067C0.743048 5.707 0.394138 5.3407 0 4.93966C0.827043 4.93966 1.60563 4.93966 2.41005 4.93966C2.41005 4.36811 2.41005 3.82497 2.41005 3.28499C2.41005 3.0829 2.3939 2.8808 2.41329 2.68186C2.48759 1.94294 1.64439 1.52928 1.10165 1.73769C1.06288 1.75348 1.02411 1.76611 0.940116 1.79769C0.810891 1.51665 0.675204 1.24192 0.558901 0.957721C0.536287 0.900882 0.565363 0.809306 0.59767 0.746151C0.772124 0.386166 1.04996 0.130387 1.45702 0.0546006C2.53928 -0.144339 3.22417 0.1967 3.50847 1.13771C3.62154 1.51665 3.67647 1.924 3.68939 2.32188C3.71846 3.08921 3.69908 3.85971 3.69908 4.6302C3.69908 4.72178 3.69908 4.81019 3.69908 4.90177C3.74108 4.9144 3.76369 4.93335 3.78631 4.93019C4.2709 4.83861 4.60366 5.05018 4.90411 5.40701C5.10764 5.65016 5.37578 5.83962 5.61485 6.05435C5.59869 6.07962 5.58254 6.10172 5.56639 6.12698C4.95903 6.12698 4.34844 6.12698 3.69908 6.12698C3.69908 6.23119 3.69908 6.31013 3.69908 6.38908C3.69908 7.41851 3.69908 8.44794 3.69908 9.47421C3.69908 10.15 4.10937 10.5636 4.80073 10.6078C5.17871 10.6331 5.54054 10.5826 5.86684 10.3994C6.85864 9.84683 7.61461 9.09528 7.93121 7.9869C7.96352 7.86691 7.97321 7.7406 7.99906 7.58903C7.81168 7.58903 7.64046 7.59534 7.47246 7.58903C6.71972 7.54798 6.23513 7.16273 6.10267 6.43644C6.04775 6.13961 6.03483 5.81436 6.09298 5.51753C6.24805 4.76283 6.85218 4.37758 7.74383 4.406C8.33504 4.42179 8.82287 4.65231 9.20085 5.08808C10.141 6.17119 10.1862 7.40272 9.67576 8.64688C8.85518 10.6457 7.24632 11.6941 5.10764 11.9815C4.68119 12.0383 4.21598 11.9562 3.79277 11.8457C2.93988 11.6215 2.41652 10.8952 2.41329 10.0363C2.41005 8.8395 2.41329 7.64587 2.41329 6.44907C2.41005 6.3575 2.41005 6.26592 2.41005 6.13645Z" fill="#2C2C2C"/>
</svg>
