<svg width="18" height="19" viewBox="0 0 18 19" fill="none" xmlns="http://www.w3.org/2000/svg">
<g clip-path="url(#clip0_636_35)">
<path fill-rule="evenodd" clip-rule="evenodd" d="M8.77482 17.5605V11.6075C8.77605 11.2261 8.9281 10.8607 9.1978 10.591C9.4675 10.3213 9.83294 10.1692 10.2144 10.168H15.8581C16.2395 10.1692 16.6049 10.3213 16.8746 10.591C17.1443 10.8607 17.2964 11.2261 17.2976 11.6075V17.5605C17.2964 17.9419 17.1443 18.3073 16.8746 18.577C16.6049 18.8467 16.2395 18.9988 15.8581 19H10.2144C9.83294 18.9988 9.4675 18.8467 9.1978 18.577C8.9281 18.3073 8.77605 17.9419 8.77482 17.5605ZM9.19849 1.77352L12.2275 4.61084H9.19849V1.77352ZM3.20378 10.7277C3.11763 10.7325 3.03686 10.7711 2.97897 10.835C2.92107 10.899 2.89074 10.9832 2.89453 11.0694C2.89182 11.1123 2.89772 11.1553 2.91189 11.1958C2.92606 11.2364 2.94822 11.2737 2.97704 11.3055C3.00587 11.3374 3.04078 11.3631 3.07972 11.3813C3.11867 11.3994 3.16085 11.4096 3.20378 11.4111H7.0044V10.7277H3.20378ZM3.20378 13.1754C3.11763 13.1802 3.03686 13.2187 2.97897 13.2827C2.92107 13.3467 2.89074 13.4309 2.89453 13.5171C2.89182 13.56 2.89772 13.6029 2.91189 13.6435C2.92606 13.6841 2.94822 13.7214 2.97704 13.7532C3.00587 13.7851 3.04078 13.8108 3.07972 13.829C3.11867 13.8471 3.16085 13.8572 3.20378 13.8588H7.0044V13.1754H3.20378ZM3.20378 5.83081C3.11763 5.83561 3.03686 5.87418 2.97897 5.93815C2.92107 6.00212 2.89074 6.08633 2.89453 6.17253C2.89203 6.21535 2.89809 6.25825 2.91234 6.29871C2.92659 6.33917 2.94875 6.37639 2.97754 6.4082C3.00632 6.44001 3.04115 6.46577 3.07999 6.48397C3.11884 6.50218 3.16092 6.51247 3.20378 6.51424H6.71835C6.80449 6.50944 6.88527 6.47088 6.94316 6.40691C7.00105 6.34294 7.03139 6.25872 7.02759 6.17253C7.02988 6.12975 7.02368 6.08694 7.00935 6.04657C6.99502 6.0062 6.97285 5.96906 6.9441 5.93729C6.91536 5.90553 6.88061 5.87977 6.84187 5.86149C6.80312 5.84322 6.76114 5.83279 6.71835 5.83081H3.20378ZM3.20378 3.38314C3.11763 3.38794 3.03686 3.42651 2.97897 3.49048C2.92107 3.55445 2.89074 3.63866 2.89453 3.72485C2.89182 3.76773 2.89772 3.81071 2.91189 3.85126C2.92606 3.89182 2.94822 3.92912 2.97704 3.96097C3.00587 3.99283 3.04078 4.01858 3.07972 4.03672C3.11867 4.05485 3.16085 4.065 3.20378 4.06657H5.13656C5.2227 4.06177 5.30348 4.0232 5.36137 3.95923C5.41926 3.89526 5.4496 3.81105 5.4458 3.72485C5.4483 3.68203 5.44225 3.63913 5.428 3.59867C5.41375 3.55821 5.39159 3.52099 5.3628 3.48918C5.33402 3.45738 5.29919 3.43162 5.26034 3.41341C5.2215 3.3952 5.17942 3.38491 5.13656 3.38314H3.20378ZM3.20378 8.28003C3.11763 8.28483 3.03686 8.3234 2.97897 8.38737C2.92107 8.45134 2.89074 8.53555 2.89453 8.62175C2.89224 8.66453 2.89844 8.70733 2.91277 8.74771C2.9271 8.78808 2.94927 8.82522 2.97802 8.85698C3.00677 8.88874 3.04151 8.91451 3.08026 8.93278C3.119 8.95106 3.16098 8.96148 3.20378 8.96346H9.14746C9.23346 8.95827 9.314 8.91959 9.37181 8.85571C9.42962 8.79183 9.4601 8.70784 9.45671 8.62175C9.45921 8.57892 9.45316 8.53603 9.43891 8.49556C9.42465 8.4551 9.40249 8.41788 9.37371 8.38607C9.34492 8.35427 9.31009 8.32851 9.27125 8.3103C9.2324 8.2921 9.19032 8.28181 9.14746 8.28003H3.20378ZM13.916 5.0175C13.9161 4.9077 13.8804 4.80087 13.8143 4.71323C13.7481 4.6256 13.6552 4.56196 13.5496 4.53198L9.08252 0.185548C9.03589 0.127488 8.9768 0.0806636 8.90962 0.0485444C8.84243 0.0164252 8.76889 -0.000165593 8.69442 1.31942e-06H0.907635C0.788516 -0.000201956 0.670526 0.0230847 0.560416 0.0685288C0.450306 0.113973 0.350237 0.180683 0.265935 0.264841C0.181633 0.348999 0.114753 0.448954 0.069121 0.558987C0.0234892 0.669019 1.42978e-06 0.786969 1.60322e-06 0.906089V16.4286C-0.000223041 16.5479 0.0231623 16.6659 0.0688085 16.7761C0.114455 16.8862 0.181458 16.9862 0.265952 17.0703C0.436754 17.2394 0.667293 17.3344 0.907635 17.3347H7.01831V16.3219H1.01278V1.01432H8.18571V5.11491C8.18571 5.24983 8.23931 5.37922 8.33471 5.47462C8.43011 5.57002 8.5595 5.62362 8.69442 5.62362H12.9001V8.94027H13.916V5.0175ZM11.7327 13.865L12.4703 14.5577L14.2253 12.7734C14.3799 12.6187 14.4804 12.4889 14.6737 12.6868L15.2922 13.3269C15.4978 13.5295 15.487 13.6485 15.2922 13.8372L12.8337 16.2725C12.4255 16.6729 12.495 16.6977 12.0822 16.2848L10.6906 14.8932C10.6706 14.875 10.6549 14.8526 10.6447 14.8275C10.6345 14.8025 10.6301 14.7755 10.6317 14.7485C10.6333 14.7215 10.641 14.6952 10.6541 14.6715C10.6673 14.6479 10.6855 14.6275 10.7076 14.6118L11.4343 13.8588C11.5441 13.7459 11.6307 13.7537 11.7436 13.8588L11.7327 13.865Z" fill="#00A0DC" fill-opacity="0.9"/>
</g>
<defs>
<clipPath id="clip0_636_35">
<rect width="17.2976" height="19" fill="white"/>
</clipPath>
</defs>
</svg>
