<svg width="21" height="21" viewBox="0 0 21 21" fill="none" xmlns="http://www.w3.org/2000/svg">
<path fill-rule="evenodd" clip-rule="evenodd" d="M10.5 1.86364C5.73014 1.86364 1.86364 5.73014 1.86364 10.5C1.86364 10.6382 1.86709 10.7755 1.87314 10.912C1.87841 11.0264 1.83801 11.1382 1.76083 11.2228C1.68366 11.3074 1.57603 11.3579 1.46161 11.3632C1.3472 11.3685 1.23539 11.3281 1.15076 11.2509C1.06613 11.1737 1.01563 11.0661 1.01036 10.9517C1.00339 10.8012 0.999933 10.6506 1 10.5C1 5.25341 5.25341 1 10.5 1C13.7136 1 16.5541 2.596 18.2727 5.03664V1.43182C18.2727 1.31729 18.3182 1.20746 18.3992 1.12648C18.4802 1.04549 18.59 1 18.7045 1C18.8191 1 18.9289 1.04549 19.0099 1.12648C19.0909 1.20746 19.1364 1.31729 19.1364 1.43182V6.61364C19.1364 6.72816 19.0909 6.838 19.0099 6.91898C18.9289 6.99996 18.8191 7.04545 18.7045 7.04545H13.5227C13.4082 7.04545 13.2984 6.99996 13.2174 6.91898C13.1364 6.838 13.0909 6.72816 13.0909 6.61364C13.0909 6.49911 13.1364 6.38928 13.2174 6.30829C13.2984 6.22731 13.4082 6.18182 13.5227 6.18182H17.9808C17.223 4.86847 16.1325 3.7779 14.8193 3.01985C13.5061 2.2618 12.0163 1.86302 10.5 1.86364ZM19.538 9.63636C19.5947 9.63369 19.6514 9.64224 19.7048 9.66151C19.7582 9.68077 19.8073 9.71039 19.8492 9.74865C19.8912 9.78692 19.9252 9.83308 19.9493 9.8845C19.9734 9.93592 19.9871 9.99159 19.9896 10.0483C19.9965 10.1977 20 10.3489 20 10.5C20 15.7466 15.7466 20 10.5 20C7.28727 20 4.44591 18.404 2.72727 15.9634V19.5682C2.72727 19.6827 2.68178 19.7925 2.6008 19.8735C2.51982 19.9545 2.40998 20 2.29546 20C2.18093 20 2.0711 19.9545 1.99011 19.8735C1.90913 19.7925 1.86364 19.6827 1.86364 19.5682V14.3864C1.86364 14.2718 1.90913 14.162 1.99011 14.081C2.0711 14 2.18093 13.9545 2.29546 13.9545H7.47727C7.5918 13.9545 7.70163 14 7.78262 14.081C7.8636 14.162 7.90909 14.2718 7.90909 14.3864C7.90909 14.5009 7.8636 14.6107 7.78262 14.6917C7.70163 14.7727 7.5918 14.8182 7.47727 14.8182H3.01918C4.51327 17.4005 7.30368 19.1364 10.5 19.1364C15.2699 19.1364 19.1364 15.2699 19.1364 10.5C19.1364 10.3618 19.1329 10.2245 19.1269 10.088C19.1217 9.97378 19.1621 9.86213 19.2392 9.77761C19.3162 9.69309 19.4237 9.6426 19.538 9.63723V9.63636Z" fill="#00A0DC" fill-opacity="0.9"/>
<path d="M19.513 9.61251L19.5368 9.61139C19.5968 9.60857 19.6568 9.61761 19.7133 9.63799C19.7698 9.65837 19.8217 9.6897 19.8661 9.73018C19.9105 9.77066 19.9464 9.8195 19.9719 9.8739C19.9974 9.9283 20.0119 9.98718 20.0146 10.0472M19.513 9.61251L19.9896 10.0483M19.513 9.61251V9.614M19.513 9.61251L3.01918 14.8182C3.02401 14.8265 3.02885 14.8349 3.0337 14.8432H3.06266M20.0146 10.0472L19.9896 10.0483M20.0146 10.0472C20.0146 10.0472 20.0146 10.0472 20.0146 10.0472L19.9896 10.0483M20.0146 10.0472C20.0215 10.197 20.025 10.3485 20.025 10.5C20.025 15.7604 15.7604 20.025 10.5 20.025C7.30695 20.025 4.47978 18.4526 2.75227 16.0417M19.9896 10.0483C19.9965 10.1977 20 10.3489 20 10.5C20 15.7466 15.7466 20 10.5 20C7.3028 20 4.47339 18.4194 2.75227 15.9987V16.0417M2.75227 16.0417C2.74391 16.0301 2.73558 16.0184 2.72727 16.0067V15.9634L3.04808 14.8182C3.05293 14.8265 3.05778 14.8349 3.06266 14.8432M2.75227 16.0417V19.5682C2.75227 19.6893 2.70414 19.8055 2.61847 19.8912C2.5328 19.9769 2.41661 20.025 2.29546 20.025C2.1743 20.025 2.05811 19.9769 1.97244 19.8912C1.88677 19.8055 1.83864 19.6893 1.83864 19.5682V14.3864C1.83864 14.2652 1.88677 14.149 1.97244 14.0633C2.05811 13.9777 2.1743 13.9295 2.29546 13.9295H7.47727C7.59843 13.9295 7.71462 13.9777 7.80029 14.0633C7.88596 14.149 7.93409 14.2652 7.93409 14.3864C7.93409 14.5075 7.88596 14.6237 7.80029 14.7094C7.71462 14.7951 7.59843 14.8432 7.47727 14.8432H3.06266M3.06266 14.8432C4.55771 17.3973 7.32847 19.1114 10.5 19.1114C15.2561 19.1114 19.1114 15.2561 19.1114 10.5C19.1114 10.3622 19.1079 10.2253 19.1019 10.0892C19.0964 9.96829 19.1392 9.85018 19.2207 9.76077C19.2969 9.67725 19.401 9.62515 19.513 9.614M19.513 9.614V9.63636V9.63723H19.538L19.5379 9.63636L19.5368 9.61226C19.5288 9.61263 19.5209 9.61321 19.513 9.614ZM10.5 1.88864C5.74394 1.88864 1.88864 5.74394 1.88864 10.5C1.88864 10.6377 1.89208 10.7747 1.89811 10.9108C1.89811 10.9108 1.89811 10.9108 1.89811 10.9108L1.87314 10.912C1.87841 11.0264 1.83801 11.1382 1.76083 11.2228C1.68366 11.3074 1.57603 11.3579 1.46161 11.3632C1.3472 11.3685 1.23539 11.3281 1.15076 11.2509C1.06613 11.1737 1.01563 11.0661 1.01036 10.9517L10.5 1.88864ZM10.5 1.88864C12.0119 1.88802 13.4974 2.28565 14.8068 3.0415C16.1037 3.79013 17.1827 4.86401 17.9374 6.15682M10.5 1.88864L17.9374 6.15682M17.9374 6.15682H13.5227C13.4016 6.15682 13.2854 6.20495 13.1997 6.29062C13.114 6.37629 13.0659 6.49248 13.0659 6.61364C13.0659 6.73479 13.114 6.85099 13.1997 6.93666C13.2854 7.02233 13.4016 7.07045 13.5227 7.07045H18.7045C18.8257 7.07045 18.9419 7.02233 19.0276 6.93666C19.1132 6.85099 19.1614 6.73479 19.1614 6.61364V1.43182C19.1614 1.31066 19.1132 1.19447 19.0276 1.1088C18.9419 1.02313 18.8257 0.975 18.7045 0.975C18.5834 0.975 18.4672 1.02313 18.3815 1.1088C18.2959 1.19447 18.2477 1.31066 18.2477 1.43182V4.95827C16.5202 2.54739 13.6939 0.975 10.5 0.975C5.23961 0.975 0.975007 5.2396 0.975001 10.5L17.9374 6.15682ZM0.975001 10.5C0.974933 10.651 0.978397 10.802 0.985391 10.9528L0.975001 10.5Z" stroke="#00A0DC" stroke-opacity="0.9" stroke-width="0.05"/>
</svg>
