<svg width="25" height="25" viewBox="0 0 25 25" fill="none" xmlns="http://www.w3.org/2000/svg">
<rect x="8" y="8" width="8.70833" height="10.2917" rx="2" fill="white"/>
<circle cx="12.5" cy="12.5" r="12.5" fill="#BAB0B0" fill-opacity="0.15"/>
<path d="M17.25 5.375L17.25 10.125" stroke="#222222" stroke-linecap="round"/>
<path d="M10.125 13.293L14.875 13.293" stroke="#222222" stroke-linecap="round"/>
<path d="M10.125 10.125L13.2917 10.125" stroke="#222222" stroke-linecap="round"/>
<path d="M10.125 16.457L13.2917 16.457" stroke="#222222" stroke-linecap="round"/>
<path d="M18.0413 13.2917V14.0833C18.0413 16.4689 18.0413 17.6616 17.4013 18.4771C17.253 18.6662 17.0825 18.8367 16.8935 18.985C16.078 19.625 14.8852 19.625 12.4997 19.625V19.625C10.1141 19.625 8.92136 19.625 8.10587 18.985C7.91686 18.8367 7.74635 18.6662 7.59801 18.4771C6.95801 17.6616 6.95801 16.4689 6.95801 14.0833V10.9167C6.95801 8.53113 6.95801 7.33836 7.59801 6.52286C7.74635 6.33385 7.91686 6.16334 8.10587 6.015C8.92136 5.375 10.1141 5.375 12.4997 5.375V5.375" stroke="#222222" stroke-linecap="round"/>
<path d="M19.625 7.75L14.875 7.75" stroke="#222222" stroke-linecap="round"/>
</svg>
