<svg width="12" height="12" viewBox="0 0 12 12" fill="none" xmlns="http://www.w3.org/2000/svg">
<path d="M8.149 4.144L8.851 4.8565L5.9545 7.71C5.76668 7.89625 5.51275 8.00055 5.24823 8.00008C4.98372 7.99962 4.73016 7.89442 4.543 7.7075L3.152 6.3595L3.8485 5.641L5.245 6.9945L8.149 4.144ZM12 6C12 9.3085 9.3085 12 6 12C2.6915 12 0 9.3085 0 6C0 2.6915 2.6915 0 6 0C9.3085 0 12 2.6915 12 6ZM11 6C11 3.243 8.757 1 6 1C3.243 1 1 3.243 1 6C1 8.757 3.243 11 6 11C8.757 11 11 8.757 11 6Z" fill="#00A0DC" fill-opacity="0.5"/>
</svg>
