<svg width="21" height="19" viewBox="0 0 21 19" fill="none" xmlns="http://www.w3.org/2000/svg">
<path d="M20.2007 7.32397L17.1779 2.14192C16.7964 1.49106 16.2515 0.951079 15.5973 0.575409C14.9431 0.199739 14.2021 0.0013947 13.4476 0H7.33973C5.81016 0 4.38077 0.820492 3.60951 2.14192L0.587511 7.32397C0.202726 7.98461 0 8.73547 0 9.5C0 10.2645 0.202726 11.0154 0.587511 11.676L3.61038 16.8581C3.99187 17.5089 4.53669 18.0489 5.19094 18.4246C5.84518 18.8003 6.58616 18.9986 7.34059 19H13.4485C14.9781 19 16.4075 18.1795 17.1787 16.8581L20.2016 11.676C20.5864 11.0154 20.7891 10.2645 20.7891 9.5C20.7891 8.73547 20.5855 7.98461 20.2007 7.32397ZM18.7083 10.8054L15.6854 15.9875C15.4566 16.378 15.1297 16.7019 14.7373 16.9273C14.3448 17.1527 13.9002 17.2718 13.4476 17.2726H7.33973C6.88711 17.2719 6.44255 17.1529 6.05005 16.9275C5.65755 16.702 5.33073 16.378 5.10194 15.9875L2.07908 10.8054C1.84831 10.4091 1.72673 9.95864 1.72673 9.5C1.72673 9.04136 1.84831 8.59091 2.07908 8.19455L5.10194 3.0125C5.3308 2.62202 5.65763 2.29806 6.05012 2.07266C6.4426 1.84726 6.88713 1.72823 7.33973 1.72735H13.4476C14.3657 1.72735 15.2234 2.21965 15.6854 3.0125L18.7083 8.19455C18.9391 8.59091 19.0606 9.04136 19.0606 9.5C19.0606 9.95864 18.9391 10.4091 18.7083 10.8054ZM9.5421 9.93141V5.18119C9.5421 4.95213 9.63309 4.73245 9.79506 4.57048C9.95704 4.40851 10.1767 4.31751 10.4058 4.31751C10.6348 4.31751 10.8545 4.40851 11.0165 4.57048C11.1785 4.73245 11.2695 4.95213 11.2695 5.18119V9.93141C11.2695 10.1605 11.1785 10.3801 11.0165 10.5421C10.8545 10.7041 10.6348 10.7951 10.4058 10.7951C10.1767 10.7951 9.95704 10.7041 9.79506 10.5421C9.63309 10.3801 9.5421 10.1605 9.5421 9.93141ZM11.7013 13.3861C11.7012 13.5563 11.6677 13.7248 11.6025 13.882C11.5373 14.0392 11.4418 14.1821 11.3214 14.3024C11.201 14.4227 11.0581 14.5181 10.9009 14.5831C10.7436 14.6482 10.5751 14.6817 10.4049 14.6816C10.2347 14.6816 10.0662 14.648 9.90901 14.5828C9.7518 14.5176 9.60897 14.4221 9.48867 14.3017C9.36837 14.1814 9.27296 14.0385 9.20788 13.8812C9.14281 13.724 9.10934 13.5554 9.1094 13.3852C9.10951 13.0415 9.24616 12.712 9.48928 12.469C9.73239 12.226 10.0621 12.0896 10.4058 12.0897C10.7495 12.0898 11.0791 12.2265 11.322 12.4696C11.565 12.7127 11.7014 13.0424 11.7013 13.3861Z" fill="white"/>
</svg>
