<svg width="16" height="16" viewBox="0 0 16 16" fill="none" xmlns="http://www.w3.org/2000/svg">
<path fill-rule="evenodd" clip-rule="evenodd" d="M13.604 2.32536C12.8694 1.58603 11.9954 0.999815 11.0327 0.600662C10.0699 0.201509 9.03753 -0.00264523 7.99532 2.58758e-05C3.62533 2.58758e-05 0.0686666 3.55602 0.0666666 7.92801C0.0649162 9.31944 0.430079 10.6867 1.12533 11.892L0 16L4.20266 14.8973C5.36503 15.5307 6.66761 15.8626 7.99132 15.8627H7.99465C12.364 15.8627 15.9213 12.306 15.9233 7.93401C15.9268 6.89222 15.7236 5.86009 15.3254 4.89737C14.9273 3.93464 14.3422 3.06043 13.604 2.32536ZM7.99532 14.5233H7.99265C6.81246 14.5238 5.65391 14.2064 4.63866 13.6047L4.39799 13.462L1.904 14.116L2.57 11.684L2.41333 11.4347C1.75322 10.3843 1.40398 9.16856 1.406 7.92801C1.40733 4.29469 4.36399 1.33869 7.99865 1.33869C9.75865 1.33869 11.4133 2.02536 12.6573 3.27069C13.2708 3.88178 13.7571 4.60845 14.0881 5.40866C14.419 6.20887 14.588 7.06674 14.5853 7.93268C14.5833 11.5673 11.6273 14.5233 7.99532 14.5233ZM11.61 9.58801C11.412 9.48868 10.438 9.00935 10.256 8.94335C10.0746 8.87735 9.94265 8.84401 9.80998 9.04201C9.67732 9.24001 9.29865 9.68668 9.18265 9.81934C9.06732 9.95134 8.95132 9.96801 8.75332 9.86868C8.55532 9.76934 7.91665 9.56068 7.15999 8.88535C6.57132 8.36001 6.17332 7.71135 6.05799 7.51268C5.94266 7.31401 6.04599 7.20735 6.14466 7.10868C6.23399 7.02002 6.34266 6.87735 6.44199 6.76135C6.54199 6.64668 6.57466 6.56402 6.64132 6.43135C6.70732 6.29935 6.67466 6.18335 6.62466 6.08402C6.57466 5.98535 6.17866 5.01002 6.01399 4.61335C5.85332 4.22669 5.68999 4.27935 5.56799 4.27335C5.45266 4.26735 5.32066 4.26669 5.18799 4.26669C5.05599 4.26669 4.84133 4.31602 4.65999 4.51469C4.47866 4.71335 3.96666 5.19268 3.96666 6.16735C3.96666 7.14268 4.67666 8.08468 4.77533 8.21668C4.87399 8.34868 6.17199 10.35 8.15932 11.208C8.63198 11.412 9.00132 11.534 9.28865 11.6253C9.76332 11.776 10.1953 11.7547 10.5366 11.704C10.9173 11.6473 11.7086 11.2247 11.874 10.762C12.0393 10.2993 12.0393 9.90201 11.9893 9.82001C11.94 9.73668 11.808 9.68734 11.61 9.58801Z" fill="#25D366"/>
</svg>
