<svg width="16" height="16" viewBox="0 0 16 16" fill="none" xmlns="http://www.w3.org/2000/svg">
<g clip-path="url(#clip0_1977_24)">
<path d="M15.7723 6.81176C15.7473 6.80213 14.6544 6.81766 14.2274 5.67235C14.1739 5.52876 14.1154 5.38709 14.052 5.2476C13.5434 4.12801 14.325 3.36973 14.336 3.34473C14.3759 3.29679 14.3963 3.23572 14.3935 3.17347C14.3906 3.11123 14.3646 3.05229 14.3205 3.00823L12.9919 1.67963C12.9008 1.58832 12.7549 1.58176 12.6555 1.66401C12.6304 1.67513 11.8713 2.45607 10.7527 1.94816C10.6132 1.8847 10.4715 1.82615 10.3279 1.77263C9.17929 1.34441 9.1981 0.25307 9.18845 0.228008C9.18274 0.16595 9.15405 0.108264 9.108 0.0662641C9.06196 0.0242639 9.00189 0.000979213 8.93957 0.000976562H7.06051C6.99819 0.000979213 6.93812 0.0242639 6.89208 0.0662641C6.84604 0.108264 6.81735 0.16595 6.81164 0.228008C6.80201 0.253008 6.81754 1.3456 5.67223 1.77263C5.52868 1.82612 5.38705 1.88463 5.2476 1.94804C4.12798 2.45657 3.36964 1.67507 3.3446 1.66401C3.29667 1.62419 3.2356 1.60371 3.17335 1.60657C3.1111 1.60944 3.05217 1.63545 3.0081 1.67951L1.67939 3.00823C1.63533 3.05229 1.60932 3.11123 1.60645 3.17347C1.60359 3.23572 1.62407 3.29679 1.66389 3.34473C1.67504 3.36995 2.45623 4.12919 1.94792 5.2476C1.88463 5.38711 1.82613 5.52873 1.77251 5.67223C1.34435 6.82082 0.252948 6.80201 0.227886 6.81163C0.165828 6.81734 0.108142 6.84603 0.066142 6.89207C0.0241418 6.93812 0.000857143 6.99819 0.000854492 7.06051V8.93969C0.000857143 9.00201 0.0241418 9.06209 0.066142 9.10813C0.108142 9.15417 0.165828 9.18286 0.227886 9.18857C0.252886 9.19819 1.34548 9.18254 1.77251 10.3279C1.82606 10.4714 1.88456 10.6131 1.94792 10.7526C2.45673 11.8721 1.67482 12.6306 1.66376 12.6556C1.62399 12.7035 1.60356 12.7646 1.60645 12.8268C1.60934 12.889 1.63535 12.9479 1.67939 12.992L3.0081 14.3206C3.05212 14.3647 3.11107 14.3908 3.17334 14.3937C3.23562 14.3965 3.29672 14.376 3.3446 14.3361C3.36973 14.3249 4.12914 13.5437 5.24748 14.0522C5.38701 14.1155 5.52867 14.174 5.67223 14.2276C6.81626 14.654 6.80198 15.7474 6.81164 15.7724C6.8174 15.8345 6.84611 15.8921 6.89215 15.934C6.93819 15.976 6.99823 15.9992 7.06051 15.9992H8.93957C9.00189 15.9992 9.06196 15.9759 9.108 15.9339C9.15405 15.8919 9.18274 15.8343 9.18845 15.7722C9.19807 15.7472 9.18242 14.6546 10.3277 14.2276C10.4713 14.1741 10.613 14.1156 10.7525 14.0522C11.872 13.5434 12.6304 14.3251 12.6555 14.3362C12.7549 14.4187 12.9008 14.4121 12.9919 14.3206L14.3204 12.992C14.3645 12.9479 14.3905 12.889 14.3934 12.8268C14.3963 12.7646 14.3758 12.7035 14.3361 12.6556C14.3249 12.6304 13.5437 11.871 14.052 10.7526C14.1154 10.6131 14.1739 10.4715 14.2274 10.328C14.6557 9.17941 15.747 9.19823 15.7721 9.18857C15.8341 9.18286 15.8918 9.15417 15.9338 9.10813C15.9758 9.06209 15.9991 9.00201 15.9991 8.93969V7.06063C15.9991 6.99835 15.9759 6.9383 15.9339 6.89227C15.8919 6.84623 15.8343 6.81752 15.7723 6.81176ZM15.4991 8.71463C14.7111 8.82838 14.0506 9.37129 13.759 10.1533C13.7095 10.286 13.6554 10.4169 13.5968 10.5459C13.2502 11.3086 13.3329 12.1609 13.8079 12.7975L12.7974 13.808C12.1608 13.3328 11.3082 13.2505 10.5455 13.597C10.4166 13.6557 10.2858 13.7097 10.1531 13.7591C9.37104 14.0507 8.82826 14.7113 8.71438 15.4993H7.2856C7.17185 14.7114 6.62907 14.0507 5.84692 13.7591C5.71418 13.7096 5.58321 13.6555 5.45426 13.5969C4.69129 13.2501 3.83895 13.3329 3.20257 13.8079L2.19195 12.7975C2.6671 12.1609 2.74976 11.3086 2.40323 10.5459C2.34458 10.4169 2.29047 10.286 2.24101 10.1533C1.94942 9.37107 1.28885 8.82826 0.500854 8.71451V7.28573C1.28873 7.17198 1.94942 6.62907 2.24089 5.84716C2.29047 5.71441 2.34462 5.58341 2.40323 5.45438C2.74976 4.69166 2.66723 3.83932 2.19207 3.2027L3.20257 2.1922C3.83898 2.66713 4.69167 2.74963 5.45439 2.40323C5.58292 2.34476 5.71376 2.2907 5.84679 2.24113C6.62892 1.94954 7.17185 1.28898 7.2856 0.500977H8.71438C8.82813 1.28898 9.37104 1.94954 10.1533 2.24113C10.286 2.29056 10.4169 2.34467 10.5457 2.40335C11.3084 2.74963 12.1605 2.6671 12.7974 2.1922L13.8079 3.2027C13.3328 3.83935 13.2502 4.69179 13.5969 5.45438C13.6555 5.58332 13.7096 5.71429 13.759 5.84704C14.0506 6.62907 14.7113 7.17198 15.4991 7.28573V8.71463Z" fill="#454545" fill-opacity="0.9"/>
<path d="M14.3559 2.97287L14.3559 2.97288C14.4088 3.02576 14.44 3.09648 14.4434 3.17117C14.4468 3.24468 14.4231 3.31682 14.3768 3.37392C14.3762 3.37473 14.3758 3.37533 14.3755 3.37566L14.3755 3.37576L14.3716 3.38072L14.3633 3.39057C14.3617 3.39245 14.3599 3.39448 14.3581 3.39664C14.3525 3.40306 14.3458 3.41077 14.338 3.42006C14.3171 3.44471 14.2884 3.47975 14.2559 3.52454C14.1908 3.61418 14.1103 3.74269 14.0456 3.90428C13.9166 4.22643 13.8498 4.68152 14.0975 5.22691C14.1614 5.36746 14.2204 5.51021 14.2743 5.65488C14.4822 6.21256 14.8508 6.48586 15.1702 6.62194C15.3304 6.69019 15.4785 6.72401 15.5882 6.74134C15.643 6.74999 15.6881 6.75452 15.7204 6.75718C15.7366 6.75852 15.7493 6.75937 15.7592 6.76009L15.772 6.76115L15.7781 6.76193L15.7783 6.76195C15.7787 6.76201 15.7794 6.76213 15.7804 6.76231C15.8535 6.76996 15.9213 6.8042 15.9709 6.85859C16.0212 6.91383 16.0491 6.98589 16.0491 7.06063V8.9397C16.0491 9.01448 16.0212 9.08657 15.9708 9.14182C15.9211 9.19622 15.8533 9.23044 15.7801 9.23802C15.779 9.23823 15.7782 9.23835 15.7778 9.23841L15.7717 9.23918L15.7588 9.24021C15.749 9.24091 15.7363 9.24173 15.7201 9.24303C15.6879 9.24562 15.6428 9.25003 15.5881 9.25856C15.4785 9.27564 15.3306 9.30916 15.1705 9.3772C14.8514 9.51284 14.4828 9.78611 14.2743 10.3454L14.2743 10.3455C14.2203 10.49 14.1614 10.6327 14.0976 10.7733L14.0976 10.7733C13.85 11.3181 13.9167 11.7731 14.0457 12.0955C14.1104 12.2571 14.1909 12.3858 14.256 12.4755C14.2885 12.5204 14.3171 12.5555 14.338 12.5802C14.3485 12.5927 14.3569 12.6022 14.3634 12.6098L14.3717 12.6196L14.3755 12.6246L14.3756 12.6247C14.3758 12.625 14.3763 12.6256 14.3768 12.6264C14.423 12.6835 14.4467 12.7557 14.4433 12.8291C14.4399 12.9038 14.4087 12.9745 14.3558 13.0273L14.3204 12.992L14.3558 13.0273L13.0273 14.3558L14.3559 2.97287ZM14.3559 2.97287L13.0273 1.64433M14.3559 2.97287L13.0273 1.64433M2.97275 1.64415L2.97275 1.64415C3.02564 1.59128 3.09635 1.56007 3.17105 1.55663C3.24457 1.55324 3.31672 1.577 3.37382 1.6233C3.37462 1.62384 3.3752 1.62427 3.37553 1.6245L3.37563 1.62458L3.38059 1.62841L3.39044 1.63673C3.39235 1.63838 3.39439 1.64015 3.39659 1.64204C3.403 1.64759 3.41068 1.65424 3.41995 1.66209C3.4446 1.68296 3.47965 1.71159 3.52444 1.74411C3.6141 1.8092 3.74261 1.88975 3.90422 1.95445C4.2264 2.08345 4.68151 2.15024 5.22693 1.90251C5.36743 1.83863 5.51013 1.77968 5.65476 1.72578C6.21244 1.51785 6.48574 1.14926 6.62182 0.829956C6.69007 0.669802 6.72389 0.521696 6.74121 0.412048C6.74987 0.357276 6.7544 0.312157 6.75706 0.279926C6.75807 0.267632 6.75881 0.257349 6.75942 0.248819C6.75961 0.246077 6.75979 0.243517 6.75997 0.241129L6.76103 0.228338L6.76181 0.222173L6.76183 0.222042C6.76189 0.22165 6.762 0.220928 6.76219 0.219962C6.76977 0.146809 6.80399 0.0789452 6.85838 0.0293248C6.91363 -0.0210775 6.98572 -0.0490203 7.06051 -0.0490234H8.93957C9.01436 -0.0490203 9.08645 -0.0210776 9.1417 0.0293248C9.1961 0.0789481 9.23031 0.146817 9.2379 0.219976C9.23809 0.220966 9.2382 0.221705 9.23826 0.222105L9.23828 0.222236L9.23906 0.22843L9.24009 0.241237C9.24026 0.243662 9.24044 0.246263 9.24063 0.24905C9.24122 0.257553 9.24193 0.267784 9.24291 0.280013C9.24549 0.312216 9.24991 0.35729 9.25844 0.41201C9.27552 0.521551 9.30903 0.669523 9.37708 0.829575C9.51272 1.14865 9.78598 1.51724 10.3453 1.72578C10.3453 1.72578 10.3453 1.72578 10.3453 1.72578L2.97275 1.64415ZM2.97275 1.64415L1.64403 2.97287L1.64403 2.97288M2.97275 1.64415L1.64403 2.97288M1.64403 2.97288C1.59116 3.02576 1.55995 3.09648 1.55651 3.17117C1.55312 3.24469 1.57688 3.31685 1.62318 3.37394C1.62371 3.37472 1.62413 3.3753 1.62436 3.37562L1.62443 3.37572L1.62827 3.38069L1.63659 3.39057C1.63826 3.39251 1.64005 3.39458 1.64197 3.3968C1.64751 3.40321 1.65414 3.41089 1.66196 3.42014C1.68283 3.44483 1.71146 3.47993 1.74398 3.52477C1.80907 3.61452 1.88959 3.74313 1.95428 3.90479C2.08324 4.22709 2.15 4.68212 1.9024 5.22691L1.90238 5.22695M1.64403 2.97288L1.90238 5.22695M1.90238 5.22695C1.83863 5.36749 1.77969 5.51016 1.72567 5.65473L1.72566 5.65476M1.90238 5.22695L1.72566 5.65476M1.72566 5.65476C1.51715 6.21411 1.14856 6.48738 0.829477 6.62303C0.669421 6.69107 0.521444 6.72459 0.411898 6.74166C0.357176 6.75018 0.312101 6.7546 0.279898 6.75718C0.267653 6.75816 0.257408 6.75887 0.248898 6.75945C0.246126 6.75964 0.243538 6.75982 0.241125 6.75999L0.228324 6.76103L0.22214 6.76179L0.222009 6.76181C0.221607 6.76188 0.220861 6.76199 0.219862 6.76218C0.1467 6.76976 0.0788279 6.80398 0.0292028 6.85838C-0.0211996 6.91363 -0.0491423 6.98572 -0.0491455 7.06051V8.93969C-0.0491423 9.01448 -0.0211997 9.08657 0.0292028 9.14182C0.0788259 9.19622 0.146695 9.23044 0.219853 9.23802C0.220819 9.2382 0.221539 9.23832 0.221929 9.23838L0.222055 9.2384L0.22822 9.23917L0.241012 9.24023C0.243381 9.24041 0.24592 9.24059 0.248637 9.24078C0.257181 9.24139 0.267485 9.24213 0.27981 9.24314C0.31204 9.2458 0.357159 9.25032 0.411931 9.25897C0.521578 9.27628 0.669684 9.31009 0.829838 9.37833C1.14914 9.51437 1.51773 9.78764 1.72566 10.3453L1.77251 10.3279L1.72566 10.3453C1.77961 10.49 1.83856 10.6327 1.90239 10.7733L1.9024 10.7733M1.72566 5.65476L1.9024 10.7733M1.9024 10.7733C2.15026 11.3186 2.08343 11.7737 1.95438 12.0959C1.88964 12.2576 1.80905 12.3861 1.74392 12.4758C1.71139 12.5205 1.68274 12.5556 1.66186 12.5803C1.65401 12.5895 1.64735 12.5972 1.6418 12.6036C1.63991 12.6058 1.63814 12.6079 1.6365 12.6098L1.62818 12.6196L1.62434 12.6246L1.62427 12.6247C1.62403 12.625 1.62359 12.6256 1.62302 12.6264M1.9024 10.7733L1.62302 12.6264M1.62302 12.6264C1.57679 12.6835 1.55309 12.7557 1.5565 12.8291C1.55997 12.9038 1.59118 12.9745 1.64403 13.0273L1.67939 12.992L1.64403 13.0273L2.97269 14.3559L1.62302 12.6264ZM3.37382 14.3768C3.31676 14.4232 3.24459 14.447 3.17104 14.4436C3.09631 14.4402 3.02558 14.4089 2.97275 14.3559L3.37382 14.3768ZM3.37382 14.3768C3.3747 14.3762 3.37532 14.3757 3.37561 14.3755L3.38058 14.3717L3.39044 14.3634C3.39794 14.3569 3.40754 14.3485 3.41999 14.338C3.44468 14.3171 3.47978 14.2885 3.52461 14.256C3.61437 14.1909 3.74299 14.1104 3.90466 14.0457C4.22697 13.9167 4.68203 13.85 5.22678 14.0977L5.22682 14.0977C5.36739 14.1615 5.51012 14.2204 5.65475 14.2744L5.65476 14.2744C6.21178 14.4821 6.48509 14.8507 6.62133 15.1701C6.68966 15.3304 6.7236 15.4786 6.74103 15.5883C6.74973 15.6431 6.75431 15.6883 6.757 15.7205C6.75803 15.7328 6.75877 15.7431 6.75939 15.7516C6.75959 15.7544 6.75978 15.757 6.75995 15.7594L6.76103 15.7722L6.76181 15.7783L6.76183 15.7784C6.76189 15.7788 6.76201 15.7796 6.76219 15.7805C6.76984 15.8536 6.80408 15.9214 6.85847 15.971C6.91372 16.0213 6.98577 16.0492 7.06052 16.0492H8.93957C9.01436 16.0492 9.08645 16.0213 9.1417 15.9709C9.1961 15.9213 9.23031 15.8534 9.2379 15.7802C9.23808 15.7793 9.2382 15.7785 9.23826 15.7782L9.23828 15.778L9.23905 15.7719L9.24011 15.7591C9.24046 15.7543 9.24084 15.7489 9.24129 15.7427C9.24177 15.7361 9.24233 15.7287 9.24302 15.7203C9.24568 15.688 9.2502 15.6429 9.25885 15.5881C9.27616 15.4785 9.30997 15.3304 9.3782 15.1702C9.51425 14.8509 9.78751 14.4824 10.3452 14.2744C10.3452 14.2744 10.3452 14.2744 10.3452 14.2744L10.3277 14.2276M3.37382 14.3768L10.7732 14.0977M10.3277 14.2276C10.4713 14.1741 10.613 14.1156 10.7525 14.0522C11.7846 13.5832 12.5098 14.2109 12.6364 14.3205C12.6471 14.3298 12.6535 14.3353 12.6555 14.3362M10.3277 14.2276C9.27105 14.6216 9.2026 15.5821 9.19078 15.748C9.18979 15.7619 9.18919 15.7703 9.18845 15.7722L10.3277 14.2276ZM12.6555 14.3362L12.6236 14.3747C12.6245 14.3754 12.6254 14.3762 12.6263 14.3769M12.6555 14.3362L12.6353 14.3819C12.6314 14.3802 12.6282 14.3782 12.6263 14.3769M12.6555 14.3362C12.7549 14.4187 12.9008 14.4121 12.9919 14.3206L13.0272 14.3559C12.9186 14.465 12.7454 14.4734 12.6263 14.3769M12.6263 14.3769C12.6254 14.3763 12.6248 14.3758 12.6245 14.3756L12.6195 14.3718L12.6096 14.3635C12.6064 14.3607 12.6029 14.3576 12.5988 14.3541C12.5934 14.3495 12.5873 14.3441 12.5801 14.3381C12.5555 14.3172 12.5204 14.2886 12.4756 14.2561C12.386 14.191 12.2574 14.1104 12.0958 14.0457C11.7736 13.9167 11.3185 13.8499 10.7732 14.0977M10.7732 14.0977C10.7732 14.0977 10.7732 14.0977 10.7732 14.0977L10.7532 14.0537L10.7732 14.0977ZM13.7121 10.1359L13.7121 10.1359C14.0045 9.3517 14.6612 8.80145 15.4491 8.67176V7.32859C14.6613 7.19891 14.0045 6.64866 13.7121 5.86451L13.7121 5.86447C13.6631 5.73283 13.6095 5.60295 13.5514 5.47508L13.5514 5.47507C13.2039 4.71064 13.2784 3.85582 13.7423 3.20777L12.7923 2.25782C12.1441 2.7215 11.2896 2.79599 10.5251 2.44888L10.525 2.44885C10.3972 2.39066 10.2674 2.337 10.1359 2.28799L10.1359 2.28798C9.35146 1.9956 8.8012 1.33894 8.67152 0.550977H7.32847C7.19879 1.33894 6.6485 1.9956 5.86426 2.28798L5.86425 2.28799C5.73231 2.33714 5.60255 2.39076 5.47509 2.44874L5.47506 2.44875C4.71053 2.79598 3.85547 2.72154 3.20765 2.25783L2.25771 3.20777C2.72163 3.85579 2.79611 4.71052 2.44875 5.47506C2.39062 5.60303 2.33692 5.73296 2.28774 5.86463L13.7121 10.1359ZM13.7121 10.1359C13.6631 10.2675 13.6094 10.3973 13.5512 10.5251L13.5512 10.5252C13.2039 11.2897 13.2785 12.1444 13.7423 12.7925L12.7923 13.7424M13.7121 10.1359L12.7923 13.7424M12.7923 13.7424C12.1443 13.2784 11.2893 13.2041 10.5248 13.5515L10.5248 13.5515C10.397 13.6097 10.2672 13.6633 10.1356 13.7122L10.1356 13.7123C9.35145 14.0046 8.80132 14.6613 8.67152 15.4493H7.32847C7.19879 14.6614 6.64866 14.0046 5.86438 13.7122L5.84754 13.7574L5.86438 13.7122C5.73273 13.6632 5.60285 13.6095 5.47496 13.5514L5.47495 13.5514C4.71015 13.2038 3.85542 13.2785 3.20764 13.7423L2.25759 12.7925C2.72151 12.1444 2.79612 11.2897 2.44875 10.5252L2.44874 10.5251C2.39057 10.3973 2.33691 10.2675 2.28786 10.1359L2.24754 10.1509L2.28786 10.1359C1.99548 9.35149 1.33882 8.80132 0.550854 8.67164V7.32859C1.33869 7.19891 1.99546 6.64867 2.28772 5.86466L12.7923 13.7424ZM13.0273 1.64433C13.0272 1.64431 13.0272 1.64429 13.0272 1.64428M13.0273 1.64433L13.0272 1.64428M13.0272 1.64428C12.9186 1.53543 12.7455 1.52702 12.6263 1.62327C12.6254 1.62388 12.6248 1.62435 12.6245 1.62457L12.6195 1.62839L12.6096 1.63671C12.6077 1.63836 12.6057 1.64014 12.6035 1.64204C12.5971 1.64758 12.5894 1.65422 12.5801 1.66206C12.5554 1.68292 12.5203 1.71154 12.4755 1.74405C12.3858 1.80912 12.2572 1.88962 12.0956 1.9543C11.7733 2.08325 11.3183 2.15005 10.7734 1.90264L13.0272 1.64428Z" stroke="#454545" stroke-opacity="0.9" stroke-width="0.1"/>
<path d="M7.99999 3.51758C5.52833 3.51758 3.51746 5.52845 3.51746 8.00011C3.51746 10.4718 5.52833 12.4826 7.99999 12.4826C10.4716 12.4826 12.4825 10.4718 12.4825 8.00011C12.4825 5.52845 10.4716 3.51758 7.99999 3.51758ZM7.99999 11.9827C5.80396 11.9827 4.01739 10.1962 4.01739 8.00011C4.01739 5.80405 5.80396 4.01752 7.99999 4.01752C10.196 4.01752 11.9826 5.80408 11.9826 8.00011C11.9826 10.1961 10.196 11.9827 7.99999 11.9827Z" fill="#454545" fill-opacity="0.9"/>
<path d="M7.99999 3.46758C5.50072 3.46758 3.46746 5.50084 3.46746 8.00011C3.46746 10.4994 5.50072 12.5326 7.99999 12.5326C10.4993 12.5326 12.5325 10.4994 12.5325 8.00011C12.5325 5.50084 10.4993 3.46758 7.99999 3.46758ZM7.99999 11.9327C5.83157 11.9327 4.06739 10.1686 4.06739 8.00011C4.06739 5.83166 5.83157 4.06752 7.99999 4.06752C10.1684 4.06752 11.9326 5.83169 11.9326 8.00011C11.9326 10.1685 10.1684 11.9327 7.99999 11.9327Z" stroke="#454545" stroke-opacity="0.9" stroke-width="0.1"/>
<path d="M9.8545 6.47769H9.00437V6.18475C9.00437 5.88475 8.76037 5.64062 8.46037 5.64062H7.5409C7.2409 5.64062 6.99678 5.88475 6.99678 6.18475V6.47769H6.14544C5.76522 6.47769 5.45581 6.78709 5.45581 7.16731V7.68081C5.45581 7.92769 5.58603 8.14706 5.79012 8.26966V9.69084C5.79012 10.0593 6.0899 10.3591 6.45825 10.3591H9.54165C9.91003 10.3591 10.2098 10.0593 10.2098 9.69084V8.26972C10.4139 8.14712 10.5441 7.92769 10.5441 7.68081V7.16731C10.5441 6.78709 10.2347 6.47769 9.8545 6.47769ZM7.49672 6.18475C7.49672 6.16034 7.5165 6.14056 7.5409 6.14056H8.46037C8.48465 6.14056 8.50444 6.16034 8.50444 6.18475V6.47769H7.49675V6.18475H7.49672ZM5.95575 7.16728C5.9558 7.11699 5.9758 7.06877 6.01136 7.03321C6.04692 6.99764 6.09514 6.97764 6.14544 6.97759C7.37178 6.97781 8.77494 6.97762 9.8545 6.97759C9.90479 6.97764 9.95301 6.99764 9.98857 7.03321C10.0241 7.06877 10.0441 7.11699 10.0442 7.16728V7.68078C10.0443 7.72125 10.0314 7.76069 10.0075 7.79329C9.98349 7.8259 9.94969 7.84995 9.91103 7.86191L8.18734 8.39956C8.06537 8.43787 7.93459 8.43787 7.81262 8.39956L6.08906 7.86191C6.05038 7.84997 6.01655 7.82593 5.99255 7.79332C5.96856 7.76072 5.95567 7.72126 5.95578 7.68078L5.95575 7.16728ZM9.54165 9.85913H6.45825C6.41364 9.85905 6.37089 9.84129 6.33936 9.80974C6.30783 9.77819 6.2901 9.73542 6.29006 9.69081V8.44834L7.66369 8.87681C7.8826 8.94548 8.1173 8.94548 8.33622 8.87681L9.70984 8.44837V9.69081C9.70981 9.73542 9.69208 9.77819 9.66055 9.80975C9.62902 9.8413 9.58626 9.85906 9.54165 9.85913Z" fill="#454545" fill-opacity="0.9"/>
<path d="M6.45833 9.80913H9.54158L9.54165 9.80912M6.45833 9.80913L9.70984 9.69081C9.70981 9.73542 9.69208 9.77819 9.66055 9.80975C9.62902 9.8413 9.58626 9.85906 9.54165 9.85913V9.80912M6.45833 9.80913L6.45825 9.80912C6.45828 9.80912 6.4583 9.80913 6.45833 9.80913ZM9.54165 9.80912C9.57299 9.80906 9.60303 9.79657 9.62518 9.7744C9.64735 9.75222 9.65982 9.72214 9.65984 9.69077M9.54165 9.80912L9.65984 9.69077M9.65984 9.69077V8.51635L8.35118 8.92452L8.3511 8.92454L8.33622 8.87681L9.65984 9.69077ZM6.34006 8.51632L6.34006 9.69077L6.34006 8.51632ZM6.34006 8.51632L7.64872 8.92452L6.34006 8.51632ZM7.54675 6.42769V6.19056H8.45444V6.42769H7.54675ZM9.99419 7.68078L9.99419 7.68093C9.99427 7.71069 9.98481 7.7397 9.96718 7.76368C9.94955 7.78766 9.92469 7.80534 9.89626 7.81414L9.89614 7.81417L8.17245 8.35183L8.17236 8.35186C8.06014 8.38711 7.93982 8.38711 7.82761 8.35186L7.82751 8.35183L6.10395 7.81417L6.1038 7.81413C6.07535 7.80535 6.05047 7.78767 6.03282 7.76369C6.01518 7.73971 6.0057 7.71069 6.00578 7.68092V7.68078L6.00575 7.16733C6.00575 7.16731 6.00575 7.1673 6.00575 7.16728C6.0058 7.13025 6.02053 7.09475 6.04672 7.06856C6.07291 7.04236 6.10844 7.02763 6.14548 7.02759C7.05758 7.02776 8.06748 7.02769 8.9693 7.02764C9.27999 7.02762 9.57784 7.0276 9.85445 7.02759C9.8915 7.02763 9.92702 7.04236 9.95322 7.06856C9.97941 7.09476 9.99415 7.13028 9.99419 7.16733V7.68078ZM9.8545 6.42769H9.05437V6.18475C9.05437 5.85715 8.788 5.59062 8.46037 5.59062H7.5409C7.21329 5.59062 6.94678 5.85714 6.94678 6.18475V6.42769H6.14544C5.7376 6.42769 5.40581 6.75948 5.40581 7.16731V7.68081C5.40581 7.93582 5.53539 8.16347 5.74012 8.29731V9.69084C5.74012 10.087 6.06229 10.4091 6.45825 10.4091H9.54165C9.93765 10.4091 10.2598 10.0869 10.2598 9.69084V8.29737C10.4645 8.16352 10.5941 7.93582 10.5941 7.68081V7.16731C10.5941 6.75948 10.2623 6.42769 9.8545 6.42769Z" stroke="#454545" stroke-opacity="0.9" stroke-width="0.1"/>
</g>
<defs>
<clipPath id="clip0_1977_24">
<rect width="16" height="16" fill="white"/>
</clipPath>
</defs>
</svg>
