<svg width="15" height="15" viewBox="0 0 15 15" fill="none" xmlns="http://www.w3.org/2000/svg">
<path d="M0 7.25653V7.23548C0.188111 4.77449 1.06708 2.92858 2.59406 1.76156C4.10028 0.573492 5.73236 0.000505572 7.51038 0.000505572C9.37207 -0.0205402 11.1086 0.615584 12.657 1.88851C14.2261 3.14039 15 5.00735 15 7.42557V7.57425C15 10.0142 14.2261 11.8384 12.657 13.0903C11.0878 14.3632 9.35132 15 7.48962 15H7.40594C5.58575 14.979 3.91217 14.3422 2.36444 13.0692C0.81604 11.8173 0.0207524 9.88725 0 7.25653ZM7.04981 3.92587V0.573492H6.54773C6.4433 0.701125 6.35962 0.849124 6.27594 0.976756C6.19226 1.10439 6.10858 1.23134 6.0249 1.38002C5.94122 1.50765 5.83679 1.67737 5.77387 1.80433C5.69019 1.93196 5.62726 2.05891 5.56433 2.20759C5.43848 2.42009 5.33405 2.6319 5.25037 2.82267C5.14594 3.01344 5.06226 3.20489 4.99933 3.37461C5.12518 3.45947 5.27112 3.56538 5.43848 3.6292C5.62659 3.69301 5.81537 3.75683 6.00348 3.79892C6.21301 3.84169 6.40113 3.86274 6.56848 3.88378C6.75659 3.90483 6.92395 3.92587 7.04981 3.92587ZM7.92877 0.574172V3.90483C8.0332 3.90483 8.15906 3.92587 8.28424 3.90483C8.41009 3.90483 8.55603 3.88378 8.68189 3.86206C8.91217 3.81929 9.18396 3.75615 9.39349 3.69233C9.62378 3.60747 9.83264 3.50156 9.97925 3.37393C9.72821 2.75885 9.45642 2.27073 9.18396 1.80365C8.9115 1.33657 8.59821 0.933985 8.26349 0.594538V0.573492L7.92877 0.574172ZM5.66943 0.764941V0.743895C5.52283 0.807711 5.37622 0.913619 5.20886 0.977435C5.06226 1.04125 4.87415 1.12611 4.72754 1.21097C4.43433 1.35965 4.14179 1.52938 3.84857 1.72014C3.57678 1.91091 3.30432 2.12341 3.07471 2.33522C3.15839 2.42009 3.26282 2.50495 3.3465 2.56876C3.43018 2.63258 3.53461 2.71744 3.63971 2.8023C3.72339 2.84507 3.82782 2.90821 3.93292 2.99307C4.03735 3.05689 4.16321 3.14175 4.28839 3.22661C4.45575 2.84439 4.62311 2.44181 4.83264 2.08064C5.04217 1.69842 5.27179 1.33793 5.50208 1.01953C5.52283 0.976756 5.54425 0.934664 5.58575 0.891894C5.60651 0.870848 5.62793 0.807711 5.66943 0.764941ZM12.0706 2.33454V2.3135C11.5477 1.91024 11.0872 1.57079 10.6273 1.35897C10.1674 1.14716 9.70679 0.934664 9.28839 0.764941C9.62311 1.10439 9.91632 1.5287 10.1044 1.93196C10.314 2.35627 10.5228 2.80162 10.6902 3.22593C10.7739 3.18316 10.8783 3.14107 11.0042 3.05621C11.1086 2.99239 11.2552 2.92858 11.381 2.86544C11.5069 2.78058 11.6113 2.69572 11.7365 2.61085C11.8624 2.50495 11.9869 2.41941 12.0706 2.33454ZM11.7151 7.06576H14.121C14.121 6.28096 13.9537 5.53825 13.6397 4.77449C13.3465 4.03178 12.9281 3.4167 12.4053 2.88649V2.86544C12.3008 3.03516 12.1542 3.18384 12.0076 3.28975C11.8403 3.39566 11.6937 3.48052 11.5263 3.56538C11.4219 3.6292 11.3168 3.71406 11.2123 3.75615C11.1079 3.81997 10.9613 3.86206 10.8569 3.92587C10.9406 4.0956 11.0242 4.28637 11.1079 4.45609C11.1708 4.64686 11.2753 4.85935 11.3174 5.05012C11.4433 5.38957 11.527 5.75006 11.6107 6.11123C11.6736 6.42964 11.7151 6.76908 11.7151 7.06576ZM4.14246 3.92587V3.90483C3.9751 3.81997 3.78699 3.75615 3.64038 3.67129C3.49377 3.56538 3.34717 3.45879 3.22198 3.37393C3.09613 3.31012 2.97095 3.22525 2.86652 3.14039C2.76208 3.05553 2.6784 2.97067 2.59472 2.88581C2.05048 3.41602 1.6535 4.01006 1.40246 4.71068C1.13067 5.41062 0.941893 6.1961 0.858214 7.04471H3.43152C3.43152 6.45068 3.5152 5.87769 3.6618 5.30471C3.78766 4.71068 3.9751 4.26532 4.14246 3.92587ZM7.04981 7.04471V4.60477C6.88245 4.62581 6.67291 4.62581 6.4848 4.60477C6.27527 4.58372 6.06641 4.51991 5.8783 4.45609C5.71094 4.41332 5.50141 4.37123 5.33405 4.30741C5.14594 4.26464 4.95716 4.17978 4.81122 4.09492C4.68537 4.30741 4.58093 4.562 4.49726 4.83763C4.39282 5.09221 4.3299 5.36784 4.26697 5.62243C4.2248 5.87702 4.20404 6.15265 4.18329 6.38619C4.16254 6.61973 4.14112 6.85327 4.14112 7.04404L7.04981 7.04471ZM7.92877 4.64754V7.04471H11.0249C11.0249 6.91708 11.0249 6.76908 11.0042 6.59936C10.962 6.45068 10.9412 6.25991 10.9205 6.09019C10.8575 5.8356 10.7946 5.55997 10.7109 5.30539C10.6273 5.07185 10.5436 4.83831 10.4391 4.64754C10.397 4.54163 10.3555 4.414 10.3133 4.32914C10.2504 4.22323 10.1874 4.15941 10.1459 4.0956C9.91565 4.26532 9.60169 4.37123 9.22547 4.45609C8.87 4.54095 8.4516 4.62581 8.07471 4.64686L7.92877 4.64754ZM3.43085 7.74465H0.857545C0.857545 8.10515 0.920471 8.50841 1.0249 8.99654C1.12933 9.50571 1.33887 9.97278 1.56915 10.482C1.67358 10.7365 1.79944 10.9911 1.92462 11.2457C2.07123 11.4793 2.23859 11.7338 2.40594 11.9674C2.5318 11.8825 2.65698 11.8187 2.76141 11.7549C2.88727 11.6911 3.0332 11.6062 3.15906 11.5424C3.30566 11.4786 3.45227 11.4148 3.61963 11.3299C3.76623 11.2661 3.95434 11.1812 4.14246 11.0964C3.9751 10.5661 3.78699 10.057 3.66113 9.48398C3.51453 8.93204 3.43085 8.38078 3.43085 7.7657V7.74465ZM7.04981 10.2267V7.74465H4.14179C4.14179 7.91438 4.16254 8.16896 4.20471 8.42355C4.22547 8.67813 4.28839 8.95376 4.33057 9.23007C4.41425 9.52743 4.47717 9.82411 4.56085 10.0787C4.64453 10.3333 4.72821 10.5458 4.81189 10.7365C5.18878 10.5879 5.565 10.482 5.81604 10.4181C6.08783 10.3333 6.33887 10.2695 6.58991 10.2484H6.82019C6.90387 10.2274 6.98688 10.2267 7.04981 10.2267ZM7.92877 7.74465V10.2056C8.07538 10.2267 8.24274 10.2484 8.41009 10.2695C8.59821 10.2905 8.82849 10.3333 9.0166 10.3754L9.33057 10.4392C9.435 10.482 9.56085 10.503 9.66528 10.524C9.79114 10.5668 9.91632 10.5879 10.0422 10.63C10.1466 10.6727 10.2517 10.6938 10.3354 10.7359C10.6072 10.0359 10.7745 9.46294 10.8796 8.97481C10.9841 8.50773 11.0262 8.10515 11.0262 7.7657V7.74465H7.92877ZM14.121 7.7657V7.74465H11.7151V7.87229C11.6943 8.27555 11.6314 8.74195 11.5477 9.23007C11.4641 9.69715 11.2759 10.2484 11.0249 10.9273C11.3596 11.097 11.6736 11.2668 11.9246 11.4365C12.1757 11.6062 12.4059 11.797 12.5733 11.9667C12.9288 11.6062 13.2427 11.1181 13.5145 10.4813C13.7863 9.8662 13.9751 9.2294 14.0795 8.5505C14.1003 8.42287 14.1003 8.29592 14.1217 8.16828L14.121 7.7657ZM7.04981 14.2152V10.9056C6.52698 10.9904 6.08716 11.0964 5.75244 11.1812C5.41773 11.2661 5.16669 11.3509 4.99933 11.4358C5.12518 11.7542 5.25037 12.0298 5.37622 12.2844C5.50208 12.518 5.64801 12.7725 5.77387 12.9844C5.81604 13.0692 5.89972 13.1541 5.96198 13.26C6.0249 13.3449 6.06641 13.4508 6.12933 13.5356C6.19226 13.6415 6.25519 13.7692 6.31745 13.8961C6.40112 14.002 6.46405 14.1297 6.54773 14.2145L7.04981 14.2152ZM7.92877 14.2152H8.41009C8.59821 14.0665 8.78699 13.8547 8.93292 13.6212C9.10028 13.3876 9.28839 13.112 9.41424 12.8785C9.56085 12.6028 9.70746 12.3482 9.83264 12.0937C9.95782 11.8391 10.0629 11.6055 10.1466 11.4358C9.91632 11.3509 9.60236 11.2661 9.28906 11.1812C8.97577 11.0964 8.53595 11.0115 7.92944 10.9266L7.92877 14.2152ZM12.0706 12.4759V12.4548C12.0284 12.391 11.9447 12.3061 11.8824 12.2423C11.8202 12.1785 11.7151 12.0937 11.6107 12.0298C11.527 11.966 11.4225 11.9022 11.2967 11.8391C11.1708 11.7759 11.0035 11.6904 10.8575 11.6055C10.7739 11.7753 10.6273 12.0726 10.4184 12.4752C10.2303 12.8785 9.89557 13.3666 9.47717 13.8968C10 13.8119 10.4606 13.6212 10.879 13.3666C11.3395 13.133 11.7358 12.8153 12.0706 12.4759ZM4.28839 11.797V11.7759C4.14179 11.8608 3.9115 11.9667 3.68189 12.0733C3.43085 12.1792 3.15906 12.3068 2.90802 12.4765C3.05463 12.6042 3.20123 12.7311 3.32642 12.816C3.45227 12.9219 3.59821 13.0068 3.72406 13.0916C3.95435 13.2403 4.22613 13.389 4.49792 13.5159C4.76971 13.6429 5.10443 13.7705 5.52283 13.8982C5.37622 13.7284 5.27179 13.5159 5.16736 13.3462C5.06293 13.1765 4.93707 13.0068 4.83264 12.837C4.72821 12.6673 4.64453 12.4765 4.56085 12.3068C4.45642 12.1371 4.37207 11.9667 4.28839 11.797Z" fill="#212427" fill-opacity="0.9"/>
</svg>
